<svg width="100" height="100" viewBox="0 0 100 100" fill="none" xmlns="http://www.w3.org/2000/svg">
<g id="Group">
<path id="Vector" d="M99.7414 48.7935C99.6557 48.6046 97.8389 44.6222 94.9665 41.0975C96.2711 36.7401 96.4256 32.3628 96.4313 32.157C96.4598 31.313 96.1223 30.5006 95.5073 29.9254C95.3557 29.7824 91.956 26.7983 87.9564 24.6411C87.4929 20.1179 85.9623 16.0152 85.8879 15.8207C85.5904 15.034 84.9695 14.4131 84.1828 14.1156C83.9883 14.0412 79.8856 12.3153 75.3624 11.8518C73.2053 7.84931 70.2184 4.64505 70.0781 4.4933C69.5002 3.87827 68.6448 3.44331 67.8465 3.57202C67.6405 3.57769 63.2632 3.73218 58.906 5.03685C55.3811 2.16442 51.3985 0.347652 51.2097 0.261715C50.8263 0.0873035 50.4144 0 50.0024 0C49.5905 0 49.1784 0.0873035 48.795 0.261715C48.6062 0.347456 44.6238 2.16423 41.099 5.03665C36.7417 3.73198 32.3644 3.57749 32.1585 3.57183C31.3088 3.44878 30.5021 3.87788 29.9269 4.4931C29.7867 4.64466 26.7998 7.84911 24.6426 11.8516C20.1195 12.3151 16.0168 14.041 15.8222 14.1154C15.0355 14.4129 14.4146 15.0338 14.1172 15.8205C14.0428 16.015 12.3168 20.1177 11.8534 24.6409C7.85087 26.7981 4.64662 29.7849 4.49486 29.9252C3.88256 30.5031 3.54507 31.3156 3.57358 32.1568C3.57925 32.3628 3.73374 36.7401 5.03841 41.0973C2.16599 44.622 0.349214 48.6046 0.263473 48.7933C-0.082616 49.5601 -0.082616 50.4413 0.263473 51.2079C0.349214 51.3968 2.16599 55.3791 5.03841 58.9039C3.73374 63.2612 3.57925 67.6385 3.57358 67.8444C3.54507 68.6856 3.88256 69.4981 4.49486 70.076C4.64642 70.2162 7.85087 73.2031 11.8534 75.3603C12.3168 79.8835 14.0428 83.9862 14.1172 84.1807C14.4146 84.9674 15.0355 85.5883 15.8252 85.8857C16.0197 85.9602 20.1195 87.4908 24.6426 87.9543C26.7998 91.954 29.7838 95.3536 29.9269 95.5051C30.5019 96.1202 31.3203 96.5065 32.1585 96.4292C32.3646 96.4235 36.7419 96.269 41.0963 94.9643C44.624 97.8338 48.6064 99.6535 48.7952 99.7393C49.1769 99.9127 49.59 99.9996 50.0026 99.9996C50.4157 99.9996 50.8288 99.9127 51.21 99.7393C51.3989 99.6535 55.3813 97.8338 58.906 94.9643C63.2634 96.269 67.6407 96.4235 67.8465 96.4292C68.7077 96.5006 69.5002 96.1202 70.0781 95.5051C70.2211 95.3536 73.2053 92.1491 75.3624 88.1496C79.8856 87.6861 83.9854 85.9602 84.1799 85.8857C84.9695 85.5883 85.5904 84.9674 85.8879 84.1807C85.9623 83.9862 87.6883 79.8835 88.1517 75.3603C92.1515 73.2031 95.3557 70.2192 95.5073 70.076C96.1223 69.501 96.46 68.6885 96.4313 67.8444C96.4256 67.6383 96.2711 63.2611 94.9665 58.9039C97.8389 55.3791 99.6557 51.3966 99.7414 51.2079C100.088 50.4413 100.088 49.5601 99.7414 48.7935Z" fill="#F3F5F9"/>
<path id="Vector_2" d="M51.2111 99.7396C51.4 99.6539 55.3823 97.8342 58.9071 94.9647C63.2645 96.2694 67.6418 96.4239 67.8476 96.4295C68.7087 96.501 69.5013 96.1205 70.0792 95.5055C70.2222 95.354 73.2063 92.1495 75.3635 88.15C79.8867 87.6865 83.9865 85.9605 84.181 85.8861C84.9706 85.5887 85.5915 84.9678 85.889 84.1811C85.9634 83.9865 87.6893 79.8839 88.1528 75.3607C92.1526 73.2035 95.3568 70.2195 95.5084 70.0764C96.1234 69.5014 96.4611 68.6889 96.4324 67.8448C96.4267 67.6387 96.2722 63.2614 94.9676 58.9043C97.84 55.3795 99.6567 51.3969 99.7425 51.2083C100.089 50.4415 100.089 49.5603 99.7425 48.7937C99.6567 48.6048 97.84 44.6224 94.9676 41.0977C96.2722 36.7403 96.4267 32.363 96.4324 32.1572C96.4609 31.3132 96.1234 30.5007 95.5084 29.9256C95.3568 29.7826 91.9571 26.7985 87.9575 24.6413C87.494 20.1181 85.9634 16.0154 85.889 15.8209C85.5915 15.0342 84.9706 14.4133 84.1839 14.1158C83.9894 14.0414 79.8867 12.3155 75.3635 11.852C73.2063 7.8495 70.2194 4.64525 70.0792 4.49349C69.5013 3.87846 68.6458 3.44351 67.8476 3.57222C67.6416 3.57788 63.2643 3.73237 58.9071 5.03704C55.3825 2.16442 51.4 0.347651 51.2111 0.261715C50.8277 0.0873035 50.4158 0 50.0039 0V100C50.417 100 50.8299 99.9131 51.2111 99.7396Z" fill="#E1E6F0"/>
<path id="Vector_3" d="M89.5231 56.2376C91.457 54.1806 92.9992 51.5226 93.8002 50.0006C92.999 48.4785 91.457 45.8207 89.5231 43.7635C88.7563 42.9454 88.5217 41.7665 88.9166 40.7194C89.918 38.0759 90.3242 35.0262 90.4817 33.3152C89.1598 32.2166 86.5214 30.3485 83.9464 29.1897C82.9251 28.7292 82.2583 27.7278 82.2212 26.6062C82.1355 23.7652 81.3458 20.807 80.8365 19.1705C79.1943 18.6614 76.2217 17.8688 73.3979 17.783C72.2764 17.7459 71.2751 17.0764 70.8144 16.0579C69.6556 13.4802 67.7874 10.8445 66.6888 9.52261C64.9779 9.68003 61.9282 10.0863 59.2846 11.0876C58.2489 11.4853 57.0645 11.2564 56.2405 10.4812C54.1835 8.54723 51.5256 7.00507 50.0035 6.2041C48.4815 7.00526 45.8237 8.54723 43.7665 10.4812C42.9454 11.2507 41.7581 11.4796 40.7224 11.0876C38.0789 10.0863 35.0291 9.68003 33.3182 9.52261C32.2196 10.8445 30.3514 13.4802 29.1927 16.0579C28.7321 17.0764 27.7308 17.7459 26.6091 17.783C23.7681 17.8688 20.81 18.6584 19.1735 19.1678C18.6643 20.81 17.8717 23.7826 17.786 26.6064C17.7489 27.7278 17.0793 28.7292 16.0608 29.1899C13.4831 30.3487 10.8474 32.2168 9.52554 33.3154C9.68296 35.0264 10.0892 38.0761 11.0906 40.7196C11.4853 41.7667 11.2507 42.9454 10.4841 43.7637C8.55016 45.8207 7.008 48.4787 6.20703 50.0008C7.00819 51.5228 8.55016 54.1806 10.4841 56.2378C11.2509 57.0559 11.4855 58.2348 11.0906 59.2819C10.0892 61.9254 9.68296 64.9752 9.52554 66.6861C10.8474 67.7847 13.4831 69.6528 16.0608 70.8116C17.0793 71.2721 17.7489 72.2735 17.786 73.3952C17.8717 76.2361 18.6614 79.1943 19.1707 80.8308C20.8129 81.34 23.7855 82.1325 26.6122 82.2212C27.731 82.2556 28.7321 82.9251 29.1929 83.9435C30.3516 86.5184 32.2198 89.1569 33.3184 90.4787C35.0293 90.3213 38.0761 89.9151 40.7198 88.9137C41.7814 88.5147 42.9567 88.7631 43.761 89.5174C45.8209 91.4514 48.4817 92.9935 50.0037 93.7974C51.5257 92.9935 54.1865 91.4543 56.2435 89.5203C57.0589 88.7508 58.2462 88.5219 59.2846 88.9139C61.9282 89.9153 64.9779 90.3215 66.6888 90.4789C67.7874 89.1571 69.6556 86.5186 70.8144 83.9437C71.2749 82.9251 72.2763 82.2556 73.395 82.2214C76.2188 82.1327 79.1914 81.3402 80.8336 80.831C81.3427 79.1888 82.1353 76.2192 82.221 73.3954C82.2581 72.2739 82.9249 71.2725 83.9462 70.8118C86.5212 69.653 89.1596 67.7849 90.4815 66.6863C90.324 64.9754 89.9178 61.9256 88.9165 59.2821C88.5217 58.2346 88.7565 57.0557 89.5231 56.2376Z" fill="#5DEFA5"/>
<path id="Vector_4" d="M59.2813 88.914C61.9248 89.9154 64.9746 90.3216 66.6855 90.479C67.7841 89.1572 69.6523 86.5187 70.811 83.9438C71.2716 82.9252 72.2729 82.2557 73.3917 82.2215C76.2155 82.1328 79.1881 81.3403 80.8303 80.8311C81.3394 79.1889 82.132 76.2193 82.2177 73.3955C82.2548 72.274 82.9216 71.2726 83.9429 70.8119C86.5179 69.6531 89.1563 67.785 90.4782 66.6864C90.3207 64.9755 89.9145 61.9257 88.9132 59.2822C88.5184 58.2351 88.753 57.0564 89.5196 56.2381C91.4535 54.1811 92.9957 51.5231 93.7967 50.0011C92.9955 48.479 91.4535 45.8212 89.5196 43.764C88.7528 42.9459 88.5182 41.767 88.9132 40.7199C89.9145 38.0764 90.3207 35.0267 90.4782 33.3157C89.1563 32.2171 86.5179 30.349 83.9429 29.1902C82.9216 28.7297 82.2548 27.7283 82.2177 26.6067C82.132 23.7657 81.3424 20.8075 80.833 19.171C79.1908 18.6618 76.2182 17.8693 73.3944 17.7835C72.2729 17.7464 71.2716 17.0769 70.8109 16.0584C69.6521 13.4807 67.7839 10.845 66.6853 9.5231C64.9744 9.68052 61.9246 10.0868 59.2811 11.0881C58.2454 11.4858 57.061 11.2569 56.237 10.4817C54.18 8.54772 51.5221 7.00556 50 6.20459V93.7977C51.5221 92.9938 54.1828 91.4546 56.2398 89.5206C57.0556 88.7509 58.2429 88.522 59.2813 88.914Z" fill="#3DD286"/>
<path id="Vector_5" d="M72.7893 38.4279L64.5009 30.1424C63.3566 28.9981 61.5025 28.9981 60.3582 30.1424L50.0015 40.5009L44.1422 46.3611L39.6419 41.8608C38.4975 40.7165 36.6435 40.7165 35.4991 41.8608L27.2137 50.1462C26.0694 51.2906 26.0694 53.1446 27.2137 54.289L42.0707 69.146C43.2151 70.2903 45.0691 70.2903 46.2135 69.146L50.0015 65.358L72.7893 42.5702C73.3387 42.0208 73.6477 41.277 73.6477 40.4989C73.6477 39.7208 73.3387 38.9773 72.7893 38.4279Z" fill="#F3F5F9"/>
<path id="Vector_6" d="M73.6462 40.4996C73.6462 39.7215 73.3372 38.9776 72.7878 38.4283L64.4994 30.1429C63.3551 28.9986 61.501 28.9986 60.3567 30.1429L50 40.5014V65.3587L72.7878 42.5709C73.3372 42.0217 73.6462 41.2777 73.6462 40.4996Z" fill="#E1E6F0"/>
</g>
</svg>
