<?xml version="1.0" encoding="utf-8"?>
<!-- Generator: Adobe Illustrator 24.0.0, SVG Export Plug-In . SVG Version: 6.00 Build 0)  -->
<svg version="1.1" id="witch_1_" xmlns="http://www.w3.org/2000/svg" xmlns:xlink="http://www.w3.org/1999/xlink" x="0px" y="0px"
	 viewBox="0 0 800 600" style="enable-background:new 0 0 800 600;" xml:space="preserve">
<style type="text/css">
	.st0{fill:#E1EAF4;}
	.st1{fill:#D0E0EF;}
	.st2{fill:#BAD4E5;}
	.st3{fill:#102830;}
</style>
<g id="moon">
	<path id="moon_2_" class="st0" d="M767.2,300c0,154-124.8,278.8-278.8,278.8c-154,0-278.8-124.8-278.8-278.8
		c0-51.5,13.9-99.6,38.2-141c48.4-82.4,138-137.8,240.6-137.8c96.9,0,182.2,49.4,232.2,124.4C750,189.8,767.2,242.9,767.2,300z"/>
	<path id="shadow" class="st1" d="M767.2,300c0,154-124.8,278.8-278.8,278.8c-154,0-278.8-124.8-278.8-278.8
		c0-51.5,13.9-99.6,38.2-141c1.6,2.7,3.2,5.4,4.6,8.2c8.4,15.5,14.8,32.1,19.1,49.1c3.2,12.9,7.1,28.2,19.7,32.5
		c4.9,1.7,11.4,1.9,13.5,6.6c0.9,2,0.7,4.4,0.6,6.6c-1.2,18.3,3.1,37,12.3,53c41.6,16.7,85.6,27.2,130.2,31.2
		c7.3,0.6,14.7,1.1,21.8-0.6c18.5-4.6,30.3-23.1,35.3-41.5c1.1-4.1,2.3-8.7,5.9-11.1c4-2.6,9.3-1.3,14-0.1
		c31.2,7.7,65.7,1.2,91.9-17.3c2.5-1.8,5.1-3.8,6.2-6.6c4.5-10.9-12.9-17.3-18.7-27.6c-6.2-11.2,3.5-25.4,15.3-30.2
		c11.8-4.8,25.1-3.9,37.6-6.3c17.8-3.5,33.8-14.3,44.5-28.9c5.2-7.1,9.4-15.4,14.1-23c1.5-2.5,3.2-5,4.9-7.4
		C750,189.8,767.2,242.9,767.2,300z"/>
	<g id="raters">
		<path id="_x30_5_1_" class="st2" d="M696.5,394c-10.7,11.7-24.6,20.6-38.1,29.2c-28.6,18.1-57.2,36.3-85.7,54.4
			c-5.4,3.4-10.9,6.9-17.1,8.8c-9.6,2.9-20,1.6-29.9,3.5c-7.1,1.4-13.8,4.4-21,5.3c-13.7,1.8-27.1-4-39.8-9.5
			c-23.6-10.1-47.9-19.3-73.2-24.1c-22.4-4.2-45.8-5.1-66.8-14c-10.3-4.4-19.8-10.7-28.4-17.9c-6.9-5.8-13.4-12.2-18.8-19.5
			c-4.7-6.3-8.5-13.2-12.2-20.1c-9.9-18.1-19.9-36.2-29.8-54.3c-3-5.4-6-11-7.1-17.1c-1.2-6.5-0.2-13.1,0.8-19.6
			c5.4-34.4,10.7-68.8,16.1-103.3c15.3,14.3,14.5,38.6,18.4,59.3c1,5.1,3.6,11.3,8.8,11.4c2.3,0,4.6-1.3,6.9-1.1
			c5.1,0.3,7.2,6.6,8.1,11.6c4,21,12.4,42.8,30.2,54.7c8.1,5.4,17.6,8.3,27,10.8c43.9,11.8,89.6,17.2,135.1,15.7
			c3.8-0.1,7.7-0.3,11-2.1c9.9-5.2,8.9-19.9,15.4-28.9c4.3-6,11.6-9,18.5-11.7c16.6-6.5,33.5-13.1,51.3-15c14.9-1.6,30.6,0,44.5-5.8
			c12.6-5.2,22.5-16,35.6-20.1c10.5-3.3,22.5-1.5,31.6,4.6c8.2,18.4-4.4,42.6,7.6,58.8c3.6,4.9,9.1,8.3,12.4,13.4
			c6.4,10.1,2.3,23.7-4.4,33.5C701.5,388.2,699.1,391.2,696.5,394z"/>
		<path id="_x30_4_1_" class="st2" d="M451.4,523.4c-12.8,3-25.7,5.9-38.9,5.8c-13.1-0.1-26.7-3.7-36.5-12.3
			c-6.2-5.4-10.8-12.7-18.1-16.6c-9-4.8-21.1-3.8-28.1-11.2c-3.1-3.3-5.2-8.4-9.7-9.2c3.2-0.2,3.2,3.3,5.9,1.6
			c-2.2-1-1.8-4.6,0.1-6.1c2-1.5,4.6-1.4,7-1.3c41.3,2.2,82.2,11,120.7,25.9c5.7,2.2,12.4,6,12.2,12.2c-0.1,3.1-1.8,5.4-4.3,7.1
			C458.9,521.3,454.9,522.6,451.4,523.4z"/>
		<path id="_x30_3_1_" class="st2" d="M555.2,519.4c-2.1,0.3-4.3,0.6-6.2,1.7c-2.8,1.8-4,5.2-5.4,8.2c-5.8,12.9-17.9,22.4-31.5,26.3
			c-13.6,3.8-28.4,2.1-41.4-3.5c-2.3-1-4.6-2.2-6-4.2c-1.4-2-1.6-5.1,0.3-6.8c3.1-9.3,13.4-13.8,22.4-17.7
			c8.9-3.8,17.8-7.7,26.7-11.5c14.2-6.1,28.8-12.4,44.2-13.4c4.8-0.3,9.7-0.1,14,2c4.3,2.1,7.7,6.6,7.4,11.3
			c-1.2,0.6-2.4,1.2-3.7,1.7C569.4,516.4,562.4,518.4,555.2,519.4z"/>
		<path id="_x30_2_1_" class="st1" d="M463.2,309.7c5,5.3,6.4,14.9,0.6,19.2c-2.6,1.9-5.9,2.4-9,2.6c-28.7,2.2-56.8-8.3-85.6-9.2
			c-5.3-0.2-10.8,0-15.8-1.9c-3.1-1.1-6-3-8.7-4.9c-8.5-6-16.3-13-23.3-20.7c-3.1-10,0.5-21.8,8.8-28.3c-2.8-4.8-0.1-11.3,4.5-14.4
			c4.6-3.1,10.4-3.7,15.9-3.7c10.2-0.1,20.7,1.2,30,5.4c11.6,5.3,20.8,14.7,30.3,23.2c10.1,8.9,21,17,33.4,22.4
			c4,1.7,8.2,3.2,12,5.3C458.8,306,461.2,307.6,463.2,309.7z"/>
		<path id="_x30_1_1_" class="st1" d="M378.3,223.7c-11.9,4.6-23.9,9-36,13.1c-2.8,0.9-6,1.8-8.4,0.2c-2.5-1.7-3-5.2-5.2-7.3
			c-3.9-3.6-10.4-0.8-15.3-2.9c-2.3-1-4-2.9-5.6-4.8c-6.1-7.1-12.2-14.2-16.9-22.2c-6.5-11.1-10.1-23.9-10.5-36.7
			c3.1-5.5,10.5-7.8,17.1-8.2c13.3-0.9,29,4.5,32.4,17.4c1.2,4.7,0.8,10.1,3.8,13.9c1.7,2.1,4.1,3.4,6.6,4.5
			c8.8,3.9,18.2,6.3,27.7,7c5.1,0.4,10.4,0.3,15.2,2.2c4.8,1.9,9,6.4,8.6,11.5c-0.3,3.3-2.2,5.8-4.8,7.9
			C384.5,221.1,381.3,222.6,378.3,223.7z"/>
	</g>
</g>
<path id="witch" class="st3" d="M765.2,421.4l2-3.7l-20.3-1.3l19.1-1.6l-1.7-4l-195.9,18l-50.6,2.1c-12.2-5.6-35.8-6.2-38.6-20.1
	l-11.5-20.1l6.6-25.9c0,0,7.3-20.1,6.7-19.6c0.5-0.5,7.1-20.8,1.5-27.8c-11.8-14.8-8.3-29.1-9.2-32.7c0,0,1.7-8.7,4.7-10.2
	c3.1-1.5,18.9,9.4,18.9,9.4s3.6,1,5.5-0.9c1.9-1.9-1-6.5,0.5-8c1.5-1.5,2.3,1.6,3.4,1.6c1.1,0,1.9-4.5,1.9-4.5l-4.9-0.2
	c0,0,4-0.9,5.2-2c1.2-1.1,2.3-2.2,2.3-2.2l-2.4-1.8c1-2.5,4.2-2.2,4.2-2.2l2.7-2.6c-4.6-0.1-9.8-7-10.8-12
	c-1.1-5,12.8-11.7,12.8-11.7l-6.4-6.6c5.1-4.2,17.7,4.6,17.7,4.6l17.6-27.5c-10.8,9-35,2.5-40.3,0.9c-5.3-1.6-12-7.8-20-12.1
	c-7.9-4.3-5.9-10-5.9-10s0,0-5.6-7.3c-5.6-7.3-42.2-47.5-53.4-53.7c-11.2-6.2-13.2-1.4-13.2-1.4s17.7,23.9,19.3,41
	c1.6,17.2-3.3,48.6-3.3,48.6c-0.2-0.6-0.4,0.5-0.4,2.7c-8,8.8-27.5,28.1-47.7,32.1c-17.7,3.5-25.2,1.2-28.2-0.7l18.4,16.9
	c13.2,6.2,30.5,0.6,49.4-9.8c-6.6,5.9-13.6,12.3-16.5,15.3c-6,6.2-30.1,24.7-43.8,34.5c-13.7,9.9-35.1,7.7-52.1,4.9
	c-17-2.7-24.7-14.5-24.7-14.5s0,5.7,20.3,21.1c20.3,15.3,44.4,2.7,44.4,2.7s-14,13.9-41.1,9.8c-24-3.6-29.6-8.7-29.6-8.7
	s15.3,19.7,62.5,21.9c12.9,0.6,26.4-2.9,39.3-8.4c-5.7,7.4-10.4,12.9-12.5,13.9c-2.7,1.4,49.5-20.1,65.6-49.6
	c8.8-8.3,14.9-15.5,16.6-19.5c0.3-0.7,0.6-1.3,0.8-2c3.8,6.3,1.5,13.7,2.5,26.8c0,0.5,0,1.1-0.1,1.7c-5.1,0.6-9.7,3.5-12.4,8
	c-7.5,12.7-22.3,37.5-32.4,54.4c-11.9,9.3-28.6,20.6-35.4,26.7c-10,9-13.4,17.1-6.8,31.7c3.4,7.6,7.1,11.4,11.9,14.2l-43.4,3.2
	c-2.2-0.1-3.6-0.2-3.6-0.2s0.9-7.9-0.6-15.9c-1.6-9.3-3.8-9.9-26.3-8.8c-7.1,0.3-12.3,4-15.6,9.3c-3-4.1-7.1-8.3-9.1-12.3
	c-3.6-7.2-9.1-12-25.2-19.7c-16.1-7.7-36.1,1.5-65.4,5.6c-29.3,4.1-33-7.9-33.4-6.6c-1.8,6.7,3,12.8,8.5,17.4
	c-2.4-1.3-5.3-2.8-8.6-4.4c-18.1-8.9-53-12.4-53-12.4s-9.8,0.8,12.4,7.1c22.2,6.3,42.8,15.5,33.4,17.9c-9.4,2.4-33.7-2.1-52.8-1.9
	c-19.1,0.2-47.6-31.8-51.7-34.2c-4.1-2.4-5.5-4.8-4.1-0.7c12.2,33.8,92.3,61.7,92.3,61.7c-16.5,2.9-67.9-32.2-71.3-34.7
	c-3.3-2.6-3,6.2,11.7,17.8c14.8,11.6,57.7,27.3,51.3,30.9c-6.4,3.6-50.3-4.4-50.3-4.4s64.1,12.6,54.4,12.6
	c-9.7,0-17.4,12.7-18.7,21.6c-1.3,8.8,6.1,14.9,6.1,14.9s-8.5-21.8,12.4-27.6c20.9-5.8,35.8-3.6,63.5,3.7
	c27.7,7.3,65.1,1.1,76.1-4.4c9.1-4.5,10-11.6,10-13.9c0.1,1,0.6,3.1,2.4,6.2c2.7,4.6,7.7,3.2,12.4,2.2c3.9-0.9,6.6-6,7.7-10.5
	c3.1,1.4,6,2.4,7.9,3.2c6.2,2.6,17.7,4,19.1,3.4c0.7-0.3,2.5-6.4,3.9-11.7c11.1-0.3,25.3-0.5,38.9-0.4l3.9,0.8c0,0-0.8,2.6-5.7,11.1
	c-2.8,4.8-2.6,14.5-1.4,24.9c-4.1,0.7-7.3,1.2-7.6,0.8c-0.8-1.1-4-10.2-9.5-10.2c-5.5,0-7.7,8.8-15.9,9.9c-8.2,1.1-16,2.7-21.9,2.7
	c-5.9,0-25.8,8.4-20.3,15.3c5.5,7,5.5,1.4,5.5,1.4c14.3-3.3,38.9-1.4,48.8-3.6c9.9-2.2,7.5-3.4,7.5-3.4l15.4,1.6
	c0.4,2.8,0.9,5.6,1.3,8c2.4,15.3-9.5,21.9-9.5,21.9s66-17.1,97.7-31.2c17-5,46.7-37.2,73.8-57.4c103-8.2,240.5-20.1,240.5-20.1
	l-46.2-2.7L765.2,421.4z M288,457.5c-3.7,5.5-4.9,2.8-9.9-1.1c-2.6-2-1.2-5.3,1.2-8.9c1.7,3.9,5.3,6.9,9.2,9.2
	C288.3,457,288.2,457.3,288,457.5z M423.6,386.2l33.2-23.5l-1.8,29.4l9,19.3L423.6,386.2z"/>
</svg>
