<?xml version="1.0" encoding="utf-8"?>
<!-- Generator: Adobe Illustrator 24.0.0, SVG Export Plug-In . SVG Version: 6.00 Build 0)  -->
<svg version="1.1" id="circuit_1_" xmlns="http://www.w3.org/2000/svg" xmlns:xlink="http://www.w3.org/1999/xlink" x="0px" y="0px"
	 viewBox="0 0 800 600" style="enable-background:new 0 0 800 600;" xml:space="preserve">
<style type="text/css">
	.st0{fill:none;stroke:#58345F;stroke-width:2;stroke-linecap:round;stroke-miterlimit:10;}
	.st1{fill:none;stroke:#58345F;stroke-width:3;stroke-linecap:round;stroke-miterlimit:10;}
	.st2{fill:#4A1E52;}
	.st3{fill:#FFC540;}
	.st4{fill:#3E2242;}
	.st5{fill:#90589E;}
	.st6{fill:#6E357C;}
	.st7{fill:#AB6ABA;}
	.st8{opacity:0.3;fill:#C74F17;}
</style>
<g id="spider">
	<line id="web" class="st0" x1="574.1" y1="199.7" x2="574.1" y2="145.1"/>
	<polyline id="right_x5F_left_x5F_3" class="st1" points="606.7,244.9 620.1,257.8 600.5,276.2 	"/>
	<polyline id="right_x5F_left_x5F_2" class="st1" points="612.1,230.1 626,225.6 643.4,242.2 	"/>
	<polyline id="right_x5F_left_x5F_1" class="st1" points="605.4,214 624.2,201.9 643.4,214 	"/>
	<polyline id="foot_x5F_left_x5F_3" class="st1" points="543.2,244.9 529.8,257.8 549.5,276.2 	"/>
	<polyline id="foot_x5F_left_x5F_2" class="st1" points="537.8,230.1 524,225.6 506.5,242.2 	"/>
	<polyline id="foot_x5F_left_x5F_1" class="st1" points="544.6,214 525.8,201.9 506.5,214 	"/>
	<path id="body" class="st2" d="M608.3,249.4c-13.1,13.3-59.5,12.2-70.2-4.2c-10.7-16.4,7.9-52.8,35.2-53.6
		C606.5,190.6,621.4,236.1,608.3,249.4z"/>
	<g id="left_x5F_eye">
		<path id="left_x5F_protein_1_" class="st3" d="M564.7,228.5c0,6.5-5.3,11.8-11.8,11.8s-11.8-5.3-11.8-11.8s5.3-11.8,11.8-11.8
			S564.7,222,564.7,228.5z"/>
		<path id="left_x5F_pupil_1_" class="st4" d="M561.9,228.1c0,2.6-2.1,4.7-4.7,4.7c-2.6,0-4.7-2.1-4.7-4.7c0-2.6,2.1-4.7,4.7-4.7
			C559.8,223.4,561.9,225.5,561.9,228.1z"/>
	</g>
	<g id="right_x5F_eye">
		<path id="right_x5F_protein" class="st3" d="M606.3,228.5c0,6.5-5.3,11.8-11.8,11.8c-6.5,0-11.8-5.3-11.8-11.8s5.3-11.8,11.8-11.8
			C601,216.7,606.3,222,606.3,228.5z"/>
		<path id="right_x5F_pupil" class="st4" d="M594.3,228.1c0,2.6-2.1,4.7-4.7,4.7c-2.6,0-4.7-2.1-4.7-4.7c0-2.6,2.1-4.7,4.7-4.7
			C592.2,223.4,594.3,225.5,594.3,228.1z"/>
	</g>
</g>
<g id="hat">
	<path id="circuit" class="st5" d="M528.4,537.6c-103.9,16.9-243.6,9.1-320.7-10.7c-83.4-21.4-121.9-57.7-111.2-87.7
		c9.5-26.5,40.3-50.8,183.7-44.2c7.2-25.4,12.5-56.1,8.7-86.2c-10.6-84.1,30-192.5,68.5-202.8c49.1-13.1,95.3-63.9,134.5-56.6
		s86.4,87.4,84.5,96.7c-1.9,9.2-72.5-35.5-86.3-37.1c-13.8-1.6-38.8,56.6-43,78c-4.6,23.2,53,136.5,63.5,165.7
		c4.1,11.4,9.2,30.2,14,48.9c76.8-6.4,137.8-14.3,172.6,20.5C718.6,443.5,686.6,511.9,528.4,537.6z"/>
	<path id="shadow" class="st6" d="M244.8,406.8c-0.4-4.4,0.2-8.7,1.3-12.9c11.5,0.1,35.6-0.7,34.8-1.7c6.8-24.8,11.6-54.5,7.9-83.5
		c-2.2-17.7-2.2-36.5-0.4-55.2c2.1,19.5,5.2,39,8.5,58.3c1.7,10.3,3.6,21,9.8,29.4c12.4,16.8,36.3,18.4,57,21.5
		c13.8,2.1,28.4,5.4,41.5,0.4c16.5-6.4,25.6-24.5,27.9-42c2.4-17.5-0.4-35.2,0-52.8c0.2-9.1,1.3-18.2-0.1-27.2
		c-3.6-23.4-23-40.8-33.9-61.9c-1.9-3.7-3.5-8.1-1.6-11.8c1.4-2.6,4.2-4.1,6.8-5.5c10.2-5.6,19.2-13.4,26.3-22.7
		c3.5-4.6,6.6-9.9,7.1-15.7c0.3-4-0.7-7.9-1-11.9c-1.3-18.5,16.7-35.9,35.2-34c18.4,1.9,31.2,18.6,46.5,28.9
		c9.2,6.2,19.7,10.3,29.2,16c8.4,5.1,15.9,11.4,23.4,17.7c1.8,1.5,3.7,3.1,5.5,4.6c0.1,0.5,0.1,0.9,0,1.3
		c-1.9,9.2-72.5-35.5-86.3-37.1c-13.8-1.6-38.8,56.6-43,78c-4.6,23.2,53,136.5,63.5,165.7c4.1,11.4,9.2,30.2,14,48.9
		c32.3-2.7,61.7-5.6,87.7-5.6c-8.8,11.4-18.6,22-29.3,31.7c-17.6,16.1-38.1,29.8-61.4,35.2c-15,3.5-30.6,3.4-46,3
		c-25.1-0.7-50.2-2.4-75.3-4c-29.8-2-59.6-3.9-89.1-8.3c-14.5-2.1-29.2-5-42-12.3C256.5,434.1,246,421.5,244.8,406.8z M699.1,424.2
		c-3.6,7.5-7.8,14.6-13,21.1c-9.3,11.4-21.4,20.1-34.1,27.4c-22.1,12.7-46.1,21.7-70.5,29.2c-120.3,37-251.2,38.7-372.3,4.8
		c-20.2-5.7-40.5-12.4-57.7-24.4c-13.3-9.2-24.7-21.9-30.7-37.1c-4.6-11.8-4.1-21.5-1.9-32.2c-12.8,7.6-18.9,16.7-22.2,26.1
		c-10.7,29.9,27.8,66.3,111.2,87.7c77.1,19.8,216.8,27.5,320.7,10.7C681.7,512.7,716.6,447.7,699.1,424.2z"/>
	<path id="light_1_" class="st7" d="M321.4,181.2c3.7-12,35.1-81.4,51-54.8c3.1,5.3,3.2,11.8,2.6,17.9c-1.3,13.3-5.3,26.3-11.6,38
		c-6.7,12.6-16,24.2-19.3,38c-4.3,18.1,2.2,38.1-5.2,55.1c-1.1,2.5-2.7,5-5.4,5.6c-4.3,1-7.5-3.8-9.2-7.9
		C312.8,244.1,312.3,211.1,321.4,181.2z"/>
	<path id="belt_x5F_shadow" class="st8" d="M437.4,440.8c0,6.4-5.2,11.5-11.5,11.5c-6.4,0-11.5-5.2-11.5-11.5
		c0-6.4,5.2-11.5,11.5-11.5C432.2,429.3,437.4,434.5,437.4,440.8z M470.3,426c-6.4,0-11.5,5.2-11.5,11.5c0,6.4,5.2,11.5,11.5,11.5
		c6.4,0,11.5-5.2,11.5-11.5C481.8,431.2,476.6,426,470.3,426z M540.9,461.4c1.2-1.7,0.4-9.3-1.5-19.2c-21.6,13.8-37.7,22-68.3,24.1
		c-23.5,1.6-55.9,0-82.2,0.8c-21.4,0.7-50-2.5-70.7-8.2c-13.8-3.8-37.2-19.9-52.6-35.7c-3.5,12.2-6.1,22.7-5.8,25
		c0.8,5.8,38.6,37.8,130.7,43.6C482.6,497.5,536.8,467.1,540.9,461.4z"/>
	<path id="belt" class="st3" d="M282.1,380c-5.1,2.8-23,62.5-22.2,68.2c0.8,5.8,38.6,37.8,130.7,43.6c92,5.8,146.3-24.7,150.4-30.4
		c4.1-5.8-14.8-75.6-18.1-79.7c-3.3-4.1-45.2,14.8-127.4,11.5C313.3,389.9,289.5,375.9,282.1,380z"/>
	<path id="plaque" class="st2" d="M396.3,385.8c-4.1-3.3-51-6.6-58.4-0.8c-6.7,5.2-20.5,95.3-16.4,101.1c4.1,5.8,60,15.6,71.5,9.9
		C404.5,490.1,400.4,389.1,396.3,385.8z M378.9,475.3c-6.5,3.6-38-2.6-40.4-6.2c-0.9-1.4-0.3-10.3,0.9-21.1c5,0.6,13.2,1.4,16.5,0.3
		c4.9-1.6,4.9-12.3,3.3-17.3c-1.2-3.5-11.1-4.5-16.8-4.8c1.8-10.9,3.8-19.9,5.3-21.1c4.2-3.6,30.6-1.6,32.9,0.5
		C383.1,407.6,385.4,471.7,378.9,475.3z"/>
</g>
</svg>
