<?xml version="1.0" encoding="utf-8"?>
<!-- Generator: Adobe Illustrator 24.0.0, SVG Export Plug-In . SVG Version: 6.00 Build 0)  -->
<svg version="1.1" id="lock_2_" xmlns="http://www.w3.org/2000/svg" xmlns:xlink="http://www.w3.org/1999/xlink" x="0px" y="0px"
	 viewBox="0 0 800 600" style="enable-background:new 0 0 800 600;" xml:space="preserve">
<style type="text/css">
	.st0{fill:#071B23;}
	.st1{fill:#FE9700;}
	.st2{fill:#6B1324;}
	.st3{fill:#D37300;}
	.st4{fill:#071C21;}
	.st5{fill:#C4D8E8;}
</style>
<g id="trees">
	<path id="right_2_" class="st0" d="M794.2,282.3c-22.7,11.5-48.3,17.3-73.8,16.8c11.8-16.9,29.4-29.7,49-35.7
		c-10.1,4.4-20.2,8.8-30.3,13.1c10.9-13.2,22.7-25.6,35.3-37.2c-21,22.5-42.8,44.1-65.4,65c-4.7,4.4-9.8,8.9-16.1,10.2
		c-7.9,1.7-16.9-1.7-23.7,2.7c3.9-4.5,7.8-8.9,11.6-13.4c-8.8,10.2-18.9,19.2-30,26.8c-6.8-15.4,5.5-32.8,19.7-41.9
		c14.4-9.2,31.4-14.1,48.4-14c-20-0.3-40.1,6.4-55.9,18.7c4-13.5,8-27,12.1-40.5c-5.4,22.6-15.4,44-29.3,62.6
		c-7.5-11.8-1.6-27.3,4.4-40s11.7-28.3,3.8-39.9c2.9,9.5,1.4,20.3-4,28.6c-15.8-17.5-16.5-46.8-1.4-65
		c-11.9,11.9-15.9,30.9-9.9,46.6c2.5,6.5,6.6,12.6,7.6,19.5c1,6.9-2.6,15.4-9.6,16.2c-7.2,0.8-12.3-6.5-18-11.1
		c-6.4-5.2-15.2-7.2-23.1-5.3c13.7-0.1,27.3,6.5,35.8,17.3c1.8,2.2,3.3,4.6,4.5,7.2c2.3,5.1,3.1,10.8,2.3,16.3
		c-0.3,1.8-0.8,3.7-2.1,5c-1.3,1.2-3,1.6-4.7,1.9c-12.5,2.3-25.5,2-37.9-0.8c2.6-6.3,6.8-12,12.1-16.3
		c-9.2,10.4-22.5,16.2-32.9,25.3c-10.5,9.1-18.2,24.7-11.2,36.7c-10.4-8.3-15.7-22.4-13.5-35.5c2.2-13.1,11.9-24.6,24.4-29.1
		c14.1-5,29.8-1.2,44.7-2.2c-11.5,4.3-24.2-3.8-36.4-2.6c-13.7,1.3-23.5,13.3-31.7,24.4c-1.1-20,9.3-40.3,26.2-51.1
		c-6-9.5-11.9-19-17.9-28.5c4.8,7.5,9.6,15.1,14.4,22.6c1,1.6,2.1,3.4,1.9,5.3c-0.2,2.4-2.3,4.1-4.2,5.6c-17,14.1-26.4,36.9-24,58.9
		c-8.5-19.1-17.1-38.1-25.6-57.2c3.7,10.8,7.4,21.6,11.1,32.4c-12.4-7.5-26.7-12-41.1-13.1c-3.4-0.2-6.9-0.3-10.2-1.3
		c-9.5-2.9-15.2-12.3-22.6-18.3c7.6,5.5,12.1,16.2,21.7,18.9c3.7,1,7.7,0.5,11.5,0.6c10.2,0.2,20.4,4.4,27.7,11.5
		c-1,2.6-2,5.2-3,7.7c-20.3-3.7-41.1-4.5-61.6-2.2c20.1-3.8,41.2-2.4,60.7,4.1c0.3-6.6,9.7-9.4,15.4-6.1c5.7,3.4,8.4,10.1,10.7,16.3
		c7.4,20.2,14.7,40.4,22.1,60.7c-6-9.6-16.5-16.3-27.8-17.5c-8.5-0.9-19.5-0.2-23-8c-1.3-2.9-1.1-6.3-2.4-9.2
		c-1.9-4.2-6.5-6.3-10.7-8.1c-27.1-11.2-55.4-19.2-84.4-23.9c25.7,3.2,50.8,11.1,73.7,23.2c-15.9,1-31.9-0.3-47.4-3.7
		c18.4,1.8,36.9,3.6,55.3,5.4c3.5,0.3,7.3,0.8,10,3c3.7,3,4.4,8.3,5.8,12.9c1.4,4.6,5,9.5,9.7,8.9c-8.1,4.4-13.1,16.4-22.1,14.8
		c-3-0.5-5.4-2.6-7.8-4.4c-10-7.5-22-12.3-34.4-13.7c10.8,1.1,21.4,5.4,29.9,12.1c-8.2,3.9-16.4,7.8-24.6,11.8
		c8.2-6.6,19.4-9.3,29.6-7.2c3.6,0.7,7.1,2,10.7,1.6c8.5-1,13.4-10.4,21.2-14.1c8.4-3.9,18.5-0.3,25.9,5.4
		c7.4,5.6,13.2,13.1,20.9,18.4c7.1,4.9,15.4,7.6,23,11.7c7.6,4.1,14.8,10.3,16.7,18.7c2.3,9.7-3,20.4,0.5,29.8
		c2.1,5.8,7.2,9.9,10.7,15c7.4,10.9,7,25.2,5.1,38.3c-4.2,28.9-14.3,57-29.4,82c18.3,0.8,32,0.3,47,0.6c-3.6-21.5-1.5-37,6.2-57.4
		c2.2-5.8,4.8-11.7,4.4-17.9c-0.2-3.9-1.7-7.7-1.4-11.6c0.8-11.7,15.5-16.7,21.9-26.6c10.1-15.6-2.1-40.1,11-53.2
		c-2.3,1.3-4.6,2.6-6.9,3.9c-0.1-2.9-0.2-5.8-0.4-8.7c-2.2,5.2-4.5,10.3-6.7,15.5c3.8-7.4,0-17.7-7.7-20.8c3,12.3,6,24.9,4.4,37.4
		c-1.5,12.5-8.6,25.2-20.4,29.7c-19.6-23.6-23.6-59-9.9-86.4c1.8-3.6,4.4-7.5,8.4-8.2c2.7-0.5,5.4,0.7,7.9,1.8
		c10.4,4.6,20.7,9.4,30.9,14.3c3.8,1.8,7.8,3.8,10.4,7.2c3.6,4.6,3.9,10.9,6.4,16.2c4.6,9.7,15.6,14.6,26.1,17
		c10.5,2.5,21.6,3.5,30.8,9.2c-8.9-5.9-20-6.9-30.4-9.3c-10.4-2.3-21.4-7-25.9-16.7c-2.4-5.2-2.7-11.4-5.8-16.3
		c-6.7-10.1-22.3-9.3-31.3-17.3c26.8-1.6,52,11.2,75.7,23.7c-18.5-9.6-37.7-17.8-57.5-24.3c12.1-7.1,27.7-7.8,40.4-1.9
		c-22.5-12.8-50.9,8.7-73.2-5.4c7.7,0.4,13.4-3.7,17.9-9.6c4.4-6,10.4-11.5,15-15.3c6.2-5.1,18.6,5.6,34.4,5.9
		c15.1,0.3,27.9-10,38.6-20.7c-15.7,19.8-47.2,24.5-68,10.1c8.9-10.2,17.9-20.3,26.8-30.5c-15.1,15.3-30.1,30.7-45.2,46
		c-4.1,4.2-8.4,8.5-13.8,10.9c-4.4,1.9-9.3,2.4-13.4,4.9c-4.5,2.7-7.4,7.9-7.6,13.1c2.4-16,5-32.3,12.3-46.8
		c7.3-14.5,20.2-27.1,36.1-29.8c7.3-1.2,15.7-0.7,20.7-6.1c1.8-2,3-4.5,5-6.3c3.8-3.4,9.5-3.4,14.6-3.3
		C749.1,299.6,773.1,293.6,794.2,282.3z M632.4,363.1c-0.2,3.7,0.3,7.9-2.2,10.6c-2,2.2-5.7,2.9-6.7,5.7c-0.6,1.9,0.4,4,0.9,5.9
		c1.8,6.2-1.3,13.5-7,16.5c-18.5-6.1-38.2-13-49.7-28.7c-2.6-3.5-4.6-7.3-6.5-11.2c1.3-4.8,1.3-10-0.2-14.8
		c-0.8-2.5-1.8-4.9-1.9-7.4c0-1.2,0.2-2.5,0.7-3.6c0.5-1.1,1.3-2,2.4-2.5c1.1-0.5,2.4-0.6,3.7-1.1c0.3-0.1,0.7-0.3,1-0.5l0.4-0.3
		c0.1-0.1,0.3-0.2,0.4-0.4c0.5-0.5,0.9-1.1,1.2-1.7c0.2-0.3,0.3-0.7,0.4-1c1.5-0.4,2.9-0.9,4.3-1.3c1.5-0.4,3-0.8,4.5-1.1
		c1.5-0.3,3-0.5,4.5-0.3c0.7,0.1,1.4,0.3,2,0.6c0.3,0.2,0.5,0.4,0.7,0.7c0.2,0.3,0.4,0.6,0.5,0.9c0.3,0.7,0.6,1.4,0.9,2.2
		c0.4,0.8,0.8,1.5,1.4,2.1c1.2,1.2,2.8,1.9,4.4,2.3c1.6,0.3,3.3,0.3,4.8,0c1.6-0.3,3.1-0.7,4.6-1.5c0.7-0.4,1.4-0.8,2.1-1.1
		c0.7-0.3,1.4-0.4,2.2-0.4c0.7,0,1.5,0.2,2.3,0.4c0.8,0.2,1.5,0.3,2.3,0.5c1.6,0.3,3.1,0.4,4.7,0.6c1.6,0.1,3.2,0.1,4.7,0
		c3.2-0.2,6.3-0.7,9.3-1.5c1.5-0.4,3-0.9,4.5-1.5c0.4-0.1,0.7-0.3,1.1-0.4c0.4-0.1,0.8-0.2,1.1-0.1c0.2,0,0.4,0.1,0.5,0.3
		c0.1,0.1,0.1,0.2,0.1,0.3c0,0.1-0.1,0.2-0.1,0.2c-0.1,0.1-0.3,0.2-0.5,0.2c-0.1,0-0.2,0-0.3-0.1c-0.1-0.1,0-0.2,0-0.3
		c0,0.1-0.1,0.2,0,0.3c0.1,0.1,0.2,0.1,0.3,0.1c0.2,0,0.4-0.1,0.5-0.2c0.1-0.1,0.1-0.2,0.1-0.3c0-0.1,0-0.2-0.1-0.3
		c-0.1-0.2-0.3-0.3-0.5-0.3c-0.4-0.1-0.8,0-1.2,0.1c-0.4,0.1-0.7,0.3-1.1,0.4c-1.5,0.6-3,1-4.5,1.4c-3,0.8-6.2,1.2-9.3,1.3
		c-1.6,0-3.1,0-4.7-0.1c-1.6-0.1-3.1-0.3-4.6-0.6c-0.8-0.1-1.5-0.3-2.3-0.5c-0.8-0.2-1.5-0.4-2.4-0.5c-0.8-0.1-1.7,0.1-2.4,0.4
		c-0.8,0.3-1.5,0.7-2.1,1c-1.4,0.6-2.9,1.1-4.4,1.3c-1.5,0.2-3.1,0.2-4.5-0.1c-1.5-0.3-2.9-1-3.9-2.1c-0.5-0.5-0.9-1.1-1.2-1.8
		c-0.3-0.7-0.5-1.4-0.9-2.2c-0.2-0.4-0.4-0.7-0.6-1.1c-0.3-0.4-0.6-0.7-1-1c-0.8-0.5-1.6-0.7-2.5-0.8c-1.7-0.2-3.3,0-4.9,0.3
		c-2.8,0.5-5.5,1.4-8.2,2.1c0.1-0.4,0.2-0.9,0.3-1.3c0.3-1.3,0.5-2.6,0.9-3.8c0.8-2.4,2.5-4.4,4.6-5.9c2.1-1.4,4.6-2.4,7.1-2.8
		c2.5-0.5,5.1-0.4,7.7-0.2c0.3,0,0.6,0.1,0.9,0.1l0.1,0.1c0,0,0,0,0,0c2.2,0.3,4.5,0.7,6.7,1c5.1,0.9,10.4,1.4,15.7,1
		c8.7-0.5,17.4-2.9,25.1-6.9c1.8,10.4,3.5,20.9,5.2,31.4C638.3,346.6,632.9,354.3,632.4,363.1z"/>
	<path id="left_2_" class="st0" d="M443.6,214.4c0.3-1.1,0.8-2.2,1.5-3.1c1.4-1.9,3.3-3.3,5.6-4.1c2.2-0.8,4.6-1.1,7-1.2
		c2.4-0.1,4.8,0,7.3,0.1c1.9,0,3.8,0.1,5.8,0.1c0,0,1.5,0.3,2.1,0c2.2,0,4.5,0,6.7-0.1c4.9-0.1,9.7-0.3,14.6-0.6
		c19.4-1.2,38.7-4,57.6-8.4c-19,4.2-38.3,6.9-57.7,7.9c-4.8,0.3-9.7,0.4-14.6,0.5c-1.7,0-3.4,0-5.1,0c11-4.8,20.9-12.2,28.7-21.2
		c1.7,0.6,3.4,1,5.2,1.2c1.9,0.3,3.8,0.3,5.8,0.3c3.8-0.1,7.6-0.8,11.3-1.6c3.7-0.8,7.4-1.9,11-2.8l11-3l43.8-11.8l-44,11.1l-11,2.8
		c-3.7,0.9-7.3,1.9-11,2.7c-3.7,0.8-7.4,1.4-11.1,1.4c-1.9,0-3.7-0.1-5.5-0.3c-1.8-0.3-3.6-0.7-5.3-1.4l-0.5-0.2l-0.3,0.4
		c-8.6,9.9-31.9,22.5-31.9,22.5c-1.8,0-3.6-0.1-5.5-0.1c-2.4,0-4.9-0.2-7.3-0.1c-2.4,0.1-4.9,0.3-7.3,1.2c-2.4,0.8-4.5,2.4-6,4.4
		c-0.8,1-1.4,2.2-1.7,3.4c-0.1,0.3-0.2,0.6-0.2,0.9c0,0.3-0.1,0.6-0.1,1c0,0.3,0,0.6,0,1l0.1,0.9l0.2,1.8c0,0.6,0,1.2,0,1.8
		c0,0.3,0,0.6,0,0.9l-0.1,0.9l-0.1,0.9c0,0.3-0.1,0.6-0.2,0.9l-0.5,1.7c-0.2,0.6-0.4,1.1-0.6,1.7l-0.3,0.8l-0.4,0.8
		c-0.3,0.5-0.5,1.1-0.8,1.6c-1.2,2.1-2.7,3.9-4.3,5.6c-1.7,1.6-3.6,3.1-5.7,4.2c-2.1,1.1-4.3,1.9-6.7,2.2c-0.6,0.1-1.2,0.1-1.8,0.2
		l-0.9,0.1c-0.3,0-0.6,0-0.9,0c-0.1,0-0.2,0-0.3,0c-0.6-0.3-3.7-0.3-3.7-0.3c-4.6-0.6-9.2-2-14.1-2.1c-2.5,0-5.1,0.3-7.4,1.2
		c-2.4,0.9-4.6,2.1-6.6,3.6c-4,2.9-7.4,6.6-10.7,10.1c-3.3,3.5-6.6,7.2-10.3,10c-1.9,1.4-3.9,2.6-6.1,3.2c-1,0.3-2.1,0.5-3.2,0.6
		c21.7-28.4,31.1-68.5,43.5-101.5c3.1-8.3,7.1-17.5,15.4-20.7c8.3-3.1,19.7,6.5,14.5,13.7c32.9-7.9,67.3-10,101-6
		c-33.1-2.8-67.2-5.4-98.7,5.2c1.8-5.6-1.3-12.4-6.8-14.7c13.5-6.5,26.9-13,40.4-19.5c2.8-1.3,6-2.7,8.8-1.3
		c2.3,1.1,3.4,3.7,5.4,5.2c5,3.6,11.7-0.9,16.1-5.2c11.5-11.1,23-22.2,34.6-33.3c-11.7,10.9-23.4,21.9-35.1,32.8
		c-4.3,4-10.8,8.2-15.4,4.5c-1.8-1.5-2.8-3.9-4.8-5.1c-2.6-1.5-5.9-0.3-8.7,0.9c-20,8.7-40.1,17.5-60.1,26.2
		c7.2-18.8,14.3-37.6,21.5-56.4c-13.9,31.7-27.8,63.3-41.7,95c3-11.9-5.3-23.3-13-32.8c-12-14.7-26.7-26.8-46.8-26.2
		c-8.9,0.3-17.5,2.9-26.2,4.4c-8.8,1.4-18.3,1.5-25.9-3c15.1,5.1,31.9,5.2,47.1,0.3c6.4-2.1,13.5-5,19.6-2.1c3.8,1.8,6.2,5.5,9.6,8
		c5.3,4,12.9,5.4,16,11.2c2.4,4.6,1.3,11.1,5.2,14.5c2.8,2.5,7.1,2.4,10,4.7c4.1,3.1,4,9.3,3.2,14.4c-2,12.2-5.8,24-11.2,35.2
		c-2.8,5.7-11.8,15.7-10.3,22.4c-1.4-6.4-1.2-13.1,0.6-19.4c1.1-3.8,2.7-7.6,2.9-11.9c0-2.1-0.3-4.3-1.2-6.2c-0.9-2-2.4-3.7-4.5-4.6
		c-2-0.9-4.1-1-5.8-1.7c-1.7-0.6-3.1-1.9-3.9-3.6c-0.5-0.9-0.8-1.8-1.1-2.8c-0.3-0.9-0.5-1.8-0.7-2.7c-0.4-2-0.8-4-1.4-5.9
		c-0.7-2-1.7-3.8-3-5.4c-1.3-1.6-2.9-3-4.6-4.2c-3.4-2.3-7.4-3.7-11.4-4.4c-4-0.7-8-0.5-11.9-0.2c-7.1-10.7-15.8-20.4-25.6-28.5
		c9.2,8.4,17.1,18.2,23.4,28.8c-3.3,0.4-6.7,1.1-10,1.7c-7.9,1.5-15.9,2.2-23.9,1.8c-13.4-0.7-26.6-4.1-38.6-10.2
		c1.8-10.5,3.7-21,5.7-31.5c-0.6-0.7-1.1-1.5-1.6-2.2l1.2-3.2c0.8-2.1,1.7-4.1,3-5.8c0.6-0.8,1.4-1.6,2.2-2.2c0.9-0.6,1.8-0.9,2.8-1
		c2.1-0.3,4.3,0.3,6.6,0.5c1.2,0.1,2.4,0,3.5-0.4c1.1-0.3,2.3-1,3-2c0.4-0.5,0.6-1.1,0.7-1.7c0.1-0.6,0.1-1.2,0.1-1.8
		c-0.1-1.2-0.2-2.2,0-3.2c0.2-1,0.7-2,1.4-2.8c0.7-0.8,1.5-1.5,2.4-2.1c1.8-1.2,3.9-2,6-2.7c2.1-0.6,4.3-1.2,6.5-1.6
		c8.7-1.9,17.7-2.8,26.6-2.5c-8.9-0.4-17.9,0.2-26.7,2c-2.2,0.4-4.4,1-6.6,1.5c-2.2,0.6-4.3,1.4-6.3,2.6c-1,0.6-1.9,1.3-2.6,2.2
		c-0.8,0.9-1.3,2-1.6,3.2c-0.1,0.6-0.2,1.2-0.2,1.8c0,0.6,0.1,1.1,0.1,1.7c0,0.5,0,1.1-0.1,1.6c-0.1,0.5-0.3,0.9-0.6,1.3
		c-0.6,0.8-1.5,1.3-2.5,1.6c-1,0.3-2.1,0.4-3.1,0.3c-2.2-0.2-4.4-0.8-6.8-0.6c-1.2,0.1-2.4,0.5-3.4,1.2c-1,0.6-1.9,1.5-2.6,2.4
		c-1.4,1.9-2.4,4-3.3,6.1l-0.9,2.2c-9.8-13.5-18.8-27.5-27-42l3.5,5.8c-7.6-13.8-4.5-30.8-1.1-46.3c-3.3,9.6-5.7,19.6-7.3,29.6
		c-0.9,5.8-1.5,11.8,0.2,17.4c2.9,10.2,12.4,17,18.1,26c4.9,7.7,6.9,16.8,6.9,26l-0.6,6.8l0.3-0.7c-0.3,2.5-0.6,4.9-1.2,7.4
		c-0.1,0.7-0.3,1.4-0.5,2.1c-0.4-0.2-0.8-0.5-1.2-0.7c0.4,0.2,0.8,0.5,1.2,0.7c-1.5,6.2-3.6,12.1-6.2,17.9c-0.7-3.5-1.7-7-3-10.3
		c-1.6-4.2-3.7-8.1-6.2-11.8c-1.2-1.9-2.6-3.6-4-5.3l-1.2-1.3l0.2-0.2c-1.2-1-2.2-2.3-3.2-3.6c-1-1.3-1.9-2.7-2.9-4.1
		c-1.8-2.8-3.5-5.7-5.1-8.6c-1.6-2.9-3.1-6-4.4-9c-0.7-1.5-1.3-3.1-1.8-4.6c-0.5-1.6-1-3.1-1.2-4.8c-1.9-13.4-5.8-26.5-11.7-38.6
		l-0.1-0.2l-0.1,0.2c-0.8,1.7-0.6,1.8,0.1,0.2c5.5,12.2,9,25.3,10.4,38.6c0.2,1.7,0.6,3.4,1.1,5c0.5,1.6,1.1,3.2,1.8,4.8
		c1.3,3.1,2.7,6.2,4.3,9.2c1.6,3,3.2,6,5,8.8c-2.1-1.7-4.4-3.2-6.7-4.5c-2-1-3.9-2.1-6-2.9c-2-0.9-4.1-1.6-6.2-2.4
		c-4.1-1.6-8.2-3.3-11.6-5.9c-1.7-1.3-3.3-2.8-4.6-4.5c-0.6-0.9-1.2-1.8-1.7-2.7c-0.5-1-0.8-2-1.1-3l-0.1-0.3l-0.3,0l-29.3-2.7
		l-14.6-1.3l-7.3-0.7c-0.6,0-1.2-0.1-1.8-0.1c-0.6,0-1.2,0.1-1.8,0.4c-0.3,0.2-0.5,0.4-0.6,0.7c-0.1,0.3-0.1,0.6,0,0.9
		c0.1,0.3,0.3,0.6,0.5,0.7c0.2,0.2,0.6,0.2,0.9,0c-0.2,0.2-0.6,0.2-0.8,0c-0.3-0.2-0.4-0.4-0.5-0.7c-0.1-0.3-0.1-0.6,0-0.9
		c0.1-0.3,0.4-0.5,0.6-0.6c0.5-0.3,1.2-0.4,1.8-0.3c0.6,0,1.2,0.1,1.8,0.2l7.3,0.8l14.6,1.5l29,3c0.3,1,0.6,2,1.1,2.9
		c0.5,1,1.1,2,1.8,2.9c1.3,1.8,3,3.4,4.7,4.7c3.6,2.7,7.7,4.5,11.8,6.2c2,0.8,4.1,1.6,6.1,2.5c2,0.9,3.9,1.9,5.8,2.9
		c3.7,2.1,7,4.8,10.1,7.7c0,0,0,0,0.1,0.1c1,1.4,2.1,2.7,3.5,4l0.2-0.2l1,1.1c1.3,1.7,2.7,3.4,3.9,5.3c2.4,3.6,4.4,7.5,5.9,11.6
		c1.5,4.1,2.6,8.3,3.2,12.6l0,0.2c-2.3,5-5.4,17.7-4.5,19.2c-15.4-17-32-32.8-49.9-47.2c8.7,8.2,16.7,17,24.1,26.3
		c-0.9-0.6-1.9-1.1-2.9-1.6c-2.4-1.1-4.8-2.2-7.4-2.9l-0.9-0.3l-1-0.2c-0.6-0.1-1.3-0.3-1.9-0.4c-1.3-0.2-2.6-0.5-3.9-0.6
		c-5.3-0.5-10.5-0.2-15.7-0.3c-5.2,0-10.4-0.3-15.2-2.2c-2.4-0.9-4.7-2.1-6.6-3.7c-1-0.8-1.9-1.7-2.7-2.6c-0.7-1-1.5-2-2-3.2
		c-0.5-1.1-0.9-2.3-1.1-3.6c-0.3-1.3-0.5-2.6-0.8-3.9c-0.4-1.3-0.9-2.6-1.9-3.7c-0.9-1.1-2.3-1.8-3.6-2.1c-2.7-0.7-5.5-0.2-8,0.2
		c-1.3,0.2-2.6,0.4-3.8,0.7c-1.3,0.2-2.6,0.3-3.9,0.5c-10.3,1.2-20.8,0.6-31.1-1.2c-10.3-1.7-20.4-4.5-30.3-7.8
		c-9.9-3.2-19.3-4.2-24.2-5.9l-3.7-1.3l-1.9-0.6c-0.6-0.2-1.2-0.4-1.9-0.6c-0.6-0.1-1.3-0.2-2-0.1c-0.7,0.1-1.3,0.5-1.6,1.1
		c-0.2,0.3-0.1,0.7,0,1c0.2,0.3,0.4,0.5,0.7,0.7c0.3,0.2,0.6,0.3,1,0.3c0.2,0,0.4-0.1,0.5-0.2c0-0.1,0.1-0.2,0.1-0.2l0-0.3l-0.1,0
		l0,0.2c0,0.1-0.1,0.1-0.1,0.2c-0.1,0.1-0.2,0.2-0.4,0.2c-0.3,0-0.6-0.1-0.9-0.3c-0.5-0.3-1-1-0.7-1.5c0.3-0.6,0.9-0.9,1.5-1
		c0.6-0.1,1.3,0,1.9,0.1c0.6,0.1,1.2,0.4,1.9,0.6l1.8,0.6l3.7,1.3c4.9,1.8,14.2,3,24.1,6.3c9.9,3.3,20,6.2,30.3,8
		c10.3,1.8,20.9,2.5,31.4,1.4c1.3-0.2,2.6-0.3,3.9-0.5c1.3-0.2,2.6-0.4,3.9-0.6c2.5-0.4,5.1-0.8,7.5-0.2c1.2,0.3,2.2,0.9,3,1.8
		c0.8,0.9,1.3,2,1.6,3.2c0.3,1.2,0.5,2.5,0.8,3.8c0.2,1.3,0.6,2.6,1.2,3.9c0.5,1.3,1.3,2.4,2.1,3.5c0.9,1,1.8,2,2.9,2.8
		c2.1,1.7,4.5,3,7,3.9c2.5,0.9,5.1,1.6,7.8,1.9c2.6,0.3,5.3,0.4,7.9,0.4c5.3,0,10.5-0.4,15.6,0.1c5.1,0.4,10.2,1.9,14.8,4.1
		c1.6,0.8,3.2,1.7,4.8,2.7c15.5,20.2,27.9,42.8,36.4,66.8c5.2,14.7,8.9,29.9,12.2,45.2c-4.1-7.1-7.9-14.2-11.6-21.5l-0.1-0.2
		l-0.2-0.1c-1-0.6-2-1-3-1.4c0,0-0.9-1.9-1.7-2.2c-0.8-0.3-1.6-0.6-2.4-0.8c-1.6-0.4-3.2-0.7-4.8-1c-3.2-0.6-6.4-1-9.6-1.4
		c-3.2-0.5-6.3-1-9.3-1.9c-1.5-0.5-3-1-4.1-1.9c-0.6-0.4-1-0.9-1.2-1.5c-0.2-0.7-0.4-1.4-0.4-2.2l-0.2-2.4c-0.1-0.8-0.2-1.7-0.4-2.5
		c-0.4-1.6-1.1-3.2-2-4.6c-1.7-2.9-4.1-5.3-6.5-7.4c-2.5-2.1-5.1-4-7.8-5.8c-2.6-1.9-5.2-3.7-7.8-5.6c-10.4-7.6-20.4-15.8-29.3-25.1
		c-4.4-4.6-8.6-9.6-12.4-14.8c-3.7-5.2-7-10.8-9.8-16.7c-0.3-0.1-0.7,0-0.9,0.3c-0.2,0.2-0.4,0.5-0.5,0.9c-0.1,0.3-0.1,0.7,0,1
		c0.1,0.3,0.4,0.6,0.7,0.7c-0.3-0.1-0.6-0.3-0.7-0.7c-0.1-0.3-0.1-0.7,0-1c0.1-0.3,0.2-0.6,0.5-0.8c0.2-0.2,0.6-0.3,0.9-0.2
		c2.6,5.9,5.9,11.5,9.5,16.8c3.7,5.3,7.8,10.3,12.2,15c17.3,18.6,36.8,32.5,53.4,52c7.1,8.3,18.3,15.2,28.5,11.2
		c-15.9,8.6-34.6,11.9-52.6,9.4c-10.8-1.5-21.3-5.2-32.1-6.5c-10.9-1.3-22.8,0-31,7.2c18.8-10.6,44-8.7,60.9,4.7
		c-15.2,1.4-30.2,5.8-43.8,12.9c-14.8,7.7-28.7,18.7-45.2,20.7c39.4-10.3,75.3-40.6,115.6-34.8c-9.6,17.5-42.9,9.5-50.3,28
		c-2.8,6.9-0.4,14.9-2.4,22.1c-2.5,8.9-11,14.6-19.2,18.8c-22,11.5-46.1,18.9-70.7,21.7c23.8-6.1,47.2-13.8,69.9-23.1
		c8.5-3.5,17.9-8.2,20.6-17c2-6.7-0.4-14.3,2.3-20.7c2.6-6,9-9.2,14.9-12c17.6-8.3,35.3-16.7,52.9-25c4.5-2.1,9.7-4.3,14.3-2.5
		c3.5,1.4,5.8,4.7,7.7,7.9c13.3,22.2,21,51.2,17,77.1c-4.8,31.8-36.8,57.2-32.9,89.1c0.3,2.7,0.9,5.4,0.3,8.1c-1,4.6-5.4,7.8-7,12.2
		c-2.2,5.8,0.7,12.2,3.3,17.9c15.8,35.1,20.4,66.2,13.1,104c23.9,0,45.6,2.2,68.3-1.2c1-0.1,2-0.5,3-1c-2.4-11.1-6.2-21.9-11.4-32
		c-4.8-9.4-10.9-18.2-15.5-27.7c-13.8-28-15.4-60.3-16.1-91.5c-0.4-16.5,0.7-35.9,14.3-45.3c2.9-2,6.2-3.4,8.6-6
		c6.5-6.9,3.6-17.9,1.8-27.1c-2.2-11.1-2-23.2,3.4-33.2c10.6-19.6,36.1-24.5,53.7-38.1c4.1-3.2,7.7-6.8,10.9-10.7
		c1.8,0,3.7-0.3,5.4-0.8c2.5-0.8,4.7-2.1,6.7-3.6c4-3,7.2-6.7,10.5-10.3c3.3-3.6,6.5-7.2,10.4-10c1.9-1.4,4-2.6,6.1-3.4
		c2.2-0.8,4.5-1.2,6.9-1.2c3.2,0,6.4,0.7,9.6,1.2c-1,0.2,3.4,0.6,4.7,0.7c0.4,0,0.8,0.1,1.2,0.1l4.6,2.1l-0.1-0.1
		c7.8,4.1,15.1,9.2,21.7,15.1c2,1.8,3.9,3.6,5.7,5.5c0.9,0.9,1.8,2,3.2,2.7c0.7,0.3,1.4,0.5,2.2,0.5c0.8,0,1.5-0.1,2.2-0.4
		c1.4-0.5,2.5-1.3,3.6-2.1l3.2-2.4c2.2-1.6,4.3-3.1,6.5-4.6c1.8-1.3,3.7-2.5,5.6-3.7l-0.8,1.6c14.5,7,29.6,12.5,45.1,16.6
		c-15.3-4.7-30-10.8-44-18.3c7-4.5,14.3-8.5,22-11.7c4.9-2,10-3.6,15.2-4.8l2-0.4c0.7-0.1,1.3-0.3,2-0.3c1.3-0.2,2.6-0.4,4-0.5
		l4-0.3c0.3,0,0.7-0.1,1-0.1c0.3-0.1,0.6-0.3,0.8-0.6c0.1-0.1,0.1-0.3,0.1-0.5c-0.1-0.2-0.2-0.3-0.4-0.3c-0.2-0.1-0.3-0.1-0.5-0.1
		c-0.2,0-0.3,0.2-0.2,0.4c-0.1-0.2,0-0.4,0.2-0.4c0.2,0,0.3,0,0.5,0.1c0.1,0.1,0.3,0.2,0.4,0.3c0.1,0.2,0,0.3-0.1,0.5
		c-0.2,0.3-0.5,0.4-0.8,0.5c-0.3,0.1-0.7,0.1-1,0.1l-4,0.3c-1.3,0.1-2.6,0.3-4,0.5c-0.7,0.1-1.3,0.2-2,0.3l-2,0.4
		c-5.2,1-10.4,2.6-15.4,4.6c-10,3.9-19.3,9.3-28.2,15.1c-2.2,1.5-4.4,3-6.6,4.5l-3.3,2.3c-1.1,0.8-2.2,1.5-3.3,1.9
		c-1.2,0.4-2.4,0.4-3.4-0.1c-1-0.6-1.9-1.5-2.8-2.5c-1.8-2-3.7-3.8-5.7-5.7c-6.8-6.2-14.3-11.6-22.5-16c0.5,0,1.1-0.1,1.6-0.2
		c2.5-0.4,4.8-1.3,7.1-2.4c2.2-1.2,4.2-2.7,6-4.4c1.7-1.8,3.3-3.8,4.5-5.9c0.3-0.5,0.6-1.1,0.8-1.7l0.4-0.8l0.3-0.9
		c0.2-0.6,0.5-1.2,0.6-1.8l0.5-1.8c0.1-0.3,0.1-0.6,0.2-0.9l0.1-0.9l0.1-0.9c0-0.3,0-0.6,0-0.9c0-0.6,0-1.2,0-1.9l-0.2-1.9l-0.1-0.9
		c0-0.3-0.1-0.6,0-0.8c0-0.3,0-0.6,0.1-0.8C443.4,215,443.5,214.7,443.6,214.4z M276.3,305.3c-8.8-4.6-13.6-15.8-10.8-25.3
		c0.9-3,2.4-6.1,1.4-9.1c-1.4-4.3-7.1-5.4-10.2-8.8c-3.9-4.2-3.1-10.7-3.4-16.4c-0.7-13.6-9.1-25.4-17.9-35.9
		c2.5-16.1,5.1-32.2,7.9-48.3c11.9,6.2,25.2,9.8,38.6,10.6c8,0.5,16.2-0.1,24.1-1.6c3.4-0.6,6.9-1.2,10.3-1.6c0,0,0,0.1,0,0.1
		l0.2-0.1c0.5-0.1,0.9-0.1,1.4-0.2c4-0.4,8-0.4,11.9,0.2c3.9,0.7,7.7,2.1,10.9,4.4c3.2,2.2,5.8,5.3,7.1,9c0.6,1.9,0.9,3.8,1.3,5.8
		c0.1,0.7,0.3,1.4,0.5,2.1c-4.1-1.1-8.3-2.5-12.6-3.2c-2.4-0.4-4.9-0.7-7.5-0.4c-1.3,0.2-2.6,0.5-3.8,1.3c-0.6,0.4-1.1,0.9-1.5,1.5
		c-0.4,0.6-0.7,1.1-0.9,1.7c-0.5,1.2-0.9,2.3-1.4,3.4c-0.5,1-1.1,2-1.9,2.8c-1.5,1.6-3.7,2.7-5.9,3.2c-2.3,0.5-4.7,0.5-7,0.2
		c-2.3-0.3-4.6-1-6.8-2c-1.1-0.5-2.1-1.1-3.3-1.6c-1.2-0.5-2.5-0.7-3.8-0.6c-1.3,0.1-2.5,0.4-3.6,0.7c-1.2,0.3-2.3,0.6-3.5,0.8
		c-2.4,0.5-4.7,0.8-7.1,1c-2.4,0.2-4.8,0.2-7.2,0.2c-4.8-0.2-9.6-0.8-14.3-2.1c-2.3-0.6-4.6-1.3-6.9-2.2c-0.6-0.2-1.1-0.4-1.7-0.6
		c-0.6-0.2-1.2-0.3-1.8-0.2c-0.3,0.1-0.6,0.2-0.8,0.5c-0.1,0.1-0.2,0.3-0.2,0.4c0,0.2,0.1,0.3,0.2,0.4c0.2,0.2,0.5,0.3,0.8,0.3
		c0.1,0,0.3,0,0.4-0.1c0.1-0.1,0-0.3-0.1-0.4c0.1,0.1,0.2,0.3,0,0.4c-0.1,0.1-0.3,0.1-0.4,0.1c-0.3,0-0.6-0.1-0.8-0.3
		c-0.1-0.1-0.2-0.2-0.2-0.4c0-0.1,0.1-0.3,0.2-0.4c0.2-0.2,0.4-0.4,0.7-0.5c0.6-0.1,1.2,0,1.8,0.2c0.6,0.2,1.1,0.4,1.7,0.7
		c2.2,0.9,4.5,1.7,6.9,2.3c4.7,1.3,9.5,2.1,14.3,2.3c2.4,0.1,4.9,0.1,7.3,0c2.4-0.2,4.8-0.4,7.2-0.9c1.2-0.2,2.4-0.5,3.6-0.7
		c1.2-0.3,2.3-0.5,3.5-0.6c1.2-0.1,2.3,0.1,3.3,0.6c1.1,0.4,2.1,1.1,3.2,1.6c2.2,1.1,4.6,1.8,7,2.2c2.4,0.4,5,0.4,7.4-0.1
		c2.5-0.5,4.9-1.6,6.7-3.5c0.9-0.9,1.7-2,2.2-3.2c0.5-1.1,0.9-2.3,1.4-3.3c0.2-0.5,0.5-1,0.8-1.4c0.3-0.4,0.7-0.8,1.1-1
		c0.9-0.6,1.9-0.8,3.1-1c2.2-0.2,4.6,0.1,6.9,0.5c2.3,0.5,4.6,1.1,6.9,1.8c2.2,0.6,4.4,1.3,6.6,2c0.2,0.5,0.4,1.1,0.7,1.6
		c0.5,1,1.1,1.9,1.9,2.6c0.2,0.2,0.4,0.4,0.6,0.5l0.7,0.5c0.5,0.3,1,0.5,1.5,0.7c2,0.8,4.1,0.9,5.7,1.7c1.6,0.8,2.9,2.2,3.7,3.9
		c0.8,1.7,1.1,3.6,1,5.5c-0.2,3.8-1.7,7.6-2.9,11.4c-2.2,7.3-2.3,15.3-0.3,22.8c-2.9,6-6,11.9-9.9,17.2
		C335.1,285.3,304.8,296,276.3,305.3z"/>
</g>
<g id="lock_1_">
	<path id="lock" class="st0" d="M585.7,494.1c-6.4,0.8-15.2-4.6-15.2-4.6s0,7.6-5.3,10.2c-5.3,2.7-9.5-1.1-9.5-1.1
		c-9.9-28.8,9.1-154,14.8-159c5.7-4.9,17.8,0,17.8,0c-6.4-7.2,1.5-40.6,1.5-40.6s-16.5-1.2-21.5-0.9c1.3-0.2-10-20.9-10-20.9
		l6.8-0.4l0.2-11.6l-8.2-0.4c-10.1-5.7-1.9-32.8-1.9-32.8s0,0,6.3,0.8c6.3,0.8,11.8-3,12-4.6c0.2-1.5,0,0,1.3-6.1
		c1.3-6.1,8.5-10.1,8.5-10.1s-3,0.8-6.6-3c-3.6-3.8-2.3-6.6-2.3-6.6c-2.5,1.9-10.1,1.9-10.1,1.9s9.3,0.8,9.1,7.8
		c-0.2,7-4.6,8.9-12.3,7.4c-7.8-1.5-30.7-40.8-30.7-40.8s-5.3,21.4-15.6,37.9c-3.6,5.9-6,8.9-7.8,10.4
		c-0.7-41.8-1.1-120.8-1.1-120.8c17.1,7.6,16.3,3,16.3,3l11.8-20.5c-6.4-2.3-11.8-11.8-11.8-11.8l-4.6,11.8c0,0,5.7-3.8,8-1.9
		c2.3,1.9,1.1,3.8,0,8c-1.1,4.2-6.8,6.4-6.8,6.4c-23.9-12.5-35.7-91.1-35.7-91.1c0,22.4-33.4,46.7-33.4,46.7
		c2.3,12.1-9.1,29.2-12.5,30c-3.4,0.8-4.9-5.3-6.1-8c-1.1-2.7,4.6-11,6.1-12.9c1.5-1.9,2.3,8.7,2.3,8.7l1.9-12.5h-10.2l-6.4,21.2
		c3,10.2,9.1,10.8,15.4,9.1c6.3-1.7,8.6-5.7,8.6-5.7c2,4.6,0.8,48.2-1,90.3c-3.1-1.2-6.6-3.1-10.8-6.1c-16.3-11.4-22-84.2-22-84.2
		s-6.4,9.1-10.2,17.8c-3.8,8.7-1.9,31.5-3.8,44.4c-1.9,12.9-10.6,19.7-24.7,29.2c-14,9.5-15.9,4.2-15.9,4.2l-2.3-9.9l5.3-1.9
		l3.4,4.6l0.4-7.2c0,0-9.9-1.5-10.6,0c-0.8,1.5-10.2,18.2-10.2,18.2c4.2-2.3,16.7,4.9,16.7,4.9s22.4-3.8,25.8,0
		c3.4,3.8,5.4,36.4,5.4,36.4l-8,2.7l0.4,9.1l7.7,1.9l-2.1,13.1c-1.3-1.5-3-2.6-5.1-3.3c-6.1-1.9-9.3,1.3-5.9,1.9
		c3.4,0.6,2.8,8-2.9,9.1c-5.7,1.1-10.2-4.6-10.2-4.6c0-25-27.9-42.1-27.9-42.1c5.7,27.9-2.8,35.3-8,43.3c-5.1,8-12,8-16.1,5.1
		c-4.2-2.9-7.2-15.4,0-14.8c7.2,0.6,3.6,6.8,3.6,6.8s2.8-1.1,2.3-7.4c-0.6-6.3-5.7-8-13.1,0c-7.4,8-5.7,14.8,1.7,23.9
		c7.4,9.1,22.2-4.5,25-4c2.8,0.6,4.6,24.5,4.6,24.5l-8.5,5.1l-1.1,12h6.3c0,0-1.7,2.9-9.1,11.4c-7.4,8.5-33.6,4.9-33.6,4.9
		c6.8,10.6,1.1,38.3,1.1,38.3h18.8c0,0,7.4,18.8,13.1,34.7c5.7,15.9,5.1,27.9,0,70c-5.1,42.1-17.1,38.7-20.5,40.4
		c-3.4,1.7-4.6-9.1-4.6-9.1l-10.1,3.4c0,0,5,37.6,3.8,46.7c-1.1,9.1-3.8,29-3.8,29v6.6l314-3.6C579.2,566.8,585.7,494.1,585.7,494.1
		z M516.2,266.5c-0.3,0.3-0.6,0.5-0.9,0.7l-2.1-13.6l-5.3-1.1c-0.2-0.7-0.5-7.5-0.7-17.8C525.7,237.5,523.7,260.4,516.2,266.5z
		 M434.3,225.1l2.3-36.4c0,0,5,1.7,10.6,2.6c-1.6,35.8-3.3,67-3.3,67h-3.6c2.8,6,3.6,15.8,3.6,24.3l-5.3-15l-5.7-30.4l4.9,1.1
		l1.5-11.8L434.3,225.1z M380.4,304c-3.4-0.8,1.1-12.1,1.1-12.1s-6.1-0.4-7.2-4.6c-1.1-4.2,1.1-15.5,2.7-15.9
		c1.2-0.3,8.3-0.6,12.9-3.8l-6.1,37.2C383.8,304.8,383.8,304.8,380.4,304z"/>
	<path id="еntrance" class="st1" d="M530.4,506.4c0,28.6-6.4,55.1-17.2,76.4H373.5c-10.8-21.3-17.2-47.8-17.2-76.4
		c0-70.7,39-128,87.1-128C491.4,378.4,530.4,435.7,530.4,506.4z M368.3,418c-4.8,5.5-8.9,11.5-12.7,17.8c-3.7,6.3-6.9,12.8-9.6,19.6
		c-2.7,6.8-4.9,13.7-6.6,20.8c-1.7,7.1-2.7,14.3-3.3,21.6c-1.9,26.2,4.1,53.3,16.1,76.6c0.2,0.3,1.2,2.4,1.2,2.4l2.5,4.8l0.5-0.3
		c-20.3-54.7-19.9-112.4,12.2-162.9L368.3,418z M543.2,491.6c-1-7.2-2.5-14.2-4.4-21.1c-0.7-2.5-1.4-5-2.3-7.5
		c-0.2-0.6-0.4-1.2-0.6-1.8c-1.2-3.6-2.6-7.2-4.1-10.7c-2.8-6.4-5.9-12.6-9.6-18.3l-0.4,0.4c4,8.7,7.3,17.5,9.9,26.5
		c0.3,1.1,0.6,2.2,0.9,3.4c10.3,38.8,7.6,79.6-4.4,118.9c-0.1,0.5-0.3,0.9-0.4,1.3c0.7,0,1.7,0,2.4,0c9.4-21.3,14.8-45.6,14.6-69.4
		C544.8,506.1,544.3,498.8,543.2,491.6z"/>
	<g id="fangs">
		<g id="right_1_">
			<path id="_x30_4" class="st0" d="M483.5,384l-7.5,31c0,0,10.1,5.5,12.2,12.1c0,0,5.6-18.8,11.6-18.1c6.1,0.7-11.9-25-11.9-25
				H483.5z"/>
			<path id="_x30_3_1_" class="st2" d="M476,415l5.7-23.6l-2.9-2l-6.4,26.7c0,0,10.1,5.5,12.2,12.1l3.6-1.1
				C486.9,420,476,415,476,415z"/>
		</g>
		<g id="left_1_">
			<path id="_x30_2_1_" class="st0" d="M368.5,418.2c0,0,16.9-10.9,25.9,16.1l9.9-16.1c0,0-11.7-24.7-9.9-33.1
				C396.2,376.7,368.5,418.2,368.5,418.2z"/>
			<path id="_x30_1_1_" class="st3" d="M398.1,397c-0.5,0.5-1,0.9-1.6,1.5c3,9.6,7.8,19.7,7.8,19.7l-9.9,16.1c0,0,2,0,2.3,1.1
				l9.9-16.1C406.6,419.3,400.9,407.2,398.1,397z"/>
		</g>
	</g>
	<g id="window">
		<path id="_x31_1" class="st1" d="M536,355.6l-10,62.6c0,0-23.9-50.7-55.8-60.2C470.2,358,493.4,346.4,536,355.6z"/>
		<path id="_x31_0" class="st1" d="M424.8,366.8l14.6-25.2l17.1,25.2H424.8z"/>
		<path id="_x30_9" class="st1" d="M412.1,358c-31.9,9.5-55.8,60.2-55.8,60.2l-10-62.6C388.9,346.4,412.1,358,412.1,358z"/>
		<path id="_x30_8" class="st1" d="M366.2,309.3H353l-4.9-31.7c-1-6.2,3.8-11.8,10.1-11.8l0,0c5.9,0,10.6,5,10.2,11L366.2,309.3z"/>
		<path id="_x30_7" class="st1" d="M356.3,257.5h-10v-10h10V257.5z"/>
		<path id="_x30_6" class="st1" d="M544.9,232.8c0,6-4.9,10.9-10.9,10.9c-6,0-10.9-4.9-10.9-10.9c0-6,4.9-10.9,10.9-10.9
			C540.1,222,544.9,226.8,544.9,232.8z"/>
		<path id="_x30_5" class="st1" d="M496.9,226.5h-18.5v-50.1h18.5V226.5z"/>
		<path id="_x30_4_1_" class="st1" d="M422.5,215.6h-13.2l-4.9-31.7c-1-6.2,3.8-11.8,10.1-11.8l0,0c5.9,0,10.6,5,10.2,11
			L422.5,215.6z"/>
		<path id="_x30_3" class="st1" d="M493.5,159.5h-4.1v-47.7h4.1V159.5z"/>
		<path id="_x30_2" class="st1" d="M477.9,146.9h-21.5v-44.7h21.5V146.9z"/>
		<path id="_x30_1" class="st1" d="M476.6,84.4h-0.4c-6.4,0-11.6-5.2-11.6-11.6v-0.4c0-6.4,5.2-11.6,11.6-11.6h0.4
			c6.4,0,11.6,5.2,11.6,11.6v0.4C488.2,79.2,483,84.4,476.6,84.4z"/>
	</g>
	<path id="lattice" class="st0" d="M478.1,69.2l4.7,17.5l-2.4,0.6l-4.6-17l-15.7,8.3l-1.1-2.2l16.2-8.6l-4.1-15.2l2.4-0.6l3.9,14.6
		l13.4-7.1l1.1,2.2L478.1,69.2z M438,339.8l5.3-0.7V370h-4.2L438,339.8z M390.8,345h-9.9l-10,13.1l-6.6-13.2l-2.2,1.1l7.1,14.3
		l-5.1,6.7l-19.2-20l-1.8,1.7l19.4,20.3l-5.6,7.4l-16-7.5l-1,2.2l15.5,7.3l-9.2,12l-2.2,8.8l12.3-14.3l7.7,21l2.3-0.8l-8.1-22.3
		l5.3-6.1l14.9,13.1l1.6-1.8l-14.9-13.1l8.7-10l21,10.5l1.1-2.2l-20.5-10.2L390.8,345z M543.5,359.2l-2.1-2.5l-17.9,15l-6.5-3.3
		l14.8-21.3l-2.7-1.9l-15,21.7l-11.7-5.9l4.9-13.5l-3.1-1.1l-4.8,13.1L476,347.9l0.4,3.4l15.6,8.8l-9.7,10.8l2.4,2.2l10.2-11.4
		l9.3,5.3l-10.9,17.2l2.8,1.8l11-17.3l9.7,5.5l-7.9,30.9l3.2,0.8l7.7-30.1l16.4,9.3l0.6-6.8l-9.9-5L543.5,359.2z M359.9,269.7h11
		v3.3h-11v17.2l9.8-0.2l0.1,3.3l-9.9,0.2v24.6h-3.3v-41.6c-3.7,0.2-6.4,0.3-8.3,0.3c-5,0-5.3-0.6-5.7-1.2l2.9-1.6
		c-0.3-0.5-0.7-0.6-0.7-0.6c1,0.3,6.6,0.2,11.8-0.1V262h3.3V269.7z M399.7,181.7l0.2,3.3l7.4-0.6l6.3,39.5l1.6-0.3l-6.3-39.4
		l7.1-0.5v43.7h1.6v-43.8l11.4-0.9l-0.2-3.3L399.7,181.7z M480.3,123.8l-12.3,6.7v-17.1c7-0.1,15.4-0.5,20.3-0.8l-0.1-1.6
		c-7,0.4-14.3,0.7-20.2,0.8v-13h-1.6v13c-5,0-8.6-0.1-9.3-0.5c0.1,0,0.2,0.2,0.2,0.5h-0.8h-0.8c0,0.3,0.1,0.5,0.3,0.7
		c0.7,0.7,4.6,0.9,9.6,0.9c0.3,0,0.5,0,0.8,0v7.6l-12.3,2.6l0.3,1.6l12-2.6v16.4l-14.2-3.8l-0.4,1.6l14.6,3.9v11.9h1.6v-20.3
		l13.1-7.1L480.3,123.8z M505.2,183.4l-17.7,4.1l0.7-16.4l-1.6-0.1l-1.8,44.6h-13.3v0.4h13.3l-0.9,21.6l1.6,0.1l2-48.5l1.6-0.4
		l-1.3,50.3l1.6,0l1.3-50.7l14.9-3.4L505.2,183.4z M536.5,231.6l0.7-18.1l-2.5-0.1l-0.7,18.2h-10.9v2.5H534l-1.1,27.9l2.5,0.1
		l1.1-28h8.5v-2.5H536.5z"/>
	<g id="gates">
		<path id="right" class="st4" d="M523.9,447.6l-1.4-0.4l-0.2,6.1l-43.8-22.1l1.8,151.8h57.4v-2.7h-17.2L523.9,447.6z M517.9,454.1
			l-5.7,126.4h-2l5.1-127.7L517.9,454.1z M514.6,452.4l-4.5,128h-2l3.9-129.4L514.6,452.4z M511.3,450.7l-3.9,129.7h-1.7l3-131
			L511.3,450.7z M508,449.1l-3,131.4h-1.7l2.1-132.7L508,449.1z M502.8,446.4l2,1l-2.1,133h-0.9L502.8,446.4z M498.8,444.4l1.9,1
			l-1.1,135.1h-1L498.8,444.4z M498.1,444.1L498,580.4h-2l-0.5-137.7L498.1,444.1z M494.8,442.4l1.2,138.1h-1.7l-1.8-139.2
			L494.8,442.4z M491.1,440.5l1.8,139.9h-1.6l-2.4-141.1L491.1,440.5z M488.1,439l3.1,141.4h-2.3l-3.4-142.7L488.1,439z
			 M484.8,437.3l4.1,143.1h-2L482.2,436L484.8,437.3z M481.5,435.7l4.7,144.8h-3.8l-1.7-145.2L481.5,435.7z M519.2,580.4h-6.3
			l5.7-126l3.7,1.9L519.2,580.4z"/>
		<path id="left" class="st4" d="M359,454.4l-0.2-6.1l-1.8,0.4l0.2,6.5l0.1,2.9l4,123.5h-11.9v2.7h64.1l2.4-151.8L359,454.4z
			 M413,436.3l-2.3,145.2h-4.9l6.1-144.8L413,436.3z M411.1,437l-6.1,144.4h-2.6l5.3-143.1L411.1,437z M406.8,438.7l-4.4,142.7h-3
			l4-141.4L406.8,438.7z M402.4,440.4l-3.2,141.1h-2.1l2.3-139.9L402.4,440.4z M397.7,442.2l-2.3,139.2h-2.1l1.5-138.1L397.7,442.2z
			 M393.8,443.7l-0.6,137.7h-2.6l-0.2-136.4L393.8,443.7z M389.5,445.4l0.2,136h-1.3L387,446.4L389.5,445.4z M384.3,447.4l1.4,134
			h-1.2l-2.7-133L384.3,447.4z M380.9,448.8l2.7,132.7h-2.2l-3.9-131.4L380.9,448.8z M376.6,450.4l3.8,131h-2.2l-5.1-129.7
			L376.6,450.4z M372.4,452.1l5.1,129.4h-2.6l-5.8-128L372.4,452.1z M368.1,453.7l6.7,127.7h-2.6l-7.5-126.4L368.1,453.7z
			 M359,457.3l4.7-1.9l7.4,126H363L359,457.3z"/>
	</g>
	<path id="light" class="st5" d="M448.1,177.6c-4-1.5-7.7-3.9-11.2-6.3c3.5,2.4,7.2,4.6,11.3,6.1c2,0.8,4.1,1.3,6.2,1.5
		c2.1,0.2,4.3,0,6.3-0.7c1-0.3,2-0.8,2.9-1.3c0.9-0.5,1.7-1.2,2.3-2c1.3-1.7,2-3.7,2.6-5.7c0.1-0.5,0.2-1,0.3-1.5
		c0-0.3,0.1-0.5,0.1-0.8c0-0.2,0-0.1,0-0.3c0-0.1-0.1-0.2-0.2-0.3c-0.6-0.8-1.4-1.5-2.2-2.2c-1.5-1.3-3.2-2.5-4.8-3.7l-9.2,7.1
		l-1.6,1.2l0.7-1.8l6.7-16.4l0.4-0.9l0.7,0.6c1.3,1.2,2.8,2.3,4.2,3.4c1.4,1.1,2.9,2.1,4.5,3c1.5,0.9,3.1,1.7,4.8,2.3
		c1.6,0.6,3.4,0.9,4.8,0.5l1.4-0.4l-0.4,1.5c-0.9,3.6-1.7,7.2-2.4,10.8c-0.3,1.8-0.6,3.6-0.8,5.4c-0.1,0.9-0.2,1.8-0.1,2.7
		c0,0.4,0,0.9,0.1,1.3l0.1,0.8c0,0.3,0,0.6,0,0.9c-0.2,1.2-0.7,2.2-1.4,3c-0.7,0.8-1.5,1.5-2.3,2.1c-1.6,1.2-3.4,2-5.1,2.7
		c-3.6,1.4-7.2,2.4-11.1,2.8l-6.9-1.5c3.6-0.4,13.8-2.2,17.1-3.5c1.7-0.7,3.3-1.4,4.7-2.4c1.4-1,2.6-2.2,2.9-3.6c0-0.2,0-0.3,0-0.5
		l0-0.3l0-0.4c0-0.5-0.1-1,0-1.5c0-1,0.1-1.9,0.2-2.9c0.2-1.9,0.5-3.7,0.9-5.6c0.6-3.3,1.4-6.5,2.3-9.6c-1.6,0.1-3.1-0.3-4.5-0.8
		c-1.8-0.7-3.4-1.6-5-2.5c-1.6-1-3.1-2-4.5-3.1c-1.2-0.9-2.4-1.9-3.5-2.9l-5.8,13.6l8-5.9l0.3-0.2l0.2,0.2c1.7,1.3,3.5,2.6,5.1,4
		c0.8,0.7,1.6,1.4,2.3,2.4c0.1,0.1,0.2,0.3,0.2,0.4c0.1,0.1,0.1,0.4,0.1,0.5c0,0.3-0.1,0.6-0.1,0.8c-0.1,0.5-0.2,1.1-0.4,1.6
		c-0.6,2.1-1.4,4.1-2.8,5.9c-0.7,0.9-1.5,1.6-2.5,2.1c-1,0.5-1.9,0.9-3,1.3c-2.1,0.7-4.3,0.9-6.4,0.6
		C452.2,178.9,450.1,178.4,448.1,177.6z M484.7,324.5l76.6-18.6l-49.4,11l4.6-35.4l1.7,0l-4.2,27.8l5.7-29l-12.4-0.3l0.2-8.8
		l2.6-0.4c1.8-0.3,3.5-1.2,4.8-2.6l2.8-3l-12.3,4.3l0.3,12.4l10.2-0.2l-5.6,35.8l-26.3,5.9l-10.2,11.7l-8.7-12l-71.8-0.6l-7,6.7
		l-6.5-5l-85.8,2.5l1.9,4.3l82.8-3.1c7.4,5.5,6.3,4.7,7.9,5.9c1.4-1.4-0.2,0.2,8-8l69.5-0.6c1.3,1.8,8.7,11.5,9.6,12.8
		C474.8,336.3,483.5,325.9,484.7,324.5z M529.9,331.2c-3.5,0.3-7,0.8-10.4,1.4c-1.7,0.3-3.5,0.7-5.2,1.1c-1.7,0.5-3.4,0.9-5.1,1.4
		c-6.7,1.9-13.4,4-20.1,6.2c-6.6,2.2-13.3,4.5-19.9,6.8l1.5,3.8c6.4-2.6,12.9-5.2,19.4-7.7c6.5-2.5,13-4.9,19.6-7.2
		c1.6-0.6,3.3-1.1,5-1.6c1.7-0.5,3.3-1,5-1.4c3.4-0.8,6.8-1.4,10.2-1.9c6.9-0.9,13.9-1.4,20.9-1.2
		C543.9,330.5,536.9,330.6,529.9,331.2z M395.2,240.8l-7.7-2l-0.2-7.5l7.3-2.3l-0.5-3.4l-9.1,4.1l0.6,10.7l7.6,1.8l-9.3,62.7
		L395.2,240.8z"/>
</g>
</svg>
