<?xml version="1.0" encoding="utf-8"?>
<!-- Generator: Adobe Illustrator 24.0.0, SVG Export Plug-In . SVG Version: 6.00 Build 0)  -->
<svg version="1.1" id="cat" xmlns="http://www.w3.org/2000/svg" xmlns:xlink="http://www.w3.org/1999/xlink" x="0px" y="0px"
	 viewBox="0 0 800 600" style="enable-background:new 0 0 800 600;" xml:space="preserve">
<style type="text/css">
	.st0{fill:#0F080F;}
	.st1{fill:#907091;}
	.st2{fill:#CAEE14;}
	.st3{fill:#FFFFFF;}
	.st4{fill:#EE7D14;}
	.st5{fill:#9D3219;}
	.st6{fill:#9A789C;}
</style>
<path id="tail" class="st0" d="M373.6,522c3.2-2.3,5.8-3.9,7.9-4.9c2.2-1,4-1.5,5.5-1.5c1.5,0,2.8,0.4,4,1.1
	c1.2,0.7,2.2,1.6,3.2,2.7c2.9,3,6.4,5.1,10.1,6.3c1.9,0.7,3.8,1,5.7,1.3c1,0.2,2,0.2,2.9,0.3c1,0,2,0.1,2.9,0.1
	c16.6-0.3,32.6-4,47.3-10.7c14.7-6.7,28.3-16.2,39.6-28.1c5.6-5.8,10.9-11.7,15-18.5c2-3.4,3.7-7,4.7-10.7c1.1-3.8,1.6-7.7,1.5-11.7
	c-0.1-6.7-1.3-13.5-2.8-20.3c-1.4-6.8-3-13.6-4.8-20.3c-1.8-6.7-3.8-13.4-5.9-20c-2.1-6.6-4.6-13.2-6.8-19.9
	c-2.9-8.9-5.8-18.2-6.3-28.3c-0.2-5,0.3-10.2,1.5-15.2c1.2-5,3.1-9.8,5.6-14.2c4-7.2,9.1-13.6,14.9-19.2
	c5.8-5.6,12.3-10.5,19.3-14.6c7-4,14.6-7.3,22.5-9.4c8-2.1,16.3-3.1,24.8-2.7l4.9,0.5c1.6,0.2,3.2,0.5,4.9,0.8
	c1.6,0.3,3.2,0.8,4.8,1.2c1.6,0.4,3.2,1.1,4.7,1.6c6.2,2.4,12,5.8,17,9.9c10.1,8.3,17.8,19.3,21.4,31.9c0.4,1.8,1.3,3.4,2.1,5.1
	l1.2,2.6c0.4,0.9,0.8,1.8,1,2.8c0.3,1.1,0.7,2.3,0.9,3.5c0.1,0.6,0.1,1.2,0.1,1.8c-0.1,0.6-0.3,1.1-0.6,1.6
	c-0.5,0.7-1.8,1.4-3.3,1.8c-1.5,0.4-3.2,0.5-4.4,0.4c-2.1-0.3-4.4-2.3-5.5-3.5c-0.7-0.9,0.1-2.2,0.2-3.3c-0.1-4.8-1-9.6-2.7-14.3
	c-1.7-4.7-4.2-9.1-7.3-13.2c-3.1-4.1-6.8-7.8-10.9-10.9c-4.2-3.1-8.8-5.6-13.7-7.4c-6.4-2.3-13.3-3-20.1-2.6
	c-6.8,0.4-13.5,1.9-19.9,3.8c-3.3,1-6.6,1.9-9.9,3c-1.7,0.5-3.3,1.2-4.9,1.9c-1.6,0.7-3.1,1.5-4.6,2.4c-7.1,4.5-13.6,9.9-19.1,16.2
	c-5.4,6.3-9.8,13.3-12.5,20.7c-1,2.8-3.3,5.3-3.8,8.4c-0.7,5.1-0.6,10.3,0.3,15.4c0.8,5.1,2.4,10.2,4.1,15.3
	c1.8,5.1,3.8,10.1,5.8,15.3c2,5.2,3.9,10.5,5.6,15.9c2.8,8.9,5,17.9,6.8,27c0.9,4.6,1.8,9.1,2.5,13.8c0.7,4.7,1.3,9.6,1.3,14.6
	c0.1,5.1-0.4,10.5-1.8,15.6c-1.4,5.1-3.5,9.9-6,14.3c-5.1,8.8-11.8,16.2-18.9,22.9c-13.2,12.3-28.9,21.8-45.8,28
	c-4.1,1.5-8.1,3.2-12.2,4.7c-4.1,1.5-8.4,2.9-12.8,3.5c-13,2.1-26.7,1.4-39.8-2c-5.3-1.4-10.6-3.2-15.5-5.9c-1.1-0.6-2-1.5-3-2.6
	C375.8,524.8,374.8,523.5,373.6,522z"/>
<path id="body" class="st0" d="M465.9,577.1H342.5H219.2c0,0-8-25.9,18.9-39.8c0,0,1-43.8,10.9-79.6c9.9-35.8,28.7-42.8,31.3-61.7
	c2.5-18.9,4.5-68.6,9.5-82.6c5-13.9,17.9-29.8,17.9-29.8s-80.6-19.9-80.6-88.5c0-40.8,22.9-68.6,22.9-68.6S254,25,273.9,23
	c19.9-2,49.7,77.6,49.7,77.6s6-1,18.9-1c12.9,0,18.9,1,18.9,1S391.3,21,411.2,23c19.9,2,23.9,103.5,23.9,103.5s22.9,27.9,22.9,68.6
	c0,68.6-80.6,88.5-80.6,88.5s12.9,15.9,17.9,29.8c5,13.9,7,63.7,9.5,82.6c2.5,18.9,21.3,25.9,31.3,61.7
	c9.9,35.8,10.9,79.6,10.9,79.6C473.8,551.2,465.9,577.1,465.9,577.1z"/>
<g id="rear-paws">
	<path id="right_1_" class="st1" d="M444.1,532.9c0.9,0.1,1.8,0.2,2.8,0.4c0,0.5,0,1,0.1,1.4c-1.5-0.2-2.9-0.3-4.4-0.3
		c-0.5,0-1.1-0.3-1.6-0.3c-3.7,0-7.3,0.6-10.8,1.4c-2.9,0.7-5.8,1.3-8.6,2.4c-2.9,1.1-5.7,2.5-8.4,4c-2.5,1.4-4.9,3-7.1,4.9
		c-0.5,0.4-1,0.9-1.5,1.4c-0.5,0.5-1,1-1.5,1.5c-0.7,0.7-1.5,1.4-2.2,2.2l-1.1,1.1l-1,1.1c-0.6,0.6-1.1,1.2-1.7,1.9
		c-0.3,0.3-0.5,0.6-0.9,1c0.6-0.7,1-1.7,1.6-2.4c0.9-1,1.8-2,2.6-3.1c1.8-2.2,3.7-4.3,5.9-6.2c2.2-1.9,4.5-3.6,6.9-5.1
		c2.4-1.5,5.1-2.5,7.7-3.5c4.4-1.7,9-3,13.7-3.5C437.7,532.8,440.9,532.5,444.1,532.9z M454.4,577.1h1.4c0.1-0.7,0.2-1.3,0.2-2
		c0.2-1.8,0.4-3.5,0.4-5.3c-0.1-2.1-0.4-4.3-0.6-6.4c0-0.3,0.2-0.6,0.1-1c-0.2-1.6-0.5-3.3-0.8-4.9c-0.1-0.7,0-1.4-0.1-2
		c-0.2-1.3-0.5-2.7-0.7-4c-0.3-2.1-0.5-4.1-1.1-6.1c0-0.1-0.1-0.3-0.1-0.3c0-0.1-0.1-0.3-0.1-0.3c0,0,0,0.1,0,0.2c0,0.2,0,0.4,0,0.6
		c0,0.3,0.1,0.6,0.1,0.9c0.2,2.2,0.2,4.5,0.3,6.7c0.1,2.9,0.4,5.7,0.7,8.6c0.1,1.8,0.5,3.5,0.6,5.3c0.1,2.7,0.1,5.4-0.1,8
		C454.7,575.7,454.5,576.4,454.4,577.1z M436.8,571.9c0.1-2.1,0-4.2-0.1-6.3c0-0.3,0.2-0.6,0.2-0.9c-0.1-1.6-0.2-3.3-0.2-4.9
		c0-0.7,0.1-1.3,0.1-2c0-1.3-0.2-2.7-0.2-4c0-2,0-4.1-0.2-6.1c0-0.1,0-0.3,0-0.4c0-0.1,0-0.3,0-0.3c0,0,0,0.1,0,0.2
		c0,0.2,0,0.4,0,0.6c0,0.3,0,0.6,0,0.9c-0.1,2.2-0.4,4.4-0.6,6.6c-0.2,2.8-0.2,5.6-0.3,8.5c0,1.7,0.1,3.5,0,5.3
		c-0.1,2.6-0.4,5.3-0.8,7.9c0,0.1,0,0.1,0,0.2h1.4C436.3,575.3,436.7,573.6,436.8,571.9z"/>
	<path id="left_2_" class="st1" d="M257.9,533.1c4.7,0.5,9.3,1.8,13.7,3.5c2.6,1,5.3,2,7.7,3.5c2.4,1.5,4.8,3.2,6.9,5.1
		c2.2,1.9,4.1,4,5.9,6.2c0.9,1,1.7,2.1,2.6,3.1c0.6,0.7,1.1,1.7,1.6,2.4c-0.4-0.4-0.6-0.7-0.9-1c-0.6-0.6-1.1-1.3-1.7-1.9l-1-1.1
		l-1.1-1.1c-0.7-0.7-1.5-1.4-2.2-2.2c-0.5-0.5-1-1-1.5-1.5c-0.5-0.5-1-1-1.5-1.4c-2.2-1.9-4.6-3.5-7.1-4.9c-2.7-1.6-5.5-2.9-8.4-4
		c-2.8-1.1-5.7-1.7-8.6-2.4c-3.5-0.8-7.1-1.4-10.8-1.4c-0.5,0-1.1,0.2-1.6,0.3c-1.5,0-2.9,0.1-4.4,0.3c0-0.4,0-0.9,0.1-1.4
		c0.9-0.1,1.8-0.3,2.8-0.4C251.7,532.5,254.8,532.8,257.9,533.1z M237.9,575c-0.2-2.7-0.2-5.4-0.1-8c0.1-1.8,0.4-3.5,0.6-5.3
		c0.3-2.9,0.5-5.7,0.7-8.6c0.1-2.2,0.1-4.5,0.3-6.7c0-0.3,0.1-0.6,0.1-0.9c0-0.2,0-0.4,0-0.6c0-0.1,0-0.2,0-0.2c0,0,0,0.2-0.1,0.3
		c0,0.1-0.1,0.2-0.1,0.3c-0.6,2-0.8,4.1-1.1,6.1c-0.2,1.3-0.5,2.6-0.7,4c-0.1,0.7,0,1.4-0.1,2c-0.2,1.6-0.6,3.3-0.8,4.9
		c0,0.3,0.2,0.6,0.1,1c-0.3,2.1-0.6,4.3-0.6,6.4c0,1.8,0.2,3.5,0.4,5.3c0.1,0.7,0.2,1.3,0.2,2h1.4C238,576.4,237.9,575.7,237.9,575z
		 M256.5,577.1h1.4c0-0.1,0-0.1,0-0.2c-0.4-2.6-0.6-5.3-0.8-7.9c-0.1-1.8,0.1-3.5,0-5.3c0-2.8-0.1-5.7-0.3-8.5
		c-0.2-2.2-0.5-4.4-0.6-6.6c0-0.3,0-0.6,0-0.9c0-0.2,0-0.4,0-0.6c0-0.1,0-0.2,0-0.2c0,0,0,0.2,0,0.3c0,0.1,0,0.2,0,0.4
		c-0.2,2-0.3,4.1-0.2,6.1c0,1.3-0.1,2.7-0.2,4c0,0.7,0.1,1.3,0.1,2c-0.1,1.6-0.2,3.3-0.2,4.9c0,0.3,0.2,0.6,0.2,0.9
		c0,2.1-0.2,4.2-0.1,6.3C255.9,573.6,256.2,575.3,256.5,577.1z"/>
</g>
<g id="front-paws">
	<g id="right_2_">
		<path class="st1" d="M410.3,407.9c-7.8,44.2-15.5,88.4-23.3,132.7c-2.1,12.2-4,25.1-6.6,36.5h-1.1L410.3,407.9z M365.3,355.4
			c-4.2,76.9-11.8,157-17.3,221.7c-0.2,0-1,0-1.1,0L365.3,355.4z M367.2,572.1c-0.1,0.9,0.2,1.8,0.2,2.7c0,0.8,0,1.5-0.1,2.3h1.7
			c0-0.7-0.1-1.5-0.1-2.2l-0.2-3c-0.1-0.9-0.2-1.8-0.2-2.8c0-0.4,0.2-0.9,0.2-1.3c0-0.7,0-1.3-0.2-2c0-0.3-0.1-0.5-0.2-0.8
			c0-0.1-0.1-0.2-0.1-0.4c0,0.3-0.2,0.6-0.2,0.9c0,0.4,0,0.9-0.1,1.3C367.5,568.5,367.2,570.3,367.2,572.1z M355.5,576.5
			c0,0.2,0,0.4-0.1,0.6h1.5c0-0.1,0-0.3,0-0.4l0.1-3.2c0-1,0-2,0-3c0-0.5,0.2-0.9,0.3-1.4c0.1-0.7,0.1-1.4,0-2.1
			c0-0.3,0-0.6-0.1-0.9c0-0.1-0.1-0.3-0.1-0.5c0,0.3-0.3,0.6-0.3,1c0,0.5,0,0.9-0.2,1.4c-0.6,1.9-1.1,3.8-1.3,5.7
			C355.3,574.6,355.5,575.5,355.5,576.5z"/>
	</g>
	<g id="left_1_">
		<path class="st1" d="M313.2,577.1h-1.1c-2.6-11.4-4.5-24.2-6.6-36.5c-7.8-44.2-15.5-88.4-23.3-132.7L313.2,577.1z M345.7,577.1
			c-0.2,0-1,0-1.1,0c-5.5-64.6-13.1-144.7-17.3-221.7L345.7,577.1z M324.6,566.8c-0.1-0.4-0.1-0.8-0.1-1.3c0-0.3-0.2-0.6-0.2-0.9
			c0,0.2-0.1,0.3-0.1,0.4c-0.1,0.3-0.1,0.5-0.2,0.8c-0.1,0.7-0.2,1.3-0.2,2c0,0.4,0.2,0.9,0.2,1.3c0,0.9-0.1,1.8-0.2,2.8l-0.2,3
			c0,0.7-0.1,1.5-0.1,2.2h1.7c0-0.8-0.1-1.5-0.1-2.3c0-0.9,0.3-1.8,0.2-2.7C325.4,570.3,325.1,568.5,324.6,566.8z M337.1,573.6
			c-0.2-1.9-0.7-3.8-1.3-5.7c-0.1-0.4-0.2-0.9-0.2-1.4c0-0.3-0.3-0.7-0.3-1c0,0.2,0,0.3-0.1,0.5c0,0.3-0.1,0.6-0.1,0.9
			c0,0.7,0,1.4,0,2.1c0,0.5,0.2,0.9,0.3,1.4c0.1,1,0,2,0,3l0.1,3.2c0,0.1,0,0.3,0,0.4h1.5c0-0.2,0-0.4-0.1-0.6
			C337.1,575.5,337.3,574.6,337.1,573.6z"/>
	</g>
</g>
<g id="eye">
	<g id="right">
		<path id="iris_1_" class="st2" d="M441.8,179.9c0,0-0.4,22.9-24.2,35.4s-51.4-3-51.4-3s-3.9-46.6,30.2-59.6
			S441.8,179.9,441.8,179.9z"/>
		<path id="pupil_1_" class="st0" d="M388.9,162.6c4.6,0,8.3,12,8.3,26.9s-3.7,26.9-8.3,26.9s-8.3-12-8.3-26.9
			S384.3,162.6,388.9,162.6z"/>
		<path id="shadow_1_" class="st2" d="M400.9,164.5c-20.8,4.8-30.3,22.9-34.6,37c1.1-14.6,6.5-39.8,30.1-48.8
			c34.1-13,45.3,27.2,45.3,27.2s-0.1,3.8-1.8,9.1C436.1,177.4,425.9,158.7,400.9,164.5z"/>
		<path id="flare_1_" class="st3" d="M404,160.1c5.1,1.1,4.8,7.4,3.7,8.8c-1.1,1.4-17.2,4.8-17.2,3.1S398.7,159,404,160.1z"/>
	</g>
	<g id="left">
		<path id="iris" class="st2" d="M288.1,152.7c34.1,13,30.2,59.6,30.2,59.6s-27.6,15.5-51.4,3s-24.2-35.4-24.2-35.4
			S254,139.8,288.1,152.7z"/>
		<path id="pupil" class="st0" d="M303.9,189.5c0,14.9-3.7,26.9-8.3,26.9s-8.3-12-8.3-26.9s3.7-26.9,8.3-26.9
			S303.9,174.7,303.9,189.5z"/>
		<path id="shadow" class="st2" d="M244.5,189.1c-1.7-5.3-1.8-9.1-1.8-9.1s11.2-40.2,45.3-27.2c23.7,9,29,34.2,30.1,48.8
			c-4.3-14.1-13.7-32.2-34.6-37C258.6,158.7,248.4,177.4,244.5,189.1z"/>
		<path id="flare" class="st3" d="M294,172c0,1.7-16.1-1.7-17.2-3.1c-1.1-1.4-1.4-7.7,3.7-8.8C285.8,159,294,170.3,294,172z"/>
	</g>
</g>
<path id="ear_x5F_right" class="st4" d="M428,120.4c0,0-19.4-12-53.6-17.3c0,0,25.9-67.9,39-61.1C426.5,48.9,428,120.4,428,120.4z"
	/>
<path id="ear_x5F_left" class="st4" d="M276.1,42.1c13.1-6.8,39,61.1,39,61.1c-34.2,5.4-53.6,17.3-53.6,17.3S263,48.9,276.1,42.1z"
	/>
<path id="nose" class="st5" d="M353.6,220.2c-0.1,0.2-0.4,0.5-0.8,0.8c-5.8,5.1-14.7,5.1-20.6,0c-0.4-0.3-0.6-0.6-0.8-0.8
	c-1-1.8-2.1-5.5,0-8.3c0.8-1.1,2.6-0.7,4.5,0.2c4.2,1.9,9,1.9,13.2,0c1.9-0.9,3.7-1.3,4.5-0.2C355.7,214.7,354.6,218.4,353.6,220.2z
	"/>
<path id="mouth" class="st1" d="M370.6,238.4c-2,2.1-4.6,3.4-7.4,4.1c-2.8,0.6-5.8,0.6-8.6-0.2c-2.8-0.8-5.4-2.3-7.6-4.2
	c-2.2-1.9-4-4.2-5.4-6.8l0.9,0.1c-1.7,2.3-3.5,4.4-5.6,6.3c-1,1-2.1,1.9-3.3,2.7c-1.2,0.8-2.5,1.5-3.9,1.9c-2.8,0.7-5.7,0.8-8.5,0.1
	c-2.7-0.7-5.4-2-7.3-4.1c2.1,1.8,4.7,3,7.4,3.5c2.7,0.5,5.5,0.4,8.1-0.4c2.5-0.8,4.7-2.6,6.7-4.5c2-1.9,3.8-4.1,5.4-6.3l0,0
	c0.2-0.2,0.5-0.3,0.8-0.1c0.1,0,0.1,0.1,0.2,0.2c1.3,2.5,3,4.7,5.1,6.5c2.1,1.9,4.5,3.3,7.2,4.1c2.6,0.8,5.5,1,8.3,0.5
	C365.8,241.5,368.4,240.3,370.6,238.4z"/>
<g id="mustache">
	<g id="right_3_">
		<path id="_x30_4" class="st6" d="M370.8,233.7c1.6,0.5,3.5,0.8,5.2,1.3c2.4,0.7,4.8,1.4,7.1,2.1c10.1,2.7,20.1,5.7,30,9.1
			c4.9,1.6,9.6,3.7,14.5,5.4c8,3,16.1,6.1,24.1,9.3l8,3.1c2.7,1,5.3,2.1,7.9,3.2c8.5,3.6,16.9,7.5,25.1,11.7c3.2,1.6,6.4,3.3,9.5,5
			c3.2,1.7,6.3,3.4,9.4,5.2c0.9,0.5,1.8,1,2.6,1.4c0.5,0.3,1.1,0.6,1.6,0.9c0.2,0.1,0.5,0.3,0.6,0.4c-0.2-0.1-0.6-0.3-1-0.5
			c-0.3-0.2-0.7-0.3-1-0.5l-17.7-9c-3.8-1.9-7.8-3.7-11.7-5.5c-2-0.9-3.9-2-5.9-2.8l-7.3-3.1l-7.3-3c-0.9-0.4-1.8-1-2.7-1.3
			c-6.3-2.5-12.7-4.9-19-7.3l-15.7-6.2c-5.4-2-10.8-4.1-16.3-6c-2.5-0.9-5-1.8-7.5-2.7c-2.5-0.9-5-1.8-7.6-2.6
			c-2.4-0.8-4.9-1.5-7.4-2.2l-10.9-3.4l-4.4-1.4C372.4,234.2,371.8,234,370.8,233.7z"/>
		<path id="_x30_3" class="st6" d="M376,226c1.7,0.2,3.7,0.3,5.5,0.6c2.6,0.4,5.1,0.7,7.7,1c10.8,1.2,21.6,2.7,32.4,4.6
			c5.3,0.9,10.5,2.1,15.8,3.1c8.8,1.7,17.6,3.5,26.4,5.3l8.7,1.8c2.9,0.6,5.8,1.2,8.7,1.9c9.4,2.1,18.7,4.5,28,7.1
			c7.2,2.1,14.3,4.4,21.4,6.6c1,0.3,2,0.6,3,0.9c0.6,0.2,1.2,0.4,1.8,0.6c0.2,0.1,0.5,0.2,0.7,0.2c-0.3-0.1-0.7-0.2-1.1-0.3
			c-0.3-0.1-0.8-0.2-1.2-0.3l-20-5.6c-4.3-1.2-8.7-2.2-13-3.3c-2.2-0.5-4.4-1.3-6.6-1.8l-8-1.8l-8.1-1.7c-1-0.2-2-0.6-3-0.9
			c-6.9-1.4-13.9-2.7-20.8-4.1c-2.9-0.6-5.7-1.2-8.6-1.8l-8.6-1.8c-5.9-1.2-11.8-2.3-17.8-3.4l-8.2-1.5c-2.7-0.5-5.5-1-8.2-1.4
			c-2.6-0.4-5.3-0.7-7.9-1.1c-3.9-0.6-7.8-1.2-11.8-1.8l-4.8-0.8C377.8,226.3,377.1,226.2,376,226z"/>
	</g>
	<g id="left_4_">
		<path id="_x30_2" class="st6" d="M178.9,291.9c1.5-0.7,3.1-1.8,4.7-2.6c2.2-1.1,4.4-2.3,6.6-3.4c9.2-5,18.5-9.7,28-14.1
			c4.7-2.2,9.5-4,14.2-6c7.9-3.3,15.9-6.7,23.9-9.9l7.9-3.2c2.6-1.1,5.3-2.1,8-3.1c8.6-3.3,17.4-6.2,26.2-8.9c3.4-1,6.9-2,10.4-2.9
			c3.5-0.9,6.9-1.9,10.4-2.8c1-0.3,1.9-0.5,2.9-0.8c0.6-0.1,1.2-0.3,1.8-0.4c0.2,0,0.5-0.1,0.7-0.2c-0.2,0.1-0.7,0.2-1,0.3
			c-0.3,0.1-0.7,0.2-1.1,0.3l-19.1,5.7c-4.1,1.3-8.2,2.7-12.2,4.1c-2.1,0.7-4.2,1.3-6.2,2l-7.4,2.7l-7.4,2.9c-0.9,0.4-2,0.5-2.9,0.9
			c-6.3,2.5-12.5,5.2-18.8,7.8l-15.6,6.3c-5.3,2.2-10.6,4.5-15.9,6.9c-2.4,1.1-4.9,2.2-7.3,3.3c-2.4,1.1-4.9,2.2-7.3,3.4
			c-2.3,1.1-4.6,2.3-6.9,3.5l-10.2,5l-4.2,2C180.5,291.2,179.9,291.5,178.9,291.9z"/>
		<path id="_x30_1" class="st6" d="M159.2,259.8c1.6-0.5,3.5-1.2,5.3-1.7c2.5-0.7,5-1.4,7.4-2.2c10.4-3.3,20.9-6.2,31.5-8.9
			c5.2-1.3,10.5-2.3,15.7-3.5c8.8-2,17.5-3.9,26.3-5.8l8.7-1.9c2.9-0.6,5.8-1.3,8.7-1.8c9.4-1.9,18.9-3.5,28.5-4.8
			c7.4-1,14.9-1.8,22.3-2.6c1-0.1,2.1-0.2,3.1-0.4c0.6-0.1,1.3-0.1,1.9-0.2c0.2,0,0.6-0.1,0.8-0.1c-0.3,0-0.7,0.1-1.1,0.2
			c-0.4,0.1-0.8,0.1-1.2,0.2l-20.5,2.9c-4.4,0.7-8.8,1.5-13.2,2.2c-2.2,0.4-4.5,0.6-6.7,1l-8.1,1.6l-8.1,1.7c-1,0.2-2.1,0.2-3.1,0.4
			c-6.9,1.5-13.8,3.1-20.7,4.7c-2.9,0.7-5.7,1.2-8.6,1.8l-8.6,1.8c-5.9,1.3-11.8,2.6-17.6,4l-8.1,1.9c-2.7,0.7-5.4,1.3-8.1,2
			c-2.6,0.7-5.1,1.5-7.7,2.2c-3.8,1.1-7.7,2-11.5,3.1l-4.7,1.2C161,259.3,160.3,259.5,159.2,259.8z"/>
	</g>
</g>
</svg>
