<?xml version="1.0" encoding="utf-8"?>
<!-- Generator: Adobe Illustrator 24.0.0, SVG Export Plug-In . SVG Version: 6.00 Build 0)  -->
<svg version="1.1" id="cast_1_" xmlns="http://www.w3.org/2000/svg" xmlns:xlink="http://www.w3.org/1999/xlink" x="0px" y="0px"
	 viewBox="0 0 800 600" style="enable-background:new 0 0 800 600;" xml:space="preserve">
<style type="text/css">
	.st0{fill:#7A7AEA;}
	.st1{opacity:0.66;fill:#6969E0;}
	.st2{fill:#C6BEF4;}
	.st3{opacity:0.18;fill:#7A7AEA;}
	.st4{opacity:0.3;fill:#7A7AEA;}
	.st5{opacity:0.54;fill:#E4E1FF;}
	.st6{fill:#1A1A1E;}
	.st7{fill:#FF5A27;}
	.st8{fill:#FF952C;}
	.st9{fill:#FFBE2E;}
	.st10{fill:#FFCD5F;}
	.st11{fill:#FCC24C;}
	.st12{fill:#FFDB92;}
	.st13{fill:#FFF3D4;}
	.st14{fill:#A55925;}
	.st15{fill:#994C17;}
	.st16{fill:#8E3E07;}
	.st17{opacity:0.31;fill:#FFCD5F;}
	.st18{opacity:0.53;fill:#E4E1FF;}
</style>
<g id="cast">
	<path id="_x30_6" class="st0" d="M330,446.7c0,0-94.4,68.6-86,51.1c8.3-17.4-4.8-36.9-44.9-44c-40.1-7.1-12.5-35.6-12.5-35.6
		L330,446.7z M309.5,544.6l72.1,37.4l-31.2-60.6L309.5,544.6z M454.3,559.4c0,2.5,11-37.9,75.8-54.8c64.9-16.8,48-42.1,48-42.1
		C492.3,450.7,454.3,556.9,454.3,559.4z"/>
	<path id="_x30_5" class="st1" d="M339.8,438.9c0,0-94.4,68.6-86,51.1c8.3-17.4-4.8-36.9-44.9-44c-40.1-7.1-12.5-35.6-12.5-35.6
		L339.8,438.9z M312.5,538.7l72.1,37.4l-31.2-60.6L312.5,538.7z M446.8,551.8c0,2.5,11-37.9,75.8-54.8c64.9-16.8,48-42.1,48-42.1
		C484.7,443.2,446.8,549.3,446.8,551.8z"/>
	<path id="_x30_4_4_" class="st2" d="M576.2,419.6c-4,19.2-6.2,30.7,2,42.9c0,0-23.6-0.9-43,10.9c-38.6,23.5-45.3,78.5-88.5,99.6
		c-14.4,7-28.3,10.9-40.6,11.7c-24.7,1.7-43.4-8.5-48.4-28.6c-4.9-19.5-35.1-4.9-74.5,0.8c-4,0.6-8,0.6-11.8,0.1
		c-28.8-3.7-50.4-35.4-27.3-59.3c5.2-5.4,8.5-10.7,10.4-15.9c0,0,0,0,0-0.1c7.6-20.8-8.6-39.1-25-47.7c-23.4-12.2-42.7-16-42.7-16
		c3.7-3.7,12.4-10.7,22.9-20.4c0,0,0.1-0.1,0.1-0.1c24-22.1,57.5-58.1,62.8-100.1c0.7-5.4,0.9-10.9,0.6-16.6
		c-3.4-57.7-14.7-116,0.1-171.5c2.7-10.2,6.3-20.3,10.9-30.3c8.6-18.3,20.3-31.4,32.6-40.7C347.6,15,382.5,15,382.5,15
		c24.1,0.4,44,5.2,60.2,13.5c1.2,0.6,2.4,1.3,3.7,2c0.4,0.2,0.9,0.4,1.3,0.7c0.1,0,0.2,0.1,0.3,0.1c0.9,0.5,1.8,1.1,2.7,1.6
		c1,0.6,2,1.2,3,2c0.3,0.2,0.6,0.4,1,0.7c0.9,0.6,1.8,1.3,2.8,2.1C518.9,83.3,516,186.9,516,247.9c0,6.5,0.5,12.8,1.5,19
		c2.6,17.3,8.6,33.5,16.1,48.1c2.6,5.3,5.6,10.3,8.6,15.2c0.1,0.2,0.3,0.4,0.4,0.6c12.2,19.4,26.1,35.1,36.3,45.3
		c8.6,8.5,14.4,13.3,14.4,13.3c-14.1,8-14.5,18.1-16.7,28.3C576.4,418.4,576.3,419,576.2,419.6z"/>
	<path id="_x30_3_5_" class="st3" d="M542.1,330.2c-1.6,1-3.2,1.9-4.8,2.7c-77.9,42.5-151.2-23.4-30-76.4c0,0-1.4-104.3-13.6-159
		c-7-31.8-23.7-50.1-36.4-59.9c59.6,44.1,58.8,142.5,58.7,204.1v6.1C516,278.8,527.8,307.2,542.1,330.2z M276,431.7
		c-7.3,21.6-15,40.6-21.6,50.2c0,0,0,0,0,0.1c-1.9,5.2-5.2,10.5-10.4,15.9c-18.9,19.6-7.8,44.4,12.6,54.7c4.5,2.3,9.5,3.9,14.7,4.6
		c5.3-28.5,18.1-101.8,34.8-229.2C305.4,330.7,291.3,386.6,276,431.7z M364.8,445.9c0,0-10.5,26-15.7,51.2c0,0,0,0,0,0
		c-3.3,15.8-4.5,31.3,0.2,39.8c12.1,22.3,8.3,19.2,8.3,19.2c3.8,15.2,15.4,24.7,31.5,27.7c5.2,1,10.9,1.3,16.9,0.9
		C384.5,559.4,349.5,506.7,364.8,445.9z M316.7,38.5c-12.3,9.4-24,22.5-32.6,40.7c-30.1,64.2-15,133.5-11,201.8
		c2.9,49.1-36.3,91.7-63.4,116.7c15.3-11.8,106.2-87.4,79.5-190.8C265.4,114.2,302.7,56.1,316.7,38.5z"/>
	<path id="_x30_2_6_" class="st4" d="M535.1,323.4c-1.6,1-1.2,0.6-2.8,1.4c-76.8,24.2-79.8-24-13.5-66.8v6.1
		C518.7,295.1,520.7,300.4,535.1,323.4z M276,431.7c-8.5,58.4-15.3,98-19.4,120.9c-20.4-10.4-31.5-35.1-12.6-54.7
		c5.2-5.4,8.5-10.7,10.4-15.9c0,0,0,0,0-0.1C261,472.3,268.6,453.2,276,431.7z M349.1,497.1c-3.3,15.8-4.5,31.3,0.2,39.8
		c12.1,22.3,8.3,19.2,8.3,19.2c3.8,15.2,15.4,24.7,31.5,27.7C373.8,564.8,354.1,533.9,349.1,497.1z M277.4,206.1
		c-9.8-38.2-9.3-70.6-4.2-96.6c-14.8,55.5-3.5,113.8-0.1,171.5c0.3,5.6,0.1,11.1-0.6,16.6C282.2,270.9,286.1,240,277.4,206.1z
		 M576.2,419.6c-0.5-1.2-0.9-1.8-0.9-1.8s-26-9-30.3-51.7c0,0,1.7,69.2,33.2,96.4C570,450.3,572.2,438.8,576.2,419.6z"/>
	<path id="_x30_1_7_" class="st5" d="M309,56.8c-2.1,2.1,28.4-41.2,88.2-39.1s81.8,51.2,81.8,51.2S380.8-14.2,309,56.8z
		 M244.3,437.2c-14.2-17.8-51.2-21.3-51.2-21.3c46.2-22.7,83.9-97.4,83.9-97.4C233.6,397.4,244.3,437.2,244.3,437.2z M447.6,560.9
		c0.7-2.8,35.5-27,58.3-66.8c22.7-39.8,64.7-39.1,64.7-39.1c-20.6-12.8-30.2-78.9-30.6-76.1C528.7,470.6,447.1,562.9,447.6,560.9z
		 M286.2,555.9c23.5-10.7,63.3-11.4,63.3-11.4c-11.4-12.8-4.2-57,8.5-88.9c8.5-21.3,11.4-73.9,11.4-73.9
		C358.8,459.9,286.2,555.9,286.2,555.9z M290.5,189.8c-1.2-1.8,6.7,25.9,8.8,49.9c2.6,30.6-11.8,69.4-11.8,69.4
		S333.9,252.3,290.5,189.8z"/>
</g>
<g id="mouth">
	<path id="_x30_2_1_" class="st0" d="M458.2,197.9c-2.1,3.6-6.3,3.8-12.1,2.6c-11.7-2.3-30-9.8-50.4-4.7c-10,2.5-18.5,5.4-25.5,7.7
		c-17.1,5.6-25.7,7.6-27.4-8.7c-0.2-1.9,0-3.7,0.4-5.5c4.8-18,41.6-27.8,51.7-29.3c39.1-3.6,60.2,7.9,64.9,21.6
		C461.8,187,461.1,192.6,458.2,197.9z"/>
	<path id="_x30_1_2_" class="st6" d="M459.9,181.6c-0.4,1.9-0.4,4.3-1.5,6.1c-6.2,11-32.8-10.1-63.3-2.6c-31.4,7.8-53,20.3-51.9,4.2
		c4.8-18,41.6-27.8,51.7-29.3C434.1,156.5,455.2,167.9,459.9,181.6z"/>
</g>
<g id="eyes">
	<g id="right">
		<path id="_x30_4_1_" class="st0" d="M456.8,106.6c0.1,5.7-0.3,11.4-2,16.1c-1.1,3.1-2.7,5.9-5,8c-2.9,2.8-7,4.5-12.4,4.7
			c-2.8,0.1-5.4-0.2-7.6-0.8c-18.3-4.9-18.9-29.5-18.9-29.5l28.9-22.7l10.8-8.5c0,0,3.5,10.2,5.2,22.3
			C456.3,99.6,456.7,103.1,456.8,106.6z"/>
		<path id="_x30_3_1_" class="st6" d="M429.8,134.5c-18.3-4.9-18.9-29.5-18.9-29.5l28.9-22.7C443.7,97.7,449,128.9,429.8,134.5z"/>
	</g>
	<g id="left">
		<path id="_x30_2_2_" class="st0" d="M370.4,115.6c0,0-6.8,22.1-18.4,30.4c-4.3,3.1-9.3,4.2-14.8,1.7c-0.7-0.3-1.4-0.7-2-1.1
			c-8.4-5.3-11.2-17.3-11.7-28.5c-0.6-12.6,1.6-24.3,1.6-24.3l10.2,4.9L370.4,115.6z"/>
		<path id="_x30_1_3_" class="st6" d="M370.4,115.6c0,0-6.8,22.1-18.4,30.4c-1.2-0.2-2.3-0.6-3.6-1.2c-15.1-6.9-14.6-33-13.2-46.2
			L370.4,115.6z"/>
	</g>
</g>
<g id="candle">
	<g id="flame">
		<path id="_x30_3_2_" class="st7" d="M511.2,166.3c0,0-30.7-21.9,2.6-68.3c0,0-3.9,16.7,3.9,24.3
			C525.5,129.9,528.1,146.6,511.2,166.3z"/>
		<path id="_x30_2_3_" class="st8" d="M511.8,166.2c0,0-20.7-14.8,1.8-46.1c0,0-2.6,11.3,2.6,16.4
			C521.5,141.6,523.3,152.9,511.8,166.2z"/>
		<path id="_x30_1_4_" class="st9" d="M511.7,166.2c0,0-12.1-9.1,1-28.2c0,0-1.5,6.9,1.5,10C517.4,151.1,518.4,158,511.7,166.2z"/>
	</g>
	<g id="wax">
		<path id="_x30_4_2_" class="st10" d="M537.2,255.5l-1.1,0l-8.1-0.2l-35.1-1l-0.1-3.6v-0.4l-2.5-80.6h43l0.5,11.8l3.3,73.1
			L537.2,255.5z"/>
		<path id="_x30_3_3_" class="st11" d="M537.2,254.6l-1.1,0.9l-0.9,0.7l-7.2-1l-35.2-4.6l-0.6-0.1c0,0,0.2-0.1,0.6-0.3
			c2.2-1.1,10.1-4.8,15.8-6.8c6.8-2.3,4-26,4-26s3.1,0.6,3.7,8.5c0.6,7.9-2.6,17.8,5.4,15.3c7.9-2.6-0.8-19.5-1.4-28.3
			s6.8-13.6,6.2-3.7c-0.6,9.9,0.3,16.4,3.7,14.2c3.4-2.3-3.1-17.2,0.3-20.1c3.4-2.8,3.1-22.9,3.1-22.9l0.3,1L537.2,254.6z"/>
		<path id="_x30_2_4_" class="st12" d="M509.2,166.3c8,0,14.5-2.1,20.5-2.9c6-0.8,8.3,1.8,6.5,9.1c-1.8,7.3,1.6,11.9,1.8,16.3
			c0.3,4.4-4.7,6.7-7.5,2.3c-2.9-4.4,2.1-14.8-1-16.3c-3.1-1.6-6,1.8-6,9.6c0,7.8-7,3.6-7.8,2.1c-0.8-1.6,1.6-9.9-1.3-10.1
			c-2.9-0.3-1.8,10.9-3.9,14.8c-2.1,3.9-5.7-0.8-4.4-3.1c1.3-2.3,2.3-11.9-1.8-10.9c-4.1,1-0.8,16.3-3.1,22
			c-2.3,5.7-8.3-1.6-5.7-3.9c2.6-2.3,1.6-18.2,0.8-19.7c-0.8-1.6-2.6-0.3-3.6,7.3c-1,7.5-2.1,8-4.7,6.7c-2.6-1.3,0.5-5.2,1.6-8.3
			c1-3.1-0.8-7.5-1.6-11.2c-0.8-3.6,3.4-4.7,3.4-4.7S501.1,166.3,509.2,166.3z M492.3,194.3l2.1,51.5c0,0,3.7,1.1,4.9-4.9
			s-2.3-1.6-4-21.1C493.5,200.3,492.3,194.3,492.3,194.3z"/>
		<path id="_x30_1_5_" class="st13" d="M488.5,169.6c0,0-1.1-4.1,4.8-4.1c5.9,0,15.3,1.4,22.1,0c6.8-1.4,15.6-3.2,17.7-1.9
			c2.1,1.3,2.7,3.8,1.3,5.9c0,0-0.8-5.2-6.2-4c-5.4,1.3-14.3,4.6-19.7,4.1C502.9,169.1,491.3,165.2,488.5,169.6z"/>
	</g>
	<g id="candlestick">
		<path id="_x30_4_3_" class="st14" d="M535.3,277.1c-0.6,0.2-1.3,0.4-1.9,0.5c-39.1,10.4-106.8-9.1-106.8-9.1l28.6-6.5
			c0,0-7-0.9-12.1-2.6c-3.7-1.2-6.5-3-4.8-5.2c3.9-5.2,121.1-5.2,125-5.2l-16.9,14.3c0,0,23.4-3.9,27.3-3.9
			C577.5,259.4,572.6,267,535.3,277.1z"/>
		<path id="_x30_3_4_" class="st15" d="M539,275.5c-1.1,0.5-2.4,1.1-3.7,1.7c-0.6,0.2-1.3,0.4-1.9,0.5c-7,1.9-15,2.8-23.4,3
			c-37.9,1-83.4-12.1-83.4-12.1l21-4.8l7.7-1.8c0,0-7-0.9-12.1-2.6c36.2-1.6,90.9-1.6,93.6-1.6l-5.9,5l-11,9.3
			c0,0,23.4-3.9,27.3-3.9C549.5,268.2,548.5,271,539,275.5z"/>
		<path id="_x30_2_5_" class="st16" d="M571.5,262.3l-16.9,14.3c0,0-7.4-0.5-15.6-1.2c-8.3-0.7-17.5-1.4-20.5-1.7
			c1.1,0.7-0.7,3.2-8.5,6.9c-37.9,1-83.4-12.1-83.4-12.1l21-4.8c23.6-0.5,51.6-0.7,83.3-1C543.8,262.6,557.4,262.5,571.5,262.3z"/>
		<path id="_x30_1_6_" class="st17" d="M442.7,255c-1.3-0.3,19.4-2.7,30.3-2.2c10.9,0.4,46.1-1.8,46.1-1.8S458.3,258.1,442.7,255z"
			/>
	</g>
</g>
<g id="hand">
	<path id="_x30_4_5_" class="st2" d="M593.3,389.4c-6.7,0-12.9-2.1-18.6-5.6c-25-15.1-32.5-53.6-32.5-53.6c2.7,1.2-1.2-1.4,0.4,0.6
		c36.3,45.3,46.6-31.8,29.8-18.7c-0.4,0.3-0.8,0.6-1.2,1c-9.8,8.7-19,10.1-27.8,7c-3.3-1.1-6.6-2.9-9.8-5.1c-5-3.4-9.8-7.9-14.6-13
		c-14-14.9-25,8.5-27.6,14.7c2.3-6,11.7-29.8,26-49.8c16.2-22.7,38.8-40.7,64.5-22.8c0.3,0.2,0.6,0.4,0.9,0.7
		c4.7,3.4,9.5,8,14.4,14.1C656.5,332.2,593.3,389.4,593.3,389.4z"/>
	<path id="_x30_3_6_" class="st3" d="M593.3,389.4c-6.3,3.6-11.2,10.8-14.5,18.6c-1.4,3.2-2.6,6.5-3.4,9.8
		c-6.3-1.4-11.3-16.9-0.7-34c1.2-2.4,2.6-5,4.2-7.7c2.6-4.3,5.9-9,10-14.1c25.8-32.1,21.1-81.8,2.1-108.2c1.8,1.9,3.8,3.6,6.3,5
		c5.6,6.9,10,13.6,13.6,20.2C645.2,342.4,593.3,389.4,593.3,389.4z M573.1,252.7c0,0-1.5,0.8-3.9,2.3c-5.8,3.8-16.6,12.3-21.4,25.5
		c-7.9,21.9-6.6,32-4.5,39.6c5.1,1.8,10.3,2.1,15.6,0.4v0c4-1.2,8.1-3.6,12.2-7.4c0.4-0.4,0.8-0.7,1.2-1
		C566.2,300.8,555.1,274.1,573.1,252.7z"/>
	<path id="_x30_2_7_" class="st3" d="M593.3,389.4c-6.3,3.6-11.2,10.8-14.5,18.6c0.3-5.3,2.1-11.5,6.1-17.9c1.2-2.4,2.6-5,4.2-7.7
		c2.6-4.3,5.9-9,10-14.1c20.5-25.5,21.7-62.1,11.9-89.4C645.2,342.4,593.3,389.4,593.3,389.4z M573.1,252.7c0,0-1.5,0.8-3.9,2.3
		c-3.4,4-6.6,8.8-8.7,14.5c-7.4,20.5-7.9,37.4-1.6,51c4-1.2,8.1-3.6,12.2-7.4c0.4-0.4,0.8-0.7,1.2-1
		C566.2,300.8,555.1,274.1,573.1,252.7z M545.9,250.2c1.1-0.7-35.2,18.7-42,47.5c0,0,13.1-3.8,19.5,10.6
		C523.4,308.3,514.5,269.7,545.9,250.2z"/>
	<path id="_x30_1_8_" class="st18" d="M525.8,258c0,0,22.7-29.9,48.3-17.1c25.6,12.8,29.1,47.6,29.1,47.6S577.7,214.7,525.8,258z"/>
</g>
</svg>
