<?xml version="1.0" encoding="utf-8"?>
<!-- Generator: Adobe Illustrator 24.0.0, SVG Export Plug-In . SVG Version: 6.00 Build 0)  -->
<svg version="1.1" id="pumpkin" xmlns="http://www.w3.org/2000/svg" xmlns:xlink="http://www.w3.org/1999/xlink" x="0px" y="0px"
	 viewBox="0 0 800 600" style="enable-background:new 0 0 800 600;" xml:space="preserve">
<style type="text/css">
	.st0{fill:#591008;}
	.st1{fill:#EE7D14;}
	.st2{fill:#BA6210;}
	.st3{fill:#AA550F;}
	.st4{fill:#0F080F;}
</style>
<g id="tail_1_">
	<g id="_x30_2">
		<path class="st0" d="M467.4,154.7c0,5.6-2.8,10.8-6.4,15.1c-5.6,6.8-13.9,12-22.7,11.9l-73.7-7.7c-8.7-2.1-17.9-4.4-23.9-10.9
			c-6.1-6.5-6.8-18.7,0.8-23.3c7.9-4.8,18.5,1.8,22.5,10.2c-2.2-7.5,0.2-16.1,6.1-21.3c1.4-1.2,3.2-2.3,5-1.8c1.3,0.3,2.2,1.4,3,2.4
			c4.6,5.8,8.1,12.4,10.3,19.5c-2.3-5.8-0.3-12.8,3.9-17.4c4.2-4.6,10.2-7.3,16.3-8.9c2.2-0.6,4.5-1,6.7-0.3
			c2.9,0.9,4.9,3.7,6.2,6.5c2,4.1,3.3,8.4,3.8,12.9c0.4-2.1,1.2-4.1,2.4-5.9c1.2-1.8,2.8-3.5,4.8-4.3c4.3-1.7,9.3,1.2,11.7,5.2
			c2.3,4,2.7,8.8,3,13.4c-0.3-5.6,6.3-9.8,11.7-8.2C464.1,143.3,467.4,149.1,467.4,154.7z"/>
	</g>
	<path id="_x30_1" class="st0" d="M410.8,21.6l37.5,39.3c2,2.1,2.5,5.2,1.2,7.8l-38.8,79c-1.7,3.4-5.9,4.8-9.3,3.1h0
		c-3.1-1.6-4.6-5.3-3.3-8.6l28.1-71.8c1-2.6,0.4-5.5-1.7-7.5l-20.5-19.6c-1.7-1.6-4-2.2-6.2-1.7l-25.1,5.6c-3,0.7-5.2,3.2-5.4,6.3
		c-0.4,6.5-0.8,17.2,0.3,19.7c0.9,2.1,10,6.8,17.6,10.5c4.7,2.2,5.2,8.6,1.1,11.7l-8.8,6.5c-2.4,1.8-5.7,1.8-8.1,0l-22-15.9
		c-1.8-1.3-2.9-3.4-2.8-5.6l0.2-39.7c0-3.1,2.1-5.8,5.1-6.6l54.2-14.4C406.5,19,409.1,19.7,410.8,21.6z"/>
</g>
<path id="body" class="st1" d="M608.6,255.9c51.5,65.9,32,196.8,17.5,227c-14.5,30.2-80.7,97.3-214.5,97.7
	c-133.8,0.4-174.3-22.5-211.2-50.9s-59.7-176.8-26.1-237.7s125.4-118.2,216.8-124.6C473.9,161.6,557.2,190,608.6,255.9z"/>
<path id="hadow" class="st2" d="M626.1,482.8c-14.5,30.2-80.7,97.3-214.5,97.7c-133.8,0.4-174.3-22.5-211.2-50.9
	c-30.3-23.3-51-127.1-39.1-197.4c0.3,60.5,17.6,127.3,40.8,145.1c35.4,27.3,74.3,49.2,202.6,48.8c128.3-0.4,191.7-64.8,205.6-93.7
	c10.4-21.7,23.5-97.5,8.7-160.7C657.1,340.9,639.6,454.9,626.1,482.8z"/>
<path id="lines" class="st3" d="M199.5,433.9c-2.1-7.9-3.6-16-4.7-24.1l-0.6-6.1l-0.2-1.5l-0.1-1.5l-0.2-3.1l-0.2-3.1
	c-0.1-1,0-2-0.1-3.1c0-2-0.1-4.1,0-6.1c0.2-16.4,2.8-32.7,7.1-48.6c2.9-10.5,6.3-20.9,10.6-30.9c4.2-10.1,9.1-19.9,14.5-29.4
	c8.7-15.4,18.3-30.3,29.5-44.1c11.2-13.8,24-26.4,38.4-37.1c3.5-2.6,7.1-5,10.7-7.3c7.6-3.1,15.4-5.8,23.3-8.3
	c-5.4,2.6-10.7,5.4-15.8,8.6c-13.9,8.5-26.1,19.4-37.4,31c-5.7,5.9-11.7,11.6-16.9,18.1C245,253,234.6,270.1,225,287.6
	c-0.9,1.7-2,3.3-3,4.9c-1,1.6-2.1,3.2-2.9,4.9c-2.9,5.7-5.4,11.6-7.8,17.6c-2.3,6-4.5,12-6.4,18.1c-1.8,6.1-3.6,12.3-4.9,18.5
	l-0.5,2.3l-0.5,2.4c-0.3,1.6-0.6,3.1-0.9,4.7c-0.5,3.2-1.1,6.3-1.4,9.5c-1.3,10.5-1.9,21.1-1.2,31.7c0.7,10.6,2.5,21.1,5.3,31.4
	c5.8,21.1,16,40.9,28.8,58.4c11.8,16.2,25.8,30.9,41.8,43.1c7.7,5.9,16.1,10.6,24.5,15.3c12.4,7.1,25.5,13.1,38.8,18.3
	c2.7,1.1,5.5,2,8.2,3.1l8.3,2.9c2.5,0.8,5,1.7,8.8,2.9c-3-0.5-6.5-0.8-9.9-1.4c-3.4-0.7-6.9-1.5-10-2.7c-8.9-3.2-17.6-6.8-26.4-10.3
	c-18.5-7.5-36.1-17.5-51.7-30.2c-15.6-12.6-29.2-27.8-39.7-44.9c-5.2-8.4-9.6-17.3-13.4-26.3C205.2,452.7,202,443.4,199.5,433.9z
	 M318.8,318.8c0.7-2.8,2.1-5.5,2.8-8.3c3.9-14.7,8.5-29.3,14.1-43.5c0.6-1.5,1.2-2.9,1.9-4.4c0.6-1.4,1.4-2.8,2.1-4.2
	c1.5-2.8,2.9-5.6,4.2-8.5c5.3-11.2,10.7-22.5,17.2-33.1c10.1-16.4,21.6-31.9,33.2-47.2c0.6-0.8,1.4-1.8,1.9-2.5
	c-0.5,0-1.1,0.1-1.6,0.1c-0.7,0.7-1.4,1.5-2,2.3c-1.9,2.2-3.7,4.5-5.5,6.8l-5,6c-1.7,2-3.3,4.1-4.9,6.1c-1.6,2.1-3.3,4.1-4.9,6.2
	l-4.7,6.3l-2.4,3.2l-2.3,3.2l-4.5,6.5c-1.5,2.2-2.9,4.4-4.3,6.6c-1.4,2.2-2.9,4.4-4.1,6.7c-13.8,23.3-24.1,48.7-31,74.8
	c-4.3,16.2-7.2,32.6-9.2,49.1c-1.7,12.4-2.3,25-2.6,37.5l-0.1,9.4l0.3,9.4c0,3.1,0.3,6.3,0.5,9.4l0.3,4.7c0.1,0.8,0.1,1.6,0.2,2.3
	l0.2,2.3c0.4,3.7,0.7,7.5,1.1,11.2c0.5,3.7,0.9,7.4,1.3,11.2l1.7,11.2c0.2,1.9,0.6,3.7,1,5.6l1.1,5.5c6.3,29.9,19.1,58.7,37.4,83.1
	c4.3,5.7,8.5,11.6,13,17.4c1.6,2,3.5,4,5.5,5.6c1.5,1.2,3.1,2.3,4.6,3.4c0.2,0,0.4,0,0.6,0c-1.5-1.7-2.5-3-3.5-4.2
	c-2.9-3.5-5.6-7-8.3-10.5c-3.3-4.4-6.4-8.9-9.3-13.5c-3-4.6-5.8-9.3-8.5-14.1c-1.8-3.2-3.9-6.3-5.6-9.5l-2.7-4.8l-1.3-2.4
	c-0.4-0.8-0.8-1.7-1.2-2.5c-6.5-14-11.4-28.7-15.6-43.5c-4.6-16-8.2-32.5-9.9-49.2c-1.6-16.2-1.5-32.6,0-48.8
	C311.6,357.4,314.4,338,318.8,318.8z M428.3,547.5c6.3-8.3,12-17,17-26.1c6.4-11.8,11.7-24.1,15.9-36.8c4.2-12.7,7.2-25.8,9.5-38.9
	l0.9-6.1l0.5-3l0.4-3.1l0.7-6.1l0.6-6.1l0.3-3.1l0.2-3.1l0.4-6.1l0.3-6.1l0.2-3.1l0.1-3.1c1-24.7,0.1-49.3-2.1-73.9l-0.5-5.5
	l-0.5-5.5l-1-11c-0.3-3.7-0.8-7.3-1.1-11c-0.4-3.7-0.9-7.3-1.4-11c-2.3-14.8-5.7-29.6-10.9-43.8c-5.1-14.2-11.9-27.9-20.5-40.2
	c-1-1.4-2-2.9-3-4.4c-0.5-0.7-1-1.5-1.5-2.2l-1.6-2.2c-1-1.5-2-2.9-3-4.4l-0.7-1.1l-0.8-1.1l-1.6-2.1c-0.7-1-1.6-2-2.4-3
	c-0.4-0.5-0.9-1-1.3-1.4c-0.5-0.4-1-0.9-1.5-1.3c-2-1.7-4.2-3.2-5.9-4.7c1.9,2.4,3,4,4.3,5.5c0.7,0.9,1.4,1.7,2,2.6l1.9,2.7
	c1.3,1.8,2.7,3.5,3.9,5.3c6.2,8.8,11.5,18.2,16.4,27.7c0.8,1.6,1.7,3.2,2.5,4.8l2.4,4.9c1.7,3.2,3.1,6.6,4.4,10
	c0.7,1.8,1.3,3.6,1.9,5.4l1.8,5.4c1.1,3.6,2.2,7.3,3.1,10.9c1.9,7.3,3.7,14.7,5.3,22.1c1.8,8,3.3,16.1,4.7,24.3
	c1.3,8.2,2.5,16.3,3.3,24.6c1.6,16,2,32.1,1.5,48.1c-0.7,19.3-1.8,38.6-4.3,57.8c-0.4,2.8-1.5,5.6-2,8.4
	c-2.5,14.8-5.6,29.5-10.1,43.9c-1,2.9-2.1,5.9-3.3,8.7c-1.3,2.8-2.5,5.7-3.6,8.6c-4.5,11.4-9.3,22.7-15.6,33.2
	c-9.7,16.3-21.3,31.3-34.1,45.3c-0.8,0.8-1.7,1.7-2.2,2.4c-0.3,0.4-0.6,0.8-0.9,1.1c0.4,0,0.8,0,1.1,0c1.1-0.9,2.5-2.1,3.6-3.3
	c0.5-0.5,1.1-1,1.6-1.5l1.5-1.6c1-1.1,1.9-2.1,3-3.2C415.2,563.6,422,555.8,428.3,547.5z M613,341.7c-5-15.2-11.4-29.9-19.1-43.9
	c-1.1-2.1-2.3-4.2-3.5-6.2c-1.2-2.1-2.5-4.1-3.7-6.1l-3.8-6.1c-1.2-2-2.6-4-4-6l-4-6l-4.2-5.8c-1.4-1.9-2.8-3.9-4.3-5.8l-4.5-5.6
	c-12.4-15-26.4-28.8-41.6-41c-15.2-12.2-31.6-22.8-48.6-32.2c-2-1.1-4-2.2-6-3.4c-1.7-0.9-3.3-1.9-5-2.8c-2.3-0.4-4.6-0.8-6.9-1.1
	c11.5,6.9,22.9,14.1,34.1,21.5c7.8,5.3,15.9,10.2,23.3,16.1c15.5,12.2,29.8,25.8,43.3,40.1c14.6,15.5,27.7,32.6,38.3,51.1
	c5.1,9.1,9.5,18.5,13.2,28.2c3.7,9.7,6.7,19.7,9,29.7c2.8,12.2,4.8,24.5,5.8,37c0.3,3.1,0.4,6.2,0.6,9.3c0.1,3.1,0.3,6.2,0.2,9.4
	c0.1,6.2-0.2,12.5-0.7,18.7c-0.2,1.8-0.5,3.7-0.9,5.5c-0.4,1.8-0.8,3.6-1.1,5.4c-2.9,19.1-8.4,37.9-17.3,55.2
	c-3.7,7.2-8.5,13.6-13.1,20.2c-4.5,6.6-9.3,12.9-14.4,19.1c5.8-3.9,11.1-7.8,16-11.7c5.5-7.3,10.4-15,14.8-23.1
	c8.3-15.4,14-32.1,17.2-49.2c2-10.6,3-21.3,3.1-31.9c0.1-10.7-0.5-21.3-1.8-31.9C621.6,372.5,617.9,356.8,613,341.7z"/>
<g id="eyes">
	<g id="right">
		<path id="_x30_4_1_" class="st4" d="M549.9,269.7c-8.9,23.5-35.2,35.3-58.8,26.4s-35.3-35.2-26.4-58.8S500,202,523.5,211
			C547,219.9,558.8,246.2,549.9,269.7z"/>
		<path id="_x30_3_1_" class="st2" d="M462.1,248.2c0.4-3.6,1.3-7.2,2.6-10.8c8.9-23.5,35.2-35.3,58.8-26.4
			c23.5,8.9,35.3,35.2,26.4,58.8c-1.4,3.6-3.1,6.8-5.2,9.8c2.4-20.3-9-40.4-29-48C495.7,224,473.8,231.4,462.1,248.2z"/>
	</g>
	<g id="left">
		<path id="_x30_2_2_" class="st4" d="M345,253.4c5.1,13.2-1.5,28-14.7,33.1s-28-1.5-33.1-14.7s1.5-28,14.7-33.1
			S339.9,240.2,345,253.4z"/>
		<path id="_x30_1_2_" class="st2" d="M300.1,277.3c-1.2-1.7-2.2-3.5-3-5.5c-5.1-13.2,1.5-28,14.7-33.1c13.2-5.1,28,1.5,33.1,14.7
			c0.8,2,1.2,4,1.5,6.1c-6.6-9.4-19-13.5-30.2-9.2C305.1,254.6,298.7,265.9,300.1,277.3z"/>
	</g>
</g>
<g id="nose">
	<path id="_x30_2_3_" class="st4" d="M427.5,274.4c-1.7,4.4-38.7,5.6-40.2,1.8c-1.5-3.8,13.7-44.8,18.7-42.9
		C409.9,234.8,429.2,270,427.5,274.4z"/>
	<path id="_x30_1_3_" class="st2" d="M427.5,274.4c-0.3,0.7-1.5,1.3-3.3,1.9c-5.2-11.9-15.9-30.3-18.8-31.4
		c-3.5-1.4-12.3,19.2-16.5,32.4c-0.9-0.3-1.5-0.7-1.7-1.1c-1.5-3.8,13.7-44.8,18.7-42.9C409.9,234.8,429.2,270,427.5,274.4z"/>
</g>
<g id="mouth">
	<path id="_x30_2_4_" class="st4" d="M238.6,344.8c2.1-14.9,48-27.5,51.6-26.4c3.6,1,3.6,38.5,8.5,40.3s40.3-6.2,43.3-11.2
		c3-5-7-36.7-2-39.6c5-2.9,102.5-6,104-2.6c1.5,3.3-3.1,41.4,2.6,44.8s33.2,8.7,34.9,2.6s2.9-32,7.5-33.1c4.6-1.1,74.9,9.9,77,17.9
		c2,8-19.3,85.9-36.8,102.5c-8.2,5-3.8-23.6-16-22.9c-12.2,0.8-29.8,13.2-33,20.6c-3.2,7.4,15.5,28.2,12.4,32
		c-3.1,3.9-30.3,30.3-37.3,29.3c-7-1-6.3-37.4-14-37.7c-7.7-0.3-44.2,3.1-47.6,9.9c-3.4,6.8,6.8,40.3-2,40.7
		c-8.7,0.4-61.9-9-70.9-16.2c-9-7.2,20.5-37.4,15.5-45.7c-5-8.2-24.5-30.7-31.9-24c-7.5,6.7-15.1,22.8-25.2,20.9
		C269,445.2,235.3,368,238.6,344.8z"/>
	<path id="_x30_1_4_" class="st2" d="M446.5,349.9c5.7,3.5,33.2,8.7,34.9,2.6c1.7-6,2.9-32,7.5-33.1c4.6-1.1,74.9,9.9,77,17.9
		c0.5,1.9-0.3,7.5-2,15.3c-15.4-7.4-69-15.6-72.9-14.6c-4.6,1.1-5.8,27-7.5,33.1c-1.7,6-29.2,0.9-34.9-2.6c-2.6-1.6-4.1-13.2-4-22.5
		C445.4,340.2,446.2,349.7,446.5,349.9z M336.2,449.9c-6.4,12.2-21.8,40.6-15.5,45.7c1,0.8,2.6,1.7,4.6,2.5
		C331.4,486.9,344.1,469.7,336.2,449.9z M479.3,454.3c0.3,4.1,5.3,12.8,9.2,19.5c2-2,3.4-3.5,4-4.2c1.8-2.2-7.6-25.4-11.9-33
		C479.4,438.1,479.1,450.8,479.3,454.3z M240.5,363.1c2.1-14.9,48-27.5,51.6-26.4c3.6,1,3.6,38.5,8.5,40.3
		c4.9,1.8,40.3-6.2,43.3-11.2c1.4-2.4-0.2-11.2-1.6-19.8c-0.1,0.5-0.2,1-0.4,1.3c-3,5-38.4,13-43.3,11.2c-4.9-1.8-4.9-39.3-8.5-40.3
		c-3.6-1-49.5,11.6-51.6,26.4c-0.7,4.6,0.2,11.4,2,19.3C240.5,363.7,240.5,363.4,240.5,363.1z M341.9,326.2
		c4.6-2.7,87.5-5.5,101.9-3.3c0.3-8.7,0.8-16.4,0.1-17.9c-1.5-3.3-99.1-0.2-104,2.6c-2.7,1.6-0.9,11.9,0.7,21.7
		C340.8,327.8,341.2,326.7,341.9,326.2z"/>
</g>
</svg>
