<svg width="169" height="132" viewBox="0 0 169 132" fill="none" xmlns="http://www.w3.org/2000/svg">
<g id="Frame" clip-path="url(#clip0_189_9958)">
<g id="Group">
<g id="Group_2">
<g id="Group_3">
<path id="Vector" d="M93.1479 67.6645C93.2887 67.6879 93.4296 67.7114 93.5704 67.7466C101.87 69.3196 109.394 73.4398 116.179 78.3348C119.653 80.8351 122.917 83.5819 126.192 86.3287C129.021 88.7116 132.319 89.4042 135.183 91.5993C115.557 92.5618 98.0428 98.572 79.6838 105.181C63.4612 111.038 48.295 115.205 30.7694 114.149C25.7806 113.844 20.7448 113.233 16.0963 111.437C12.1874 109.923 8.78323 107.575 5.33211 105.251C4.05261 104.394 0.906691 101.812 0.953645 100.11C1.03581 97.4216 6.13033 97.0107 7.93806 96.3416C11.5535 95.0034 15.2746 93.4774 18.8431 91.9162C34.9366 84.8849 48.5181 71.0804 66.1023 67.6879C70.8917 66.7606 75.7984 66.7136 80.6816 66.7723C84.8487 66.8193 89.0394 66.9367 93.1479 67.6645Z" fill="url(#paint0_radial_189_9958)"/>
<path id="Vector_2" d="M52.4516 113.163L46.4415 115.64L47.7445 109.278L43.5303 104.324L49.9865 103.596L53.3907 98.0674L56.0788 103.984L62.3941 105.521L57.5931 109.9L58.0861 116.379L52.4516 113.163ZM11.0851 109.689L4.61719 110.369L7.65746 104.629L5.0163 98.6896L11.4138 99.8164L16.25 95.4615L17.1657 101.894L22.7884 105.146L16.9544 107.998L15.6044 114.349L11.0851 109.689ZM80.8236 95.931L74.7665 98.2787L76.1986 91.9399L72.0901 86.9041L78.5581 86.3054L82.0796 80.847L84.6503 86.8219L90.9304 88.4888L86.0472 92.7733L86.4111 99.2647L80.8236 95.931ZM41.793 83.1947L35.3721 82.1735L39.7975 77.4076L38.7762 70.9867L44.669 73.7218L50.4561 70.7754L49.6696 77.2316L54.2711 81.8213L47.9088 83.0891L44.9624 88.8762L41.793 83.1947Z" fill="url(#paint1_radial_189_9958)"/>
<path id="Vector_3" d="M85.1438 97.1631L80.9297 94.6511L76.3517 96.4236L77.4316 91.6343L74.3327 87.831L79.2159 87.3849L81.8805 83.2647L83.8174 87.7723L88.5597 89.0283L84.8738 92.2682L85.1438 97.1631ZM56.4314 109.418L60.0469 106.108L55.2811 104.957L53.2503 100.485L50.6796 104.664L45.8081 105.216L48.9892 108.96L48.0032 113.761L52.546 111.895L56.8188 114.313L56.4314 109.418ZM15.9571 107.223L20.3708 105.063L16.1214 102.61L15.4288 97.75L11.7782 101.037L6.95364 100.18L8.94918 104.664L6.64844 108.996L11.5317 108.479L14.9476 112.001L15.9571 107.223ZM47.1345 82.0674L51.9473 81.1283L48.4727 77.6537L49.0597 72.7822L44.6929 75.0125L40.244 72.9466L41.007 77.7946L37.6616 81.3866L42.5096 82.1496L44.8925 86.4341L47.1345 82.0674Z" fill="url(#paint2_radial_189_9958)"/>
<g id="Group_4">
<path id="Vector_4" d="M4.5 97.0576C4.98128 98.1023 5.7208 99.0062 6.5425 99.7692C6.57772 99.8044 6.57772 99.8514 6.5425 99.8749C6.50728 99.9101 6.46033 99.9101 6.43685 99.8749C5.6269 99.0766 4.92259 98.1258 4.5 97.0576Z" fill="#FFA91F"/>
<path id="Vector_5" d="M9.25507 101.859L12.1427 103.702L12.1545 103.714C12.2367 103.772 12.2601 103.89 12.2132 103.972C12.1545 104.054 12.0488 104.089 11.9549 104.031L9.09073 102.105C9.0203 102.058 9.00856 101.976 9.05552 101.906C9.09073 101.835 9.18464 101.812 9.25507 101.859Z" fill="#FFA91F"/>
<path id="Vector_6" d="M15.1469 105.333L18.2576 106.754L18.2693 106.765C18.3984 106.824 18.4454 106.965 18.3984 107.094C18.3397 107.223 18.1989 107.27 18.0698 107.212L14.9473 105.732C14.8299 105.686 14.783 105.545 14.8417 105.439C14.8886 105.322 15.0295 105.275 15.1351 105.333H15.1469Z" fill="#FFA91F"/>
<path id="Vector_7" d="M21.4509 107.951L24.726 108.925H24.7495C24.8903 108.972 24.9725 109.125 24.9373 109.266C24.8903 109.406 24.7377 109.5 24.5968 109.453L21.2983 108.432C21.1575 108.385 21.087 108.244 21.1223 108.104C21.1692 107.963 21.3101 107.892 21.4509 107.927V107.951Z" fill="#FFA91F"/>
<path id="Vector_8" d="M28.0585 109.677L31.4392 110.228H31.4627C31.6036 110.252 31.7092 110.393 31.6857 110.534C31.6623 110.686 31.5214 110.78 31.3805 110.757L27.9529 110.24C27.8003 110.217 27.6946 110.076 27.7181 109.911C27.7416 109.759 27.8824 109.653 28.0468 109.677H28.0585Z" fill="#FFA91F"/>
<path id="Vector_9" d="M34.845 110.545L38.2609 110.627H38.2727C38.4018 110.627 38.5192 110.744 38.5075 110.874C38.5075 111.014 38.3901 111.108 38.2609 111.108L34.8098 111.061C34.669 111.061 34.5516 110.944 34.5633 110.803C34.5633 110.662 34.6807 110.545 34.8216 110.557H34.845V110.545Z" fill="#FFA91F"/>
<path id="Vector_10" d="M41.6774 110.486L45.0816 110.111H45.0933C45.1872 110.099 45.2694 110.169 45.2694 110.252C45.2811 110.345 45.2107 110.416 45.1285 110.439L41.7126 110.897C41.5952 110.909 41.5013 110.827 41.4778 110.721C41.4661 110.604 41.5365 110.498 41.6539 110.486H41.6774Z" fill="#FFA91F"/>
<path id="Vector_11" d="M48.4477 109.512L51.7697 108.679C51.7932 108.667 51.8166 108.691 51.8284 108.714C51.8284 108.738 51.8166 108.761 51.7932 108.761L48.4946 109.735C48.436 109.759 48.3773 109.724 48.3538 109.665C48.342 109.595 48.3773 109.524 48.4477 109.512C48.436 109.512 48.436 109.512 48.4477 109.512Z" fill="#FFA91F"/>
</g>
<path id="Vector_12" opacity="0.22" d="M109.007 95.7304C113.467 94.5917 117.975 93.6292 122.529 92.9131C124.724 92.5727 133.458 90.2602 135.195 91.5984C132.331 89.4033 129.032 88.7107 126.203 86.3278C122.928 83.581 119.665 80.8342 116.191 78.3339C109.394 73.4389 101.881 69.3187 93.5822 67.7458C93.4413 67.7223 93.3005 67.6988 93.1596 67.6636C89.0511 66.9358 84.8605 66.8184 80.6816 66.7715C75.7984 66.7245 70.8917 66.7715 66.1024 67.6871C48.5181 71.0795 34.9366 84.884 18.8431 91.9153C15.2746 93.4766 11.5535 95.0026 7.93806 96.3408C6.13033 97.0099 1.03582 97.4324 0.953647 100.109C0.906693 101.811 4.04087 104.382 5.32037 105.239C8.85366 107.621 13.9364 112.223 18.4088 112.176C15.0046 112.622 13.7251 107.798 15.1455 105.45C16.5776 103.079 18.7844 100.743 20.4161 98.4302C22.4116 95.613 25.2758 93.4531 28.1165 91.5632C34.8427 87.1026 41.6158 83.4988 49.6567 82.6067C50.8423 82.4776 52.2744 82.5245 52.9435 83.5106C53.4835 84.2971 53.2839 85.4239 52.7322 86.1987C52.1805 86.9852 51.3353 87.5017 50.5136 87.9947C46.9216 90.1546 43.0831 92.4436 41.2285 96.1999C40.5711 97.5264 40.3833 99.4632 41.6745 100.179C42.9305 100.884 44.4096 99.8154 45.4543 98.8176C47.0508 97.2798 48.6589 95.7538 50.2554 94.2161C52.5092 92.0562 54.7982 89.8728 57.545 88.3938C59.5171 87.3373 62.0643 86.7034 63.9073 87.9712C65.985 89.3916 66.1141 92.4788 65.2807 94.8617C63.5316 99.921 58.6954 103.008 54.3404 105.614C50.0558 108.173 41.3576 113.808 36.1692 113.303C42.6019 113.913 49.0346 112.516 55.3499 111.131C65.0459 108.995 75.2466 107.539 84.7548 104.663C88.2999 103.595 91.3988 101.388 94.9556 100.121C99.5806 98.4654 104.252 96.9512 109.007 95.7304Z" fill="url(#paint3_radial_189_9958)"/>
<path id="Vector_13" opacity="0.22" d="M103.267 83.9459C105.65 82.7838 107.998 81.516 109.876 79.6613C110.827 78.7222 111.672 77.5367 111.648 76.1985C111.554 71.9139 96.9516 68.3806 93.5709 67.7467C93.43 67.7233 93.2892 67.6998 93.1483 67.6646C89.0398 66.9368 84.8492 66.8194 80.6703 66.7724C75.7871 66.7255 70.8804 66.7724 66.0911 67.688C54.2234 69.9771 42.1445 77.0788 32.8711 84.6502C37.6604 82.4199 42.8136 80.9995 48.0607 80.4361C50.608 80.1661 53.7422 80.4243 54.8925 82.7133C55.9138 84.7676 54.5991 87.3031 52.7444 88.653C50.9014 90.0029 48.6124 90.5899 46.5934 91.6698C44.5744 92.738 42.661 94.6162 42.7197 96.9052C46.253 96.2831 48.5655 93.008 51.3945 90.8012C55.409 87.6552 60.9731 86.5988 65.868 88.0426C66.7484 88.3009 67.6288 88.653 68.2744 89.2986C70.3404 91.3529 69.014 94.8157 69.4131 97.7034C69.4952 98.3021 69.7065 98.9594 70.2465 99.2177C70.8334 99.5111 71.526 99.2177 72.1129 98.9359C82.1493 94.0997 92.1858 89.2752 102.222 84.4389C102.574 84.2863 102.926 84.122 103.267 83.9459Z" fill="url(#paint4_radial_189_9958)"/>
<path id="Vector_14" opacity="0.22" d="M31.0745 86.4579C25.1935 89.9912 18.8782 92.8084 12.3164 94.8392C17.54 93.2193 22.5289 91.1651 27.4356 88.7352C35.23 84.885 43.5878 77.161 52.7673 77.6892C55.3146 77.8418 57.7444 78.6753 60.186 79.3913C65.4801 80.9526 70.915 82.0208 76.4086 82.549C78.639 82.7603 81.5736 83.6172 81.4797 85.8592C81.4445 86.6575 80.9749 87.3735 80.5054 88.0191C76.3617 93.7006 70.6216 96.2713 65.6914 100.885C60.5147 105.733 54.9154 109.454 48.694 112.975C50.4196 112.001 54.1642 112.236 56.1597 111.942C58.8596 111.543 61.5594 111.109 64.2358 110.604C69.5534 109.595 74.8357 108.315 79.9185 106.437C84.3439 104.805 88.3702 102.387 92.8073 100.92C98.207 99.1355 103.478 97.14 108.995 95.7313C113.455 94.5927 117.963 93.6301 122.517 92.9141C124.713 92.5737 133.446 90.2612 135.183 91.5994C132.319 89.4043 129.021 88.7117 126.192 86.3288C122.917 83.582 119.653 80.8352 116.179 78.3349C109.382 73.4399 101.869 69.3197 93.5703 67.7467C93.4295 67.7233 93.2886 67.6998 93.1478 67.6646C89.0393 66.9368 84.8486 66.8194 80.6697 66.7724C75.7865 66.7255 70.8798 66.7724 66.0905 67.688C56.1715 69.6014 47.438 74.8955 39.0332 80.2482C34.7839 82.9598 30.5698 85.7301 26.1796 88.2069C21.5311 90.8129 18.2561 91.975 13.0794 93.2897C14.8637 93.3249 16.6597 92.8437 18.1974 91.9281L31.0745 86.4579Z" fill="url(#paint5_radial_189_9958)"/>
</g>
<path id="Vector_15" opacity="0.59" d="M46.2882 111.696C40.5363 113.351 34.6788 114.102 28.5513 113.55C21.6138 112.928 13.8312 112.247 8.46671 107.399C6.82332 105.92 3.24308 103.995 2.52703 101.824C1.44709 98.5368 4.27607 98.4194 6.3303 100.438C17.9514 111.837 36.3574 115.699 51.5822 109.935C49.8332 110.592 48.0724 111.191 46.2882 111.696Z" fill="url(#paint6_radial_189_9958)"/>
</g>
<path id="Vector_16" opacity="0.22" d="M125.489 68.8618C126.486 70.6109 127.414 72.3951 128.259 74.2263C128.458 74.6724 128.658 75.1537 128.552 75.6232C128.235 76.9145 125.371 79.8139 124.315 80.8821C122.26 82.9598 119.349 83.6758 116.814 84.9436C111.79 86.9744 106.437 88.113 101.119 89.2047C92.1746 91.0476 83.6173 91.5289 74.5669 90.2024C68.592 89.3338 62.7462 87.7726 57.1117 85.6127C52.522 83.8519 49.7399 80.9995 45.878 78.0061C45.7841 77.9357 45.6901 77.8535 45.6549 77.7362C45.6197 77.6188 45.6549 77.4896 45.7019 77.3723C47.674 71.8669 51.7824 67.6528 53.6606 62.1709C52.4515 65.5868 61.4197 69.6718 63.5327 70.5522C68.9089 72.7825 74.4847 74.4376 80.2366 75.4002C93.9354 77.7009 110.088 73.1347 122.096 66.7137C122.401 66.5494 122.73 66.3733 123.07 66.3615C123.88 66.3263 124.456 67.1011 124.878 67.7936C125.078 68.1575 125.289 68.5097 125.489 68.8618Z" fill="url(#paint7_radial_189_9958)"/>
<g id="Group_5">
<g id="Group_6">
<path id="Vector_17" d="M50.1758 73.7216C59.7192 79.6495 73.5237 81.3281 84.5344 80.9642C88.8072 80.8234 93.0565 80.3069 97.2941 79.7904C103.269 79.0743 109.244 78.3465 115.207 77.6305C118.553 77.2314 124.07 76.4919 123.647 73.1464C120.712 50.1506 106.145 30.5239 106.615 23.8329C109.678 24.056 112.73 21.8726 112.46 18.4097C112.214 15.346 109.89 12.8809 107.589 10.8384C103.269 6.9999 96.2494 0.250261 89.9576 0.531985C84.7809 0.766755 79.3225 7.62204 76.294 11.2845C69.3565 19.654 65.8584 28.8335 62.3251 38.8347C60.1066 45.1148 57.888 51.4067 55.6694 57.6868C54.3899 61.3492 50.3519 72.3951 50.1758 73.7216Z" fill="url(#paint8_radial_189_9958)"/>
<path id="Vector_18" d="M114.478 72.7118L109.536 68.486L115.804 66.7487L118.293 60.7386L121.885 66.1617L128.365 66.6782L124.327 71.7728L125.841 78.0881L119.749 75.8108L114.208 79.2032L114.478 72.7118ZM81.1054 72.4301L75.0953 74.9069L76.3983 68.5329L72.1841 63.5793L78.6403 62.8515L82.0445 57.3227L84.7326 63.2389L91.0479 64.7766L86.2586 69.1668L86.7516 75.6465L81.1054 72.4301ZM97.1637 46.8519L92.2218 42.626L98.4784 40.8887L100.967 34.8904L104.559 40.3018L111.039 40.8183L107.001 45.9128L108.515 52.2281L102.423 49.9509L96.8819 53.3433L97.1637 46.8519ZM65.5988 45.8541L59.3187 47.5093L61.4551 41.37L57.9336 35.9116L64.4367 36.0407L68.5452 31.0049L70.4234 37.2263L76.4804 39.5858L71.1511 43.2951L70.7873 49.7865L65.5988 45.8541ZM81.5162 21.7902L76.5743 17.5643L82.831 15.827L85.3195 9.81692L88.9115 15.2284L95.3912 15.7449L91.3531 20.8394L92.8674 27.1547L86.7751 24.8774L81.2345 28.2698L81.5162 21.7902ZM107.376 17.4117L102.434 13.1859L108.703 11.4486L111.191 5.4502L114.783 10.8616L121.263 11.3781L117.225 16.4609L118.739 22.788L112.647 20.5107L107.106 23.9031L107.376 17.4117Z" fill="url(#paint9_radial_189_9958)"/>
<path id="Vector_19" d="M69.7546 47.5683L65.8457 44.6102L61.1033 45.8544L62.7115 41.2177L60.0586 37.0858L64.9653 37.1797L68.0643 33.3764L69.4846 38.0718L74.0626 39.8443L70.0363 42.6498L69.7546 47.5683ZM90.1092 20.5697L93.1612 16.7312L88.2662 16.3438L85.5546 12.2471L83.6765 16.7782L78.9459 18.0929L82.667 21.2857L82.4557 26.1924L86.6463 23.6334L91.2478 25.3473L90.1092 20.5697ZM115.969 16.1912L119.021 12.3527L114.126 11.9654L111.415 7.88037L109.536 12.4114L104.806 13.7261L108.539 16.919L108.327 21.8257L112.518 19.2667L117.119 20.9805L115.969 16.1912ZM85.0734 68.6858L88.6888 65.3756L83.923 64.2135L81.8922 59.7411L79.3215 63.92L74.45 64.4717L77.6311 68.2163L76.6451 73.0291L81.1879 71.1627L85.4607 73.5808L85.0734 68.6858ZM105.768 45.6314L108.82 41.7929L103.925 41.4055L101.214 37.3088L99.3356 41.8399L94.605 43.1546L98.3379 46.3475L98.1266 51.2424L102.317 48.6834L106.919 50.3972L105.768 45.6314ZM123.071 71.4913L126.123 67.6528L121.228 67.2655L118.516 63.1805L116.638 67.7115L111.908 69.0263L115.64 72.2191L115.429 77.1258L119.62 74.5668L124.221 76.2806L123.071 71.4913Z" fill="url(#paint10_radial_189_9958)"/>
<path id="Vector_20" opacity="0.22" d="M50.176 73.7211C50.1291 74.1084 56.597 76.6909 57.1487 77.1487C56.6674 75.0358 56.8318 72.8289 57.0548 70.669C58.6982 54.7282 63.1588 38.5525 70.8475 24.478C73.3244 19.9352 75.5312 15.1577 78.8415 11.1431C81.06 8.45497 86.718 2.21008 90.4626 3.87695C92.552 4.80429 93.8315 6.90549 94.9115 8.92451C98.5974 15.815 101.626 23.3394 103.258 31.0046C104.948 38.9516 104.924 47.5325 105.605 55.6438C105.922 59.3883 106.227 63.2386 105.136 66.8423C103.293 72.9581 97.8344 77.1839 92.646 80.9285C93.2094 80.5294 99.5482 81.7971 100.804 81.8676C103.809 82.0319 106.697 82.2315 109.655 81.3628C112.789 80.4472 124.152 77.3013 123.624 73.1576C120.689 50.1619 106.122 30.5351 106.591 23.8442C109.655 24.0672 112.707 21.8838 112.437 18.421C112.191 15.3572 109.866 12.8921 107.566 10.8496C103.246 7.01113 96.2262 0.261491 89.9344 0.543215C84.7577 0.777986 79.2993 7.63327 76.2707 11.2957C69.3333 19.6652 65.8352 28.8448 62.3019 38.846C60.0833 45.1261 57.8648 51.4179 55.6462 57.698C54.3902 61.3487 50.3521 72.3946 50.176 73.7211Z" fill="url(#paint11_radial_189_9958)"/>
<path id="Vector_21" opacity="0.22" d="M58.521 77.9593C56.7015 76.3159 55.7507 73.8861 55.4573 71.4562C55.1755 69.0263 55.4925 66.5612 55.8799 64.1431C56.4668 60.4337 57.2063 56.7478 58.0867 53.0972C55.1873 59.3773 51.0905 66.7608 50.1749 73.7217C49.9989 75.0012 57.4763 77.2081 58.521 77.9593Z" fill="url(#paint12_radial_189_9958)"/>
<path id="Vector_22" opacity="0.22" d="M123.376 73.0878C123.446 72.7239 123.482 72.3483 123.47 71.9609C123.282 64.9647 120.03 57.1938 117.471 50.7846C115.241 45.2088 112.6 39.8209 110.1 34.3625C108.691 31.287 106.355 27.3546 106.602 23.8448C109.665 24.0678 112.717 21.8844 112.447 18.4216C112.201 15.3578 109.877 12.8927 107.576 10.8502C101.859 5.76746 93.7245 -2.74296 85.6719 2.23417C87.5148 1.09554 89.9916 1.52986 91.8111 2.71545C93.6188 3.90104 94.9101 5.72051 96.1544 7.49302C102.528 16.5904 106.132 26.6033 109.266 37.2736C112.013 46.6057 113.715 57.6869 108.233 66.3968C104.383 72.4891 96.0135 74.8133 92.8089 81.2695C98.0795 81.786 103.409 82.2673 108.644 81.516C113.269 80.8352 122.319 78.1706 123.376 73.0878Z" fill="url(#paint13_radial_189_9958)"/>
</g>
<g id="Vector_23" style="mix-blend-mode:screen" opacity="0.59">
<path d="M76.5739 17.5646C72.5945 25.2885 70.4229 30.5239 66.8661 38.3417C63.0746 46.6761 61.6073 58.8254 61.0555 67.9697C60.9147 70.2587 60.9147 72.6886 62.0768 74.6607C64.0841 78.0648 68.6151 78.8044 72.5475 79.0039C75.8226 79.1683 79.1094 79.2152 82.3962 79.1448C86.3403 79.0509 90.5779 78.6635 93.5947 76.128C96.9754 73.2873 97.9145 68.5332 98.3957 64.143C99.4639 54.3061 99.194 44.3401 97.6445 34.5619C96.8463 29.5731 96.0715 23.3047 94.6042 18.4567C93.6534 15.2873 92.55 7.21123 89.1927 5.67349C84.2861 3.43143 78.2877 14.2426 76.5739 17.5646Z" fill="url(#paint14_radial_189_9958)"/>
</g>
</g>
<g id="Group_7">
<path id="Vector_24" d="M125.771 66.8069C126.769 68.5559 127.696 70.3402 128.541 72.1714C128.741 72.6057 128.952 73.0987 128.835 73.5683C128.518 74.8595 125.654 77.7589 124.597 78.8271C122.543 80.8931 119.632 81.6209 117.096 82.9004C112.072 84.9311 106.731 86.0698 101.402 87.1614C92.4572 89.0044 83.8998 89.4739 74.8494 88.1592C68.8745 87.2788 63.0288 85.7176 57.3943 83.5695C54.8235 82.5834 52.2645 81.6326 50.0577 80.001C46.6183 77.4654 44.0359 77.1015 46.5479 72.5587C47.7452 70.3871 49.2243 68.4033 50.6094 66.3491C51.3137 65.2926 52.0063 64.2244 52.605 63.1092C52.828 62.7101 52.9336 61.9706 53.1449 61.6654C53.4736 61.1607 54.0488 60.9024 54.5888 60.5737C54.2131 62.1232 54.3305 62.5341 55.4926 63.6257C56.4082 64.4827 57.4647 65.187 58.5212 65.8443C59.5189 66.4547 60.5637 67.0064 61.6201 67.5229C62.1601 67.7929 63.1931 68.5207 63.8152 68.5207C69.1915 70.751 74.7673 72.4061 80.5191 73.3687C94.218 75.6694 110.37 71.1032 122.379 64.6822C122.684 64.5179 123.013 64.3418 123.365 64.3301C124.175 64.2948 124.75 65.0696 125.172 65.7622C125.348 66.0908 125.56 66.443 125.771 66.8069Z" fill="url(#paint15_radial_189_9958)"/>
<path id="Vector_25" opacity="0.59" d="M128.542 72.1721C127.697 70.3409 126.782 68.5567 125.772 66.8076C125.572 66.4437 125.361 66.0916 125.15 65.7394C124.739 65.0469 124.152 64.2721 123.342 64.3073C122.99 64.3191 122.673 64.4951 122.356 64.6595C110.348 71.0804 94.1954 75.6585 80.4966 73.346C74.7447 72.3717 69.1689 70.7283 63.7927 68.498C61.6797 67.6293 52.7115 63.5443 53.9206 60.1284C53.498 61.3023 52.958 62.4292 52.3594 63.4974C53.7563 66.4555 60.3063 69.4253 62.0789 70.1648C67.4551 72.3952 73.0309 74.0503 78.7828 75.0128C92.4816 77.3253 108.634 72.7473 120.642 66.3264C120.947 66.162 121.276 65.9859 121.628 65.9742C122.438 65.939 123.013 66.7137 123.424 67.4063C123.636 67.7584 123.847 68.1106 124.058 68.4745C125.056 70.2235 125.983 72.0078 126.828 73.839C127.028 74.2733 127.228 74.7663 127.122 75.2359C126.875 76.2219 125.15 78.147 123.87 79.4852C124.117 79.2857 124.363 79.0744 124.598 78.8396C125.655 77.7714 128.519 74.872 128.836 73.5807C128.941 73.0877 128.742 72.6065 128.542 72.1721Z" fill="url(#paint16_radial_189_9958)"/>
<path id="Vector_26" opacity="0.12" d="M58.3216 65.7042C55.6687 64.0726 53.2741 61.9949 53.9314 60.1167C52.2998 64.7065 48.8721 68.3336 46.5362 72.536C44.0241 77.0788 46.6066 77.4427 50.046 79.9782C51.1377 80.7765 52.2998 81.4221 53.5206 81.9738C52.6871 76.0693 53.0628 68.451 58.3216 65.7042Z" fill="url(#paint17_radial_189_9958)"/>
<path id="Vector_27" opacity="0.23" d="M128.54 72.1721C127.695 70.3409 126.779 68.5567 125.77 66.8076C125.57 66.4437 125.359 66.0916 125.147 65.7394C124.737 65.0468 124.15 64.2721 123.34 64.3073C122.988 64.319 122.671 64.4951 122.354 64.6595C111.108 70.6696 96.2355 75.0598 83.1354 73.7099C83.8514 79.2387 81.1985 84.4741 76.9844 88.4299C85.2365 89.3808 93.16 88.8525 101.389 87.1504C106.706 86.0588 112.059 84.9201 117.083 82.8894C119.63 81.6216 122.542 80.8938 124.584 78.8161C125.64 77.7479 128.505 74.8485 128.822 73.5573C128.939 73.0877 128.739 72.6064 128.54 72.1721Z" fill="url(#paint18_radial_189_9958)"/>
<path id="Vector_28" opacity="0.23" d="M128.542 72.1721C127.697 70.3409 126.782 68.5566 125.772 66.8076C125.573 66.4437 125.361 66.0916 125.15 65.7394C124.739 65.0468 124.152 64.2721 123.342 64.3073C122.99 64.319 122.673 64.4951 122.356 64.6595C117.074 67.4884 111.451 69.7422 105.676 71.3504C100.03 72.9351 93.9607 73.522 88.1384 73.522C88.9718 73.7451 88.8662 74.9424 88.5727 75.7523C86.9411 80.2482 84.8986 84.7088 82.4922 88.7938C88.6901 89.4042 95.3106 88.4065 101.379 87.1504C106.697 86.0588 112.05 84.9201 117.074 82.8894C119.621 81.6216 122.532 80.8938 124.575 78.8161C125.631 77.7479 128.495 74.8485 128.812 73.5573C128.941 73.0877 128.742 72.6064 128.542 72.1721Z" fill="url(#paint19_radial_189_9958)"/>
<g id="Group_8">
<path id="Vector_29" opacity="0.23" d="M54.7999 62.9569C54.5299 62.6987 54.4242 62.2996 54.4008 61.9357C54.3773 61.5131 54.4947 61.1022 54.6121 60.7031C54.166 60.9379 53.7434 61.2196 53.3443 61.5248C52.91 61.8652 52.9804 62.1587 52.8278 62.6282C52.6635 63.1447 52.2761 63.6612 51.9944 64.119C51.4074 65.0933 50.7736 66.0441 50.1397 66.995C48.8954 68.8144 47.5924 70.6222 46.5242 72.559C44.5991 76.0336 45.6673 77.0666 47.8155 78.4987C47.792 78.4752 47.8507 78.1465 47.8507 78.0996C48.1559 75.2119 48.8602 72.336 49.9988 69.6713C50.5623 68.3449 51.2431 67.0537 52.0765 65.8798C52.4757 65.3164 52.91 64.7881 53.3913 64.2834C53.8138 63.8256 54.4829 63.4382 54.7999 62.9569Z" fill="url(#paint20_radial_189_9958)"/>
<path id="Vector_30" opacity="0.23" d="M128.541 72.1726C127.696 70.3414 126.78 68.5571 125.771 66.8081C125.571 66.4442 125.36 66.0921 125.148 65.7399C124.738 65.0473 124.151 64.2726 123.341 64.3078C122.989 64.3195 122.672 64.4956 122.355 64.66C116.908 67.5711 110.616 70.0949 104.09 71.7735C96.2365 76.2341 89.9446 82.6903 83.3945 88.8765C89.3929 89.0173 95.3091 88.4069 101.39 87.1509C106.707 86.0592 112.06 84.9206 117.084 82.8898C119.631 81.6221 122.542 80.8943 124.585 78.8166C125.641 77.7484 128.506 74.849 128.823 73.5577C128.94 73.0882 128.74 72.6069 128.541 72.1726Z" fill="url(#paint21_radial_189_9958)"/>
</g>
</g>
<g id="Group_9">
<g id="Group_10">
<path id="Vector_31" d="M117.774 73.3696C121.542 72.8414 125.134 71.3506 128.667 69.9772C131.426 68.909 134.231 67.8642 136.907 66.6082C139.643 65.317 142.166 63.3449 143.458 60.7272C144.854 57.8983 144.702 54.6702 144.162 51.6768C142.8 44.0703 136.767 26.9908 125.251 30.5475C123.901 30.9584 122.575 31.7214 121.342 32.8952C118.325 35.736 117.093 39.7857 116.342 43.6829C115.778 46.6058 115.426 49.5757 115.285 52.5455C115.109 56.3253 115.262 60.1286 115.766 63.8849C116.013 65.6926 116.318 67.5003 116.741 69.2729C116.964 70.2237 117.187 71.9258 117.891 72.6536C118.842 73.6278 119.018 72.1605 119.347 71.2684C120.591 67.9229 121.542 64.6009 122.575 61.1733C123.432 58.3326 124.359 55.4919 125.779 52.8976C127.211 50.3034 129.184 47.9323 131.743 46.4532C132.764 45.8663 134.172 45.7254 135.276 46.2302C136.99 47.0284 136.262 49.3174 135.757 50.6321C134.806 53.0737 133.738 55.5153 132.177 57.64C130.639 59.7295 128.726 61.5254 127 63.4623C125.556 65.0705 124.159 66.6904 122.622 68.2399C121.788 69.085 120.955 69.9185 120.133 70.7754C119.722 71.198 118.325 73.2992 117.774 73.3696Z" fill="url(#paint22_radial_189_9958)"/>
<path id="Vector_32" opacity="0.23" d="M119.98 50.3386C119.898 50.2095 119.816 50.0686 119.734 49.9395C119.417 49.4347 119.029 48.9065 118.431 48.7187C117.703 48.4956 116.858 48.883 116.353 49.4699C115.836 50.0451 115.578 50.7729 115.332 51.489C115.449 50.9725 115.414 50.4442 115.25 49.9512C115.003 54.1184 115.109 58.309 115.59 62.4645C115.836 64.5304 116.165 66.5847 116.611 68.6272C116.94 70.118 116.987 72.8178 118.842 73.1348C118.982 73.1582 119.135 73.17 119.252 73.0761C119.37 72.9822 119.393 72.8061 119.405 72.6535C119.722 69.4841 120.954 66.5025 121.788 63.427C123.091 58.6612 122.48 54.5175 119.98 50.3386Z" fill="url(#paint23_radial_189_9958)"/>
<path id="Vector_33" opacity="0.23" d="M127.222 70.5524C130.602 69.4255 133.913 67.9934 136.953 66.1035C139.289 64.6479 143.033 62.488 143.456 59.5064C143.644 58.18 143.35 56.8418 142.939 55.5623C141.801 52.076 139.641 48.1788 136.096 46.688C136.612 47.4979 136.659 48.5427 136.425 49.4817C136.19 50.4208 135.72 51.2777 135.251 52.1112C134.241 53.9189 133.326 55.8323 132.21 57.5696C131.318 58.9547 129.734 59.9877 128.982 61.4785C126.247 64.8005 123.395 68.0286 120.437 71.1628C120.155 71.4562 118.629 72.7357 118.84 73.0879C119.146 73.6044 120.718 72.8296 121.024 72.7123C123.078 71.961 125.144 71.2449 127.222 70.5524Z" fill="url(#paint24_radial_189_9958)"/>
<path id="Vector_34" opacity="0.23" d="M138.655 64.0726C139.031 63.6969 139.383 63.2978 139.7 62.8987C143.985 57.4403 140.663 51.1719 136.249 47.0752C136.695 47.9086 136.402 48.9299 136.073 49.822C135.31 51.9115 134.43 53.954 133.314 55.8673C129.441 62.5113 122.914 67.1598 118.277 73.299C121.329 72.5595 124.252 71.5382 127.222 70.5405C131.061 69.261 135.697 67.0541 138.655 64.0726Z" fill="url(#paint25_radial_189_9958)"/>
<path id="Vector_35" opacity="0.23" d="M138.774 64.3311C139.725 63.6737 140.453 62.7346 141.052 61.7603C142.249 59.8117 143.071 57.464 142.531 55.2454C142.249 54.0599 141.603 53.0034 140.946 51.9821C140.406 51.1252 139.843 50.2801 139.185 49.5053C138.422 48.6249 137.53 47.8502 136.544 47.2163C137.014 49.3997 136.004 51.6183 134.889 53.5551C134.361 54.4707 133.809 55.3746 133.222 56.255C134.478 57.464 134.642 59.0957 134.408 60.7508C134.149 62.5468 133.293 64.2254 131.966 65.4697C131.027 66.3501 129.888 67.0309 128.762 67.7C126.484 69.0499 124.195 70.4116 121.918 71.7615C124.489 70.2355 127.388 69.3082 130.158 68.2282C131.661 67.6413 133.152 67.0309 134.584 66.3031C135.276 65.951 135.934 65.5166 136.626 65.1762C137.225 64.8828 137.859 64.8828 138.446 64.5423C138.563 64.4719 138.669 64.4015 138.774 64.3311Z" fill="url(#paint26_radial_189_9958)"/>
<path id="Vector_36" opacity="0.23" d="M140.967 56.3371C140.944 54.2007 140.298 52.0526 139.112 50.327C138.725 49.7636 138.279 49.2353 137.868 48.6719C137.293 47.8972 136.741 47.0402 135.861 46.6294C136.542 47.5333 136.647 48.7658 136.389 49.8692C136.131 50.9726 135.544 51.9587 134.945 52.9212C135.884 53.5551 136.73 54.0951 137.493 54.9872C138.76 56.4545 139.723 58.1566 140.322 59.9878C140.779 58.8257 140.979 57.5814 140.967 56.3371Z" fill="url(#paint27_radial_189_9958)"/>
<path id="Vector_37" opacity="0.59" d="M121.646 49.5523C122.937 51.6183 123.301 54.189 123.407 56.6541C123.336 55.0928 124.886 52.8038 125.731 51.5713C126.858 49.9279 128.278 48.4841 129.91 47.3454C131.307 46.3711 132.962 45.0447 134.699 45.526C136.753 46.0777 138.655 47.4159 140.099 48.9536C141.977 50.9609 143.221 53.4964 143.973 56.1376C144.301 54.0012 143.773 51.8413 143.233 49.7518C142.294 46.1364 141.249 42.427 139.136 39.2928C137.094 36.2525 135.697 33.2944 132.351 31.3341C129.64 29.7377 126.564 29.679 123.7 31.3576C117.89 34.7618 116.364 41.4997 116.199 47.7211C116.821 47.0285 117.878 46.8407 118.77 47.0872C119.662 47.3337 120.413 47.9558 121 48.6719C121.247 48.9536 121.446 49.2471 121.646 49.5523Z" fill="url(#paint28_radial_189_9958)"/>
<g id="Vector_38" style="mix-blend-mode:screen" opacity="0.59">
<path d="M128.008 31.4868C127.691 33.0246 128.266 34.7619 129.276 36.0296C130.555 37.6378 132.375 38.6825 134.077 39.8212C137.352 42.0045 140.392 44.6809 142.376 48.0851C144.348 51.4892 145.17 55.7034 143.926 59.4362C143.526 55.7621 142.963 51.8296 140.427 49.1415C139.383 48.0264 138.056 47.2047 136.659 46.606C136.061 46.3478 135.439 46.1247 134.781 46.0308C133.197 45.8195 131.612 46.4652 130.274 47.3338C126.611 49.7285 124.357 53.8252 123.16 58.0393C123.853 54.9521 124.534 51.8531 125.226 48.7659C125.578 47.1929 125.93 45.5965 125.919 43.9766C125.907 42.3567 125.496 40.7015 124.475 39.4455C123.454 38.2012 121.728 37.45 120.167 37.8491C118.77 38.2012 117.713 39.3868 117.138 40.7015C116.563 42.0163 116.399 43.4718 116.234 44.9039C116.434 41.3941 117.631 37.7669 119.639 34.8675C120.648 33.4237 121.904 32.1207 123.454 31.2755C124.193 30.8764 124.991 30.5712 125.813 30.4186C126.118 30.3599 128.419 30.3951 128.466 30.3247C128.243 30.6769 128.102 31.076 128.008 31.4868Z" fill="url(#paint29_radial_189_9958)"/>
</g>
</g>
<path id="Vector_39" d="M122.55 55.809C123.137 53.7899 123.782 51.7357 125.027 50.0454C126.048 48.6485 127.445 47.5568 128.865 46.5708C130.556 45.3969 132.387 44.3287 134.406 43.9648C136.425 43.6009 138.702 44.0822 140.087 45.5965C140.979 46.5825 141.414 47.8855 141.813 49.1532C142.576 51.5362 143.292 53.9778 143.362 56.4781C143.444 58.9784 142.822 61.5961 141.179 63.486C139.923 64.9298 138.186 65.8454 136.472 66.6906C130.802 69.5078 124.921 72.0081 118.688 73.1467C123.829 72.0081 128.83 70.2121 133.502 67.794C137.082 65.9393 140.721 63.4507 142.012 59.624C143.726 54.5295 139.536 44.4578 132.915 46.5238C127.961 48.0733 124.815 52.9683 123.113 57.8632C121.411 62.7582 120.695 68.0053 118.441 72.6772C119.627 66.9958 120.906 61.3965 122.55 55.809Z" fill="url(#paint30_radial_189_9958)"/>
</g>
<g id="Group_11">
<g id="Group_12">
<path id="Vector_40" d="M118.375 74.7309C121.85 76.2921 125.676 76.9377 129.409 77.6538C132.309 78.2172 135.243 78.8276 138.178 79.1798C141.183 79.5437 144.364 79.215 146.853 77.689C149.541 76.0456 151.125 73.2283 152.264 70.4111C155.152 63.2506 159.143 45.5724 147.51 42.4617C146.148 42.0978 144.622 42.0274 142.955 42.3561C138.894 43.1543 135.689 45.9363 132.978 48.824C130.947 51.0074 129.069 53.3198 127.367 55.7615C125.195 58.8604 123.317 62.1707 121.744 65.6101C120.993 67.2769 120.288 68.9673 119.701 70.6928C119.385 71.6202 118.657 73.1814 118.868 74.1792C119.15 75.5056 120.089 74.3552 120.84 73.7801C123.681 71.6202 126.252 69.3077 128.94 66.96C131.182 65.0114 133.471 63.098 136.065 61.6659C138.659 60.2221 141.582 59.2713 144.552 59.3769C145.726 59.4239 146.993 60.046 147.663 61.0673C148.696 62.652 146.864 64.2014 145.726 65.0466C143.625 66.6078 141.418 68.0986 138.964 69.0729C136.546 70.0237 133.975 70.5285 131.487 71.2445C129.409 71.8315 127.367 72.4653 125.242 72.9584C124.092 73.2166 122.93 73.4866 121.791 73.7683C121.192 73.9327 118.88 74.9656 118.375 74.7309Z" fill="url(#paint31_radial_189_9958)"/>
<path id="Vector_41" opacity="0.23" d="M132.507 56.4071C132.507 56.2545 132.507 56.0902 132.507 55.9376C132.507 55.3389 132.46 54.6816 132.049 54.212C131.544 53.6369 130.628 53.5195 129.889 53.7308C129.149 53.9421 128.539 54.4233 127.952 54.8929C128.316 54.5172 128.574 54.0594 128.703 53.5547C126.273 56.9471 124.125 60.5626 122.329 64.3306C121.437 66.2088 120.627 68.1339 119.911 70.0942C119.383 71.5381 117.998 73.8388 119.395 75.0948C119.5 75.1888 119.629 75.2827 119.77 75.2592C119.923 75.2474 120.029 75.1066 120.123 74.9892C122.071 72.4772 124.712 70.599 127.048 68.4509C130.711 65.1054 132.401 61.2904 132.507 56.4071Z" fill="url(#paint32_radial_189_9958)"/>
<path id="Vector_42" opacity="0.23" d="M127.87 77.3722C131.345 78.2174 134.901 78.7691 138.47 78.7808C141.228 78.7926 145.536 78.9569 147.485 76.6562C148.342 75.6349 148.823 74.3437 149.14 73.0525C150.032 69.4957 150.279 65.0351 148.072 61.9009C148.072 62.8634 147.555 63.7673 146.863 64.4364C146.17 65.1055 145.313 65.575 144.468 66.0446C142.649 67.0423 140.864 68.1692 138.986 69.0496C137.496 69.7422 135.606 69.7774 134.174 70.6343C130.089 71.9843 125.957 73.2051 121.789 74.285C121.39 74.3906 119.43 74.6489 119.418 75.0597C119.395 75.6701 121.144 75.8462 121.461 75.9049C123.609 76.3627 125.745 76.8557 127.87 77.3722Z" fill="url(#paint33_radial_189_9958)"/>
<path id="Vector_43" opacity="0.23" d="M141.006 77.9712C141.523 77.8538 142.027 77.7012 142.52 77.5251C149.047 75.1774 149.575 68.1109 148.014 62.3003C147.955 63.2394 147.157 63.9554 146.406 64.5306C144.657 65.8923 142.826 67.16 140.853 68.1813C134.033 71.7498 126.039 72.2076 118.844 74.9309C121.814 75.9287 124.83 76.6213 127.882 77.3608C131.815 78.3351 136.909 78.9338 141.006 77.9712Z" fill="url(#paint34_radial_189_9958)"/>
<path id="Vector_44" opacity="0.23" d="M140.96 78.2647C142.111 78.2177 143.238 77.7951 144.259 77.3021C146.313 76.2926 148.25 74.7431 148.978 72.5715C149.365 71.4211 149.389 70.1768 149.377 68.956C149.377 67.9465 149.353 66.9253 149.201 65.9275C149.025 64.7771 148.684 63.6385 148.191 62.5938C147.428 64.6949 145.386 66.0331 143.414 67.0779C142.475 67.5709 141.536 68.0404 140.573 68.4747C140.996 70.1651 140.268 71.6441 139.188 72.9119C138.014 74.297 136.394 75.2596 134.61 75.6118C133.342 75.8583 132.016 75.8231 130.713 75.7878C128.06 75.7174 125.407 75.6587 122.754 75.5883C125.735 75.6704 128.694 76.4217 131.605 76.9852C133.189 77.2904 134.774 77.5604 136.382 77.713C137.157 77.7834 137.944 77.7599 138.707 77.8421C139.364 77.9008 139.904 78.2529 140.585 78.2764C140.714 78.2647 140.843 78.2647 140.96 78.2647Z" fill="url(#paint35_radial_189_9958)"/>
<path id="Vector_45" opacity="0.23" d="M147.076 72.6536C148.191 70.8342 148.79 68.6743 148.707 66.5848C148.684 65.904 148.59 65.2114 148.531 64.5306C148.461 63.568 148.449 62.5468 147.921 61.7368C148.027 62.8637 147.451 63.9671 146.653 64.7536C145.843 65.5518 144.822 66.0683 143.801 66.5613C144.259 67.5943 144.693 68.5099 144.857 69.6603C145.151 71.5737 145.057 73.534 144.587 75.4004C145.585 74.6609 146.43 73.7218 147.076 72.6536Z" fill="url(#paint36_radial_189_9958)"/>
<path id="Vector_46" opacity="0.59" d="M134.326 56.6303C134.315 59.0602 133.258 61.4431 132.037 63.5795C132.812 62.2178 135.336 61.1027 136.709 60.5157C138.541 59.7293 140.513 59.2597 142.496 59.1658C144.199 59.0836 146.3 58.8489 147.521 60.1753C148.964 61.7365 149.868 63.8847 150.267 65.9507C150.784 68.6505 150.49 71.456 149.716 74.0972C151.124 72.4655 151.829 70.3643 152.486 68.3101C153.613 64.7416 154.705 61.0557 154.587 57.2759C154.481 53.6135 154.869 50.3619 153.085 46.9225C151.641 44.1288 149.07 42.4384 145.748 42.3328C139.01 42.1215 134.139 47.0047 130.688 52.1931C131.58 51.9349 132.577 52.334 133.2 53.0266C133.822 53.7074 134.127 54.6347 134.244 55.5621C134.315 55.9142 134.326 56.2664 134.326 56.6303Z" fill="url(#paint37_radial_189_9958)"/>
<g id="Vector_47" style="mix-blend-mode:screen" opacity="0.59">
<path d="M149.339 44.7275C148.248 45.8544 147.825 47.6387 148.001 49.2351C148.224 51.2776 149.21 53.1323 150.044 54.9987C151.663 58.5907 152.802 62.4761 152.673 66.4085C152.532 70.3409 150.983 74.3438 147.942 76.8558C149.562 73.5338 151.182 69.8949 150.466 66.2794C150.173 64.7769 149.492 63.38 148.623 62.124C148.248 61.584 147.848 61.0558 147.344 60.6449C146.111 59.6237 144.433 59.3185 142.836 59.3537C138.458 59.4241 134.373 61.7014 131.109 64.6243C133.34 62.3705 135.57 60.1284 137.8 57.8746C138.939 56.7243 140.089 55.5622 140.934 54.1887C141.78 52.8153 142.32 51.1837 142.12 49.5873C141.921 47.9791 140.864 46.4413 139.326 45.9483C137.953 45.5023 136.427 45.9366 135.241 46.7465C134.056 47.5565 133.14 48.6951 132.236 49.822C134.279 46.9578 137.213 44.5162 140.465 43.1428C142.085 42.4502 143.846 42.0277 145.606 42.1333C146.44 42.192 147.273 42.3563 148.06 42.6615C148.341 42.7672 150.278 44.0349 150.349 43.988C149.961 44.1758 149.621 44.4223 149.339 44.7275Z" fill="url(#paint38_radial_189_9958)"/>
</g>
</g>
<path id="Vector_48" d="M131.767 62.4057C133.34 61.0088 134.983 59.6119 136.932 58.8371C138.54 58.2033 140.301 58.0155 142.038 57.945C144.093 57.8511 146.217 57.9215 148.119 58.6963C150.02 59.471 151.699 61.0792 152.063 63.0982C152.298 64.4129 151.969 65.7394 151.64 67.0306C151.006 69.4605 150.314 71.9021 149.046 74.062C147.778 76.2219 145.865 78.1 143.47 78.8278C141.639 79.3795 139.679 79.2269 137.777 79.0391C131.485 78.4052 125.158 77.3957 119.289 75.0363C124.243 76.8088 129.431 77.9474 134.678 78.3935C138.693 78.7339 143.106 78.5578 146.229 76.0106C150.396 72.6182 152.204 61.8539 145.501 60.0814C140.489 58.755 135.218 61.2318 131.168 64.4599C127.119 67.6997 123.726 71.7612 119.324 74.5081C123.339 70.3174 127.4 66.2676 131.767 62.4057Z" fill="url(#paint39_radial_189_9958)"/>
</g>
<g id="Group_13">
<path id="Vector_49" d="M143.283 97.2456C142.778 100.791 141.956 104.336 141.393 107.822C140.959 110.487 140.524 113.21 141.029 115.863C141.769 119.748 149.469 127.836 154 126.568C149.739 127.754 144.973 126.733 141.44 124.115C143.025 127.003 145.231 129.55 147.884 131.522C143.823 131.428 139.914 129.35 137.343 126.216C131.803 119.455 132.26 109.43 134.62 101.589C137.531 91.8811 136.874 81.3869 130.758 72.8647C135.066 73.8038 138.822 76.7737 141.088 80.5535C144.14 85.8593 144.116 91.5407 143.283 97.2456Z" fill="url(#paint40_radial_189_9958)"/>
<g id="Group_14">
<path id="Vector_50" opacity="0.16" d="M143.951 127.778C142.777 128.188 141.498 128.294 140.242 127.989C139.467 127.801 138.751 127.472 138.082 127.05C140.629 129.726 144.198 131.452 147.884 131.534C146.428 130.442 145.102 129.174 143.951 127.778Z" fill="url(#paint41_radial_189_9958)"/>
<path id="Vector_51" opacity="0.16" d="M147.803 124.549C147.44 125.171 146.982 125.758 146.418 126.287C146.348 126.345 146.277 126.404 146.207 126.463C148.743 127.202 151.466 127.284 154.013 126.58C152.217 127.073 149.952 126.122 147.803 124.549Z" fill="url(#paint42_radial_189_9958)"/>
<path id="Vector_52" opacity="0.16" d="M134.632 101.601C134.279 102.763 133.986 103.96 133.728 105.204C135.512 102.962 138.353 101.495 141.006 102.81C141.44 102.986 141.839 103.22 142.179 103.526C142.578 101.436 142.989 99.3468 143.283 97.2573C144.104 91.5524 144.14 85.871 141.088 80.5769C138.81 76.7971 135.066 73.8273 130.758 72.8882C136.874 81.3986 137.543 91.8928 134.632 101.601Z" fill="url(#paint43_radial_189_9958)"/>
</g>
<g id="Group_15">
<path id="Vector_53" opacity="0.16" d="M134.631 101.601C134.62 101.636 134.608 101.659 134.608 101.694C136.216 97.5743 139.057 94.2405 143.635 94.2757C144.034 89.5803 143.623 84.9436 141.099 80.5769C138.822 76.7971 135.078 73.8273 130.77 72.8882C136.874 81.3986 137.543 91.8928 134.631 101.601Z" fill="url(#paint44_radial_189_9958)"/>
</g>
<g id="Vector_54" style="mix-blend-mode:screen" opacity="0.59">
<path d="M135.524 105.944C135.407 106.12 135.301 106.296 135.231 106.437C133.963 108.89 133.552 111.743 133.799 114.49C134.139 118.164 135.595 121.638 137.344 124.89C138.083 126.251 139.057 127.731 140.583 127.977C141.346 128.094 142.121 127.883 142.872 127.672C142.098 126.005 141.335 124.35 140.56 122.683C142.18 124.045 144.07 125.078 146.077 125.735C146.5 125.465 146.922 125.183 147.345 124.913C144.457 122.366 141.534 119.537 140.501 115.828C139.914 113.738 139.996 111.555 140.184 109.43C140.337 107.752 141.299 105.756 140.337 104.148C139.046 101.941 136.545 104.43 135.524 105.944Z" fill="url(#paint45_radial_189_9958)"/>
</g>
</g>
<g id="Group_16">
<path id="Vector_55" d="M152.238 76.6564C157.016 79.0745 161.418 82.6078 163.847 87.3736C167.322 94.2054 166.043 103.15 160.784 108.726C155.525 114.302 146.921 116.403 139.889 113.327C138.844 111.59 138.774 107.998 139.091 105.686C141.204 106.085 144.984 106.367 147.097 106.296C149.174 106.226 151.276 105.31 152.802 103.925C158.436 98.7834 155.936 88.9935 150.724 84.5212C149.62 83.5703 148.376 82.7839 147.097 82.0796C143.246 79.9432 138.997 78.5345 134.865 77.0555C131.696 75.9286 128.409 75.1538 125.063 74.7665C123.397 74.5669 121.706 74.473 120.028 74.473C118.995 74.473 116.048 74.1091 115.215 74.7195C116.4 73.8391 117.621 73.8509 118.971 73.5457C124.054 72.407 129.325 71.8905 134.525 72.1488C140.676 72.4657 146.756 73.8861 152.238 76.6564Z" fill="url(#paint46_radial_189_9958)"/>
<path id="Vector_56" opacity="0.23" d="M159.221 81.4455C159.233 81.4455 159.245 81.4455 159.256 81.4455C158.787 81.0111 158.306 80.6003 157.812 80.2012C158.27 80.6355 158.74 81.0463 159.221 81.4455Z" fill="url(#paint47_radial_189_9958)"/>
<g id="Group_17">
<path id="Vector_57" opacity="0.23" d="M150.665 84.0042C150.43 82.8655 150.841 81.6917 151.475 80.7643C152.062 79.8957 153.224 79.2501 154.245 79.0975C155.008 78.9801 156.124 79.1092 156.922 79.5201C155.443 78.4284 153.87 77.4776 152.238 76.6559C146.744 73.8856 140.664 72.4652 134.536 72.16C129.325 71.9018 124.066 72.4183 118.983 73.5569C117.621 73.8621 116.4 73.8504 115.227 74.7307C116.06 74.1086 119.006 74.4725 120.039 74.4842C121.718 74.4842 123.397 74.5899 125.075 74.7777C128.409 75.1651 131.707 75.9281 134.877 77.0667C139.009 78.5458 143.258 79.9544 147.108 82.0908C148.388 82.7951 149.62 83.5816 150.736 84.5324C150.782 84.5676 150.818 84.6146 150.865 84.6498C150.794 84.4385 150.724 84.2272 150.665 84.0042Z" fill="url(#paint48_radial_189_9958)"/>
<path id="Vector_58" opacity="0.23" d="M160.879 104.512C159.623 104.477 158.249 103.901 157.31 103.068C156.758 102.575 156.301 102.035 155.937 101.46C155.855 101.425 155.772 101.378 155.678 101.331C155.432 101.213 155.209 101.096 154.986 100.967C154.469 102.058 153.753 103.056 152.802 103.925C151.276 105.31 149.175 106.226 147.098 106.296C144.985 106.367 141.205 106.085 139.092 105.686C138.775 107.998 138.845 111.59 139.89 113.327C146.91 116.403 155.526 114.29 160.785 108.726C162.158 107.27 163.25 105.592 164.06 103.772C163.121 104.277 162.064 104.547 160.879 104.512Z" fill="url(#paint49_radial_189_9958)"/>
<path id="Vector_59" opacity="0.23" d="M158.66 105.768C156.899 105.157 155.361 103.643 154.505 101.859C154.047 102.61 153.483 103.314 152.802 103.948C151.276 105.333 149.175 106.249 147.098 106.32C144.985 106.39 141.205 106.108 139.092 105.709C138.775 108.022 138.845 111.614 139.89 113.351C146.91 116.426 155.526 114.313 160.785 108.749C161.559 107.928 162.229 107.036 162.827 106.085C161.442 106.308 160.022 106.249 158.66 105.768Z" fill="url(#paint50_radial_189_9958)"/>
</g>
<path id="Vector_60" d="M138.881 108.245C138.834 105.768 138.635 103.479 141.44 102.516C142.743 102.07 145.279 101.753 146.652 101.753C153.742 101.718 160.644 105.779 161.63 114.196C162.358 120.406 160.726 123.141 160.809 123.399C160.093 121.31 159.4 119.302 158.003 117.588C157.921 120.511 156.853 123.458 155.644 126.111C155.961 125.43 153.554 116.908 152.744 115.053C151.066 111.25 147.72 109.137 144.14 109.724C141.874 110.099 139.198 111.156 139.902 113.351C138.963 112.224 138.905 109.935 138.881 108.245Z" fill="url(#paint51_radial_189_9958)"/>
<g id="Group_18">
<path id="Vector_61" opacity="0.17" d="M148.424 110.005C148.366 109.911 148.319 109.818 148.272 109.724C147.286 108.55 146.98 106.883 147.509 105.345C148.26 103.138 150.842 102.211 152.944 102.88C150.972 102.117 148.823 101.741 146.652 101.753C145.278 101.753 142.743 102.07 141.44 102.516C138.634 103.479 138.846 105.768 138.881 108.245C138.916 109.935 138.963 112.224 139.902 113.351C139.198 111.156 141.874 110.099 144.14 109.724C145.795 109.454 147.391 109.771 148.8 110.545C148.671 110.358 148.542 110.181 148.424 110.005Z" fill="url(#paint52_radial_189_9958)"/>
<path id="Vector_62" opacity="0.17" d="M160.808 123.387C160.726 123.141 162.357 120.406 161.63 114.185C161.5 113.058 161.254 112.001 160.914 111.027L160.902 111.039C160.96 111.649 160.878 112.295 160.655 112.964C159.951 115.03 157.11 116.38 155.091 115.394C154.023 114.877 152.943 114.267 151.945 113.562C152.239 114.02 152.509 114.513 152.744 115.053C153.553 116.896 155.96 125.418 155.643 126.111C156.852 123.446 157.92 120.512 158.002 117.589C159.399 119.303 160.092 121.298 160.808 123.387Z" fill="url(#paint53_radial_189_9958)"/>
</g>
<path id="Vector_63" opacity="0.23" d="M143.717 109.794C143.565 109.641 143.424 109.477 143.295 109.301C141.956 107.517 141.945 105.146 143.212 103.314C143.611 102.739 144.116 102.258 144.68 101.882C143.506 102.011 142.238 102.234 141.428 102.516C138.623 103.479 138.834 105.768 138.869 108.245C138.904 109.935 138.951 112.224 139.89 113.351C139.233 111.273 141.557 110.217 143.717 109.794Z" fill="url(#paint54_radial_189_9958)"/>
<g id="Vector_64" style="mix-blend-mode:screen" opacity="0.59">
<path d="M156.454 95.9898C156.454 96.0602 156.442 96.1306 156.442 96.2011C156.337 97.9266 155.973 99.8635 157.064 101.213C157.569 101.836 158.309 102.211 159.025 102.528C159.647 102.81 160.293 103.068 160.973 103.092C165.798 103.279 165.504 96.4711 165.058 93.2195C164.507 89.0758 162.675 85.073 159.799 82.0327C158.567 80.7297 156.513 79.2507 154.635 79.7672C153.05 80.2015 151.336 81.4927 151.477 83.3005C151.583 84.6973 152.674 85.7773 153.531 86.8807C155.538 89.4514 156.595 92.7382 156.454 95.9898Z" fill="url(#paint55_radial_189_9958)"/>
</g>
<g id="Vector_65" style="mix-blend-mode:screen" opacity="0.59">
<path d="M154.726 103.984C154.268 103.655 153.787 103.35 153.247 103.197C152.707 103.045 152.144 103.045 151.592 103.139C149.819 103.42 148.082 104.899 148.07 106.836C148.059 107.987 148.822 108.984 149.585 109.83C151.111 111.52 152.825 113.022 154.703 114.314C155.137 114.607 155.595 114.901 156.1 115.053C157.755 115.57 159.633 114.372 160.22 112.741C160.807 111.097 160.314 109.219 159.304 107.799C158.107 106.132 156.358 105.158 154.726 103.984Z" fill="url(#paint56_radial_189_9958)"/>
</g>
</g>
<path id="Vector_66" opacity="0.49" d="M48.9883 111.625C50.2091 110.85 53.4372 111.062 54.928 110.745C57.0879 110.287 59.2125 109.688 61.2902 108.937C65.6335 107.388 69.7654 105.239 73.51 102.54C81.9735 96.4472 90.5309 90.4606 99.5695 85.2252C107.681 80.5298 115.264 74.8484 125.171 74.6488C122.413 72.7002 119.008 71.8198 115.64 71.5968C111.801 71.3503 107.493 71.5733 103.725 72.3363C99.6282 73.1463 95.8601 75.1301 92.3621 77.4074C84.2977 82.631 77.4424 89.3924 70.4463 95.8838C63.6145 102.234 56.7592 106.73 48.9883 111.625Z" fill="url(#paint57_radial_189_9958)"/>
<g id="Group_19">
<path id="Vector_67" d="M121.753 72.1251C114.534 71.3034 104.474 71.8316 98.487 76.3627C91.9838 81.2928 85.9385 86.8804 79.8228 92.2683C73.1318 98.1611 65.8187 103.244 57.8248 107.2C54.4441 108.878 50.946 110.357 47.3071 111.332C38.5619 113.679 29.312 113.057 20.3438 111.872C30.5562 115.475 41.7665 114.325 52.5307 113.116C66.0183 111.613 79.4002 109.571 92.3712 105.474C99.0035 103.373 105.542 99.8984 112.362 98.6541C119.311 97.3863 126.472 98.2902 133.362 99.5227C141.826 101.025 150.336 103.068 158.905 102.363C162.509 102.07 166.265 101.19 168.871 98.6893C154.832 88.3242 139.842 74.1793 121.753 72.1251Z" fill="url(#paint58_radial_189_9958)"/>
<g id="Group_20">
<path id="Vector_68" d="M55.3828 112.33L57.0732 112.048C57.0849 112.048 57.1084 112.06 57.1084 112.071C57.1084 112.083 57.0966 112.107 57.0849 112.107L55.3828 112.33Z" fill="#FFA91F"/>
<path id="Vector_69" d="M60.3139 110.897C61.3469 110.404 62.3447 109.841 63.3072 109.219C63.3776 109.172 63.4715 109.195 63.5185 109.266C63.5655 109.336 63.542 109.43 63.4715 109.477C62.4738 110.064 61.4525 110.604 60.3961 111.062C60.3491 111.073 60.2904 111.062 60.2787 111.015C60.2435 110.98 60.2669 110.921 60.3139 110.897Z" fill="#FFA91F"/>
<path id="Vector_70" d="M66.1454 107.293L68.9391 105.286C69.0683 105.192 69.2326 105.227 69.3265 105.345C69.4204 105.462 69.3852 105.638 69.2678 105.732C69.2678 105.732 69.2678 105.732 69.2561 105.732L66.3801 107.646C66.2862 107.716 66.1454 107.693 66.0867 107.587C66.028 107.493 66.0515 107.364 66.1454 107.293Z" fill="#FFA91F"/>
<path id="Vector_71" d="M71.712 103.244L74.447 101.155H74.4588C74.5879 101.061 74.764 101.084 74.8579 101.202C74.9518 101.331 74.9283 101.507 74.7992 101.601L72.0641 103.702C71.935 103.796 71.7589 103.772 71.665 103.643C71.5476 103.526 71.5711 103.338 71.712 103.244Z" fill="#FFA91F"/>
<path id="Vector_72" d="M77.1242 99.0063L79.7654 96.8112V96.7994C79.8827 96.7055 80.0706 96.7173 80.1645 96.8346C80.2701 96.952 80.2466 97.1398 80.1292 97.2337L77.4763 99.4406C77.359 99.5462 77.1711 99.5228 77.0772 99.4054C76.9833 99.288 76.9951 99.1119 77.1242 99.0063Z" fill="#FFA91F"/>
<path id="Vector_73" d="M82.3713 94.5572L84.942 92.2682C85.0594 92.1626 85.2472 92.1743 85.3411 92.2917C85.4467 92.4091 85.435 92.5852 85.3176 92.7025L82.7351 94.9915C82.6178 95.0972 82.43 95.0854 82.336 94.9681C82.2421 94.8389 82.2539 94.6629 82.3713 94.5572Z" fill="#FFA91F"/>
<path id="Vector_74" d="M87.5109 89.9557L90.0934 87.6784C90.2108 87.5727 90.3986 87.5845 90.4925 87.7019C90.5981 87.8192 90.5864 88.0071 90.469 88.1127L87.8865 90.39C87.7691 90.4956 87.5813 90.4839 87.4874 90.3665C87.37 90.2491 87.3818 90.0613 87.5109 89.9557Z" fill="#FFA91F"/>
<path id="Vector_75" d="M92.7218 85.4366C93.614 84.7088 94.5061 83.981 95.41 83.265C95.5391 83.1711 95.7152 83.1945 95.8091 83.3119C95.903 83.4411 95.8795 83.6171 95.7621 83.711C94.8583 84.4154 93.9779 85.1549 93.0857 85.8592H93.074C92.9566 85.9531 92.7688 85.9414 92.6749 85.8122C92.581 85.7183 92.5927 85.5422 92.7218 85.4366Z" fill="#FFA91F"/>
<path id="Vector_76" d="M98.2283 81.2578L101.186 79.4501C101.316 79.3679 101.492 79.4148 101.574 79.544C101.656 79.6848 101.621 79.8609 101.48 79.9431L101.456 79.9548L98.5335 81.7391L98.51 81.7508C98.3692 81.833 98.2048 81.786 98.1109 81.6569C98.0522 81.516 98.0992 81.34 98.2283 81.2578Z" fill="#FFA91F"/>
<path id="Vector_77" d="M104.284 77.8768L107.512 76.5973C107.653 76.5386 107.829 76.609 107.888 76.7616C107.947 76.9025 107.876 77.0785 107.724 77.1372L107.7 77.149L104.531 78.4167L104.507 78.4285C104.355 78.4872 104.19 78.4167 104.132 78.2759C104.073 78.0998 104.132 77.9355 104.284 77.8768Z" fill="#FFA91F"/>
<path id="Vector_78" d="M110.86 75.6351C111.987 75.3769 113.137 75.1891 114.299 75.0834C114.464 75.0717 114.593 75.1773 114.616 75.3417C114.628 75.506 114.523 75.6351 114.358 75.6586C113.231 75.7642 112.104 75.9521 110.989 76.2103C110.837 76.2455 110.684 76.1516 110.649 75.999C110.602 75.8229 110.696 75.6821 110.86 75.6351Z" fill="#FFA91F"/>
<path id="Vector_79" d="M117.774 74.9775C118.361 75.001 118.924 75.0714 119.5 75.1067L121.225 75.2593C121.378 75.271 121.495 75.4119 121.483 75.5645C121.472 75.7171 121.331 75.8345 121.178 75.8227H121.166L119.453 75.6818C118.889 75.6349 118.314 75.5645 117.75 75.5527C117.598 75.5527 117.469 75.4119 117.469 75.2593C117.48 75.0949 117.61 74.9775 117.774 74.9775Z" fill="#FFA91F"/>
<path id="Vector_80" d="M124.652 75.7641L128.044 76.4802C128.197 76.5154 128.303 76.668 128.267 76.8206C128.232 76.9732 128.08 77.0671 127.927 77.0436H127.903L124.546 76.3276H124.523C124.37 76.2924 124.265 76.1398 124.3 75.9872C124.347 75.8346 124.499 75.7289 124.652 75.7641Z" fill="#FFA91F"/>
<path id="Vector_81" d="M131.378 77.4191L134.653 78.5577C134.806 78.6164 134.876 78.769 134.829 78.9216C134.782 79.0742 134.618 79.1446 134.465 79.0977L134.454 79.0859L131.214 77.959L131.202 77.9473C131.05 77.9003 130.979 77.736 131.026 77.5834C131.061 77.4425 131.226 77.3604 131.378 77.4191Z" fill="#FFA91F"/>
<path id="Vector_82" d="M137.835 79.9196L140.922 81.4925C141.063 81.563 141.122 81.739 141.052 81.8799C140.981 82.0207 140.805 82.0794 140.664 81.9973H140.641L137.589 80.4361L137.577 80.4243C137.436 80.3539 137.377 80.1778 137.448 80.0369C137.518 79.8961 137.694 79.8491 137.835 79.9196Z" fill="#FFA91F"/>
<path id="Vector_83" d="M143.893 83.2766L146.768 85.19C146.898 85.2839 146.933 85.4482 146.851 85.5891C146.757 85.7182 146.581 85.7534 146.452 85.6713H146.44L143.576 83.7696L143.564 83.7579C143.435 83.6757 143.4 83.4997 143.482 83.3588C143.576 83.2297 143.752 83.1945 143.893 83.2766Z" fill="#FFA91F"/>
<path id="Vector_84" d="M149.585 87.1623L152.507 88.9466H152.519C152.66 89.0288 152.695 89.2048 152.613 89.3457C152.531 89.4865 152.355 89.5218 152.226 89.4396L149.268 87.6319C149.138 87.5497 149.092 87.3736 149.174 87.2445C149.256 87.1036 149.432 87.0684 149.561 87.1506L149.585 87.1623Z" fill="#FFA91F"/>
<path id="Vector_85" d="M155.49 90.7074L158.354 92.656C158.448 92.7264 158.472 92.8555 158.413 92.9494C158.354 93.0433 158.225 93.0668 158.131 93.0081L158.12 92.9964L155.22 91.1652L155.208 91.1534C155.079 91.0713 155.044 90.9069 155.126 90.7778C155.185 90.6604 155.349 90.6252 155.49 90.7074C155.478 90.6956 155.478 90.7074 155.49 90.7074Z" fill="#FFA91F"/>
<path id="Vector_86" d="M161.099 94.7335L163.846 96.8112C163.881 96.8346 163.893 96.8933 163.869 96.9403C163.834 96.9755 163.787 96.9873 163.74 96.9638L160.923 94.98C160.852 94.933 160.841 94.8391 160.888 94.7687C160.935 94.6982 161.028 94.6748 161.099 94.7335C161.099 94.7217 161.099 94.7217 161.099 94.7335Z" fill="#FFA91F"/>
<path id="Vector_87" d="M166.571 98.9126C167.076 99.1826 167.64 99.3586 168.215 99.3117C167.64 99.3704 167.064 99.2178 166.548 98.9595C166.536 98.9595 166.524 98.9361 166.536 98.9243C166.536 98.9126 166.548 98.9008 166.571 98.9126Z" fill="#FFA91F"/>
</g>
<path id="Vector_88" opacity="0.22" d="M165.653 97.1632C158.774 92.1039 151.074 88.2185 143.256 84.8612C135.497 81.5275 127.89 78.4638 119.462 81.3984C114.309 83.1944 105.305 93.8999 100.856 97.0575C91.4772 103.713 89.9042 105.204 77.1797 109.489C82.239 108.197 87.3922 107.082 92.3576 105.486C98.9898 103.385 105.528 99.91 112.348 98.6657C119.297 97.398 126.458 98.3018 133.348 99.5344C141.812 101.037 150.322 103.079 158.891 102.375C161.028 102.199 163.211 101.847 165.195 101.013C168.353 99.6752 168.235 99.0531 165.653 97.1632Z" fill="url(#paint59_radial_189_9958)"/>
<path id="Vector_89" opacity="0.22" d="M124.1 88.4768C117.033 88.9933 110.682 93.583 104.414 97.0459C96.7841 101.26 90.8209 105.944 81.1602 108.233C84.9986 107.387 88.6024 106.683 92.3704 105.474C99.0027 103.373 105.541 99.8983 112.361 98.654C119.31 97.3863 126.471 98.2901 133.361 99.5227C139.301 100.579 145.252 101.988 151.286 102.352C155.406 102.598 159.163 101.178 163.306 101.131C151.474 97.9732 141.156 89.5097 128.748 88.4885C127.199 88.3594 125.637 88.3594 124.1 88.4768Z" fill="url(#paint60_radial_189_9958)"/>
<path id="Vector_90" opacity="0.59" d="M50.4413 113.351C53.3759 112.412 56.2049 111.179 58.9634 109.806C66.9574 105.85 74.2822 100.767 80.9614 94.8743C87.0889 89.4746 93.1342 83.887 99.6256 78.9686C105.612 74.4376 115.672 73.9093 122.891 74.731C140.018 76.6679 154.362 89.4511 167.756 99.6049C168.143 99.3232 168.519 99.018 168.871 98.6893C154.832 88.3242 139.842 74.1793 121.753 72.1251C114.534 71.3034 104.474 71.8316 98.487 76.3627C91.9838 81.2928 85.9385 86.8804 79.8228 92.2683C73.1318 98.1611 65.8187 103.244 57.8248 107.2C54.4441 108.878 50.946 110.357 47.3071 111.332C38.5619 113.679 29.312 113.057 20.3438 111.872C29.8989 115.241 40.3227 114.442 50.4413 113.351Z" fill="url(#paint61_radial_189_9958)"/>
</g>
</g>
</g>
<defs>
<radialGradient id="paint0_radial_189_9958" cx="0" cy="0" r="1" gradientUnits="userSpaceOnUse" gradientTransform="translate(55.436 75.6279) scale(125.249)">
<stop offset="0.00813008" stop-color="#4A0075"/>
<stop offset="0.0681" stop-color="#470070"/>
<stop offset="0.4033" stop-color="#370059"/>
<stop offset="0.7209" stop-color="#2D004C"/>
<stop offset="1" stop-color="#2A0047"/>
</radialGradient>
<radialGradient id="paint1_radial_189_9958" cx="0" cy="0" r="1" gradientUnits="userSpaceOnUse" gradientTransform="translate(36.9239 89.8189) scale(113.376)">
<stop offset="0.00813008" stop-color="#7100B2"/>
<stop offset="0.5991" stop-color="#450070"/>
<stop offset="1" stop-color="#2A0047"/>
</radialGradient>
<radialGradient id="paint2_radial_189_9958" cx="0" cy="0" r="1" gradientUnits="userSpaceOnUse" gradientTransform="translate(37.3001 90.1232) scale(106.782)">
<stop offset="0.00813008" stop-color="#E5BF00"/>
<stop offset="1" stop-color="#C16F3A"/>
</radialGradient>
<radialGradient id="paint3_radial_189_9958" cx="0" cy="0" r="1" gradientUnits="userSpaceOnUse" gradientTransform="translate(55.436 75.8861) scale(125.89)">
<stop offset="0.00813008" stop-color="#630075"/>
<stop offset="0.1217" stop-color="#5E006F"/>
<stop offset="1" stop-color="#390047"/>
</radialGradient>
<radialGradient id="paint4_radial_189_9958" cx="0" cy="0" r="1" gradientUnits="userSpaceOnUse" gradientTransform="translate(64.8487 73.1304) scale(76.61)">
<stop offset="0.00813008" stop-color="#630075"/>
<stop offset="0.1217" stop-color="#5E006F"/>
<stop offset="1" stop-color="#390047"/>
</radialGradient>
<radialGradient id="paint5_radial_189_9958" cx="0" cy="0" r="1" gradientUnits="userSpaceOnUse" gradientTransform="translate(62.1893 75.7948) scale(116.991)">
<stop offset="0.00813008" stop-color="#630075"/>
<stop offset="0.1217" stop-color="#5E006F"/>
<stop offset="1" stop-color="#390047"/>
</radialGradient>
<radialGradient id="paint6_radial_189_9958" cx="0" cy="0" r="1" gradientUnits="userSpaceOnUse" gradientTransform="translate(20.7364 105.206) scale(60.2907)">
<stop offset="0.00813008" stop-color="#4A0075"/>
<stop offset="0.0681" stop-color="#470070"/>
<stop offset="0.4033" stop-color="#370059"/>
<stop offset="0.7209" stop-color="#2D004C"/>
<stop offset="1" stop-color="#2A0047"/>
</radialGradient>
<radialGradient id="paint7_radial_189_9958" cx="0" cy="0" r="1" gradientUnits="userSpaceOnUse" gradientTransform="translate(74.0037 114.276) scale(26.9725)">
<stop offset="0.00813008" stop-color="#630075"/>
<stop offset="0.1217" stop-color="#5E006F"/>
<stop offset="1" stop-color="#390047"/>
</radialGradient>
<radialGradient id="paint8_radial_189_9958" cx="0" cy="0" r="1" gradientUnits="userSpaceOnUse" gradientTransform="translate(77.6762 34.1198) scale(123.713)">
<stop offset="0.00813008" stop-color="#4A0075"/>
<stop offset="0.1217" stop-color="#46006F"/>
<stop offset="1" stop-color="#2A0047"/>
</radialGradient>
<radialGradient id="paint9_radial_189_9958" cx="0" cy="0" r="1" gradientUnits="userSpaceOnUse" gradientTransform="translate(82.0603 39.5582) scale(97.901)">
<stop offset="0.00813008" stop-color="#7100B2"/>
<stop offset="0.5991" stop-color="#450070"/>
<stop offset="1" stop-color="#2A0047"/>
</radialGradient>
<radialGradient id="paint10_radial_189_9958" cx="0" cy="0" r="1" gradientUnits="userSpaceOnUse" gradientTransform="translate(84.7774 36.772) scale(108.817)">
<stop offset="0.00813008" stop-color="#E5BF00"/>
<stop offset="1" stop-color="#C16F3A"/>
</radialGradient>
<radialGradient id="paint11_radial_189_9958" cx="0" cy="0" r="1" gradientUnits="userSpaceOnUse" gradientTransform="translate(77.6742 35.2678) scale(125.803)">
<stop offset="0.00813008" stop-color="#630075"/>
<stop offset="0.1217" stop-color="#5E006F"/>
<stop offset="1" stop-color="#390047"/>
</radialGradient>
<radialGradient id="paint12_radial_189_9958" cx="0" cy="0" r="1" gradientUnits="userSpaceOnUse" gradientTransform="translate(64.0691 52.612) scale(70.5133)">
<stop offset="0.00813008" stop-color="#630075"/>
<stop offset="0.1217" stop-color="#5E006F"/>
<stop offset="1" stop-color="#390047"/>
</radialGradient>
<radialGradient id="paint13_radial_189_9958" cx="0" cy="0" r="1" gradientUnits="userSpaceOnUse" gradientTransform="translate(80.0064 36.0679) scale(123.449)">
<stop offset="0.00813008" stop-color="#630075"/>
<stop offset="0.1217" stop-color="#5E006F"/>
<stop offset="1" stop-color="#390047"/>
</radialGradient>
<radialGradient id="paint14_radial_189_9958" cx="0" cy="0" r="1" gradientUnits="userSpaceOnUse" gradientTransform="translate(76.5972 32.8722) scale(62.9487)">
<stop offset="0.00813008" stop-color="#4A0075"/>
<stop offset="0.0235" stop-color="#480072"/>
<stop offset="0.2359" stop-color="#2E0049"/>
<stop offset="0.4442" stop-color="#1A0029"/>
<stop offset="0.6447" stop-color="#0C0012"/>
<stop offset="0.8338" stop-color="#030005"/>
<stop offset="1"/>
</radialGradient>
<radialGradient id="paint15_radial_189_9958" cx="0" cy="0" r="1" gradientUnits="userSpaceOnUse" gradientTransform="translate(76.692 72.5427) rotate(-0.633015) scale(105.246 101.992)">
<stop offset="0.00813008" stop-color="#9539CB"/>
<stop offset="0.6703" stop-color="#4A1270"/>
<stop offset="1" stop-color="#280047"/>
</radialGradient>
<radialGradient id="paint16_radial_189_9958" cx="0" cy="0" r="1" gradientUnits="userSpaceOnUse" gradientTransform="translate(77.7681 72.4803) scale(42.6691)">
<stop offset="0.00813008" stop-color="#803FA5"/>
<stop offset="0.1236" stop-color="#5F2F7B"/>
<stop offset="0.2475" stop-color="#422155"/>
<stop offset="0.3772" stop-color="#2A1536"/>
<stop offset="0.5121" stop-color="#180C1E"/>
<stop offset="0.6545" stop-color="#0A050D"/>
<stop offset="0.8094" stop-color="#030103"/>
<stop offset="1"/>
</radialGradient>
<radialGradient id="paint17_radial_189_9958" cx="0" cy="0" r="1" gradientUnits="userSpaceOnUse" gradientTransform="translate(76.6883 72.2926) rotate(-0.633015) scale(105.402 102.143)">
<stop offset="0.00813008" stop-color="#9539CB"/>
<stop offset="0.6726" stop-color="#5F116F"/>
<stop offset="1" stop-color="#470046"/>
</radialGradient>
<radialGradient id="paint18_radial_189_9958" cx="0" cy="0" r="1" gradientUnits="userSpaceOnUse" gradientTransform="translate(76.6879 72.2906) rotate(-0.633015) scale(105.402 102.143)">
<stop offset="0.00813008" stop-color="#9539CB"/>
<stop offset="0.6726" stop-color="#5F116F"/>
<stop offset="1" stop-color="#470046"/>
</radialGradient>
<radialGradient id="paint19_radial_189_9958" cx="0" cy="0" r="1" gradientUnits="userSpaceOnUse" gradientTransform="translate(76.8598 72.3192) rotate(-0.633015) scale(105.137 101.886)">
<stop offset="0.00813008" stop-color="#9539CB"/>
<stop offset="0.6726" stop-color="#5F116F"/>
<stop offset="1" stop-color="#470046"/>
</radialGradient>
<radialGradient id="paint20_radial_189_9958" cx="0" cy="0" r="1" gradientUnits="userSpaceOnUse" gradientTransform="translate(76.5005 72.4807) rotate(-0.633015) scale(104.562 101.33)">
<stop offset="0.00813008" stop-color="#9539CB"/>
<stop offset="0.6726" stop-color="#5F116F"/>
<stop offset="1" stop-color="#470046"/>
</radialGradient>
<radialGradient id="paint21_radial_189_9958" cx="0" cy="0" r="1" gradientUnits="userSpaceOnUse" gradientTransform="translate(76.6905 72.2913) rotate(-0.633015) scale(105.399 102.141)">
<stop offset="0.00813008" stop-color="#9539CB"/>
<stop offset="0.6726" stop-color="#5F116F"/>
<stop offset="1" stop-color="#470046"/>
</radialGradient>
<radialGradient id="paint22_radial_189_9958" cx="0" cy="0" r="1" gradientUnits="userSpaceOnUse" gradientTransform="translate(138.513 34.5868) rotate(-21.4624) scale(69.6887 64.78)">
<stop offset="0.00813008" stop-color="#9539CB"/>
<stop offset="0.6703" stop-color="#4A1270"/>
<stop offset="1" stop-color="#280047"/>
</radialGradient>
<radialGradient id="paint23_radial_189_9958" cx="0" cy="0" r="1" gradientUnits="userSpaceOnUse" gradientTransform="translate(121.344 52.9084) rotate(-21.4624) scale(42.7756 39.7626)">
<stop offset="0.00813008" stop-color="#9539CB"/>
<stop offset="0.6726" stop-color="#5F116F"/>
<stop offset="1" stop-color="#470046"/>
</radialGradient>
<radialGradient id="paint24_radial_189_9958" cx="0" cy="0" r="1" gradientUnits="userSpaceOnUse" gradientTransform="translate(142.579 46.5565) rotate(-21.4624) scale(40.1816 37.3513)">
<stop offset="0.00813008" stop-color="#9539CB"/>
<stop offset="0.6726" stop-color="#5F116F"/>
<stop offset="1" stop-color="#470046"/>
</radialGradient>
<radialGradient id="paint25_radial_189_9958" cx="0" cy="0" r="1" gradientUnits="userSpaceOnUse" gradientTransform="translate(141.551 47.3554) rotate(-21.4624) scale(39.2428 36.4786)">
<stop offset="0.00813008" stop-color="#9539CB"/>
<stop offset="0.6726" stop-color="#5F116F"/>
<stop offset="1" stop-color="#470046"/>
</radialGradient>
<radialGradient id="paint26_radial_189_9958" cx="0" cy="0" r="1" gradientUnits="userSpaceOnUse" gradientTransform="translate(142.197 47.2162) rotate(-21.4625) scale(36.8929 34.2943)">
<stop offset="0.00813008" stop-color="#9539CB"/>
<stop offset="0.6726" stop-color="#5F116F"/>
<stop offset="1" stop-color="#470046"/>
</radialGradient>
<radialGradient id="paint27_radial_189_9958" cx="0" cy="0" r="1" gradientUnits="userSpaceOnUse" gradientTransform="translate(140.467 45.2551) rotate(-21.4625) scale(42.1872 39.2156)">
<stop offset="0.00813008" stop-color="#9539CB"/>
<stop offset="0.6726" stop-color="#5F116F"/>
<stop offset="1" stop-color="#470046"/>
</radialGradient>
<radialGradient id="paint28_radial_189_9958" cx="0" cy="0" r="1" gradientUnits="userSpaceOnUse" gradientTransform="translate(130.533 34.2497) rotate(-21.4624) scale(34.826 32.3729)">
<stop offset="0.00813008" stop-color="#803FA5"/>
<stop offset="0.1236" stop-color="#5F2F7B"/>
<stop offset="0.2475" stop-color="#422155"/>
<stop offset="0.3772" stop-color="#2A1536"/>
<stop offset="0.5121" stop-color="#180C1E"/>
<stop offset="0.6545" stop-color="#0A050D"/>
<stop offset="0.8094" stop-color="#030103"/>
<stop offset="1"/>
</radialGradient>
<radialGradient id="paint29_radial_189_9958" cx="0" cy="0" r="1" gradientUnits="userSpaceOnUse" gradientTransform="translate(130.657 39.9908) rotate(-21.4624) scale(31.5998 29.374)">
<stop offset="0.00813008" stop-color="#803FA5"/>
<stop offset="0.1236" stop-color="#5F2F7B"/>
<stop offset="0.2475" stop-color="#422155"/>
<stop offset="0.3772" stop-color="#2A1536"/>
<stop offset="0.5121" stop-color="#180C1E"/>
<stop offset="0.6545" stop-color="#0A050D"/>
<stop offset="0.8094" stop-color="#030103"/>
<stop offset="1"/>
</radialGradient>
<radialGradient id="paint30_radial_189_9958" cx="0" cy="0" r="1" gradientUnits="userSpaceOnUse" gradientTransform="translate(157.411 44.8005) rotate(0.292206) scale(89.6002)">
<stop offset="0.00813008" stop-color="#9539CB"/>
<stop offset="0.6726" stop-color="#5F116F"/>
<stop offset="1" stop-color="#470046"/>
</radialGradient>
<radialGradient id="paint31_radial_189_9958" cx="0" cy="0" r="1" gradientUnits="userSpaceOnUse" gradientTransform="translate(156.577 52.9409) rotate(10.6992) scale(69.6884 64.7797)">
<stop offset="0.00813008" stop-color="#9539CB"/>
<stop offset="0.6703" stop-color="#4A1270"/>
<stop offset="1" stop-color="#280047"/>
</radialGradient>
<radialGradient id="paint32_radial_189_9958" cx="0" cy="0" r="1" gradientUnits="userSpaceOnUse" gradientTransform="translate(132.289 59.3109) rotate(10.6992) scale(42.7753 39.7624)">
<stop offset="0.00813008" stop-color="#9539CB"/>
<stop offset="0.6726" stop-color="#5F116F"/>
<stop offset="1" stop-color="#470046"/>
</radialGradient>
<radialGradient id="paint33_radial_189_9958" cx="0" cy="0" r="1" gradientUnits="userSpaceOnUse" gradientTransform="translate(153.648 65.2387) rotate(10.6992) scale(40.182 37.3517)">
<stop offset="0.00813008" stop-color="#9539CB"/>
<stop offset="0.6726" stop-color="#5F116F"/>
<stop offset="1" stop-color="#470046"/>
</radialGradient>
<radialGradient id="paint34_radial_189_9958" cx="0" cy="0" r="1" gradientUnits="userSpaceOnUse" gradientTransform="translate(152.352 65.368) rotate(10.6992) scale(39.2454 36.4811)">
<stop offset="0.00813008" stop-color="#9539CB"/>
<stop offset="0.6726" stop-color="#5F116F"/>
<stop offset="1" stop-color="#470046"/>
</radialGradient>
<radialGradient id="paint35_radial_189_9958" cx="0" cy="0" r="1" gradientUnits="userSpaceOnUse" gradientTransform="translate(152.974 65.5946) rotate(10.6992) scale(36.8876 34.2893)">
<stop offset="0.00813008" stop-color="#9539CB"/>
<stop offset="0.6726" stop-color="#5F116F"/>
<stop offset="1" stop-color="#470046"/>
</radialGradient>
<radialGradient id="paint36_radial_189_9958" cx="0" cy="0" r="1" gradientUnits="userSpaceOnUse" gradientTransform="translate(152.555 63.0139) rotate(10.6991) scale(42.1865 39.2149)">
<stop offset="0.00813008" stop-color="#9539CB"/>
<stop offset="0.6726" stop-color="#5F116F"/>
<stop offset="1" stop-color="#470046"/>
</radialGradient>
<radialGradient id="paint37_radial_189_9958" cx="0" cy="0" r="1" gradientUnits="userSpaceOnUse" gradientTransform="translate(150.003 48.4074) rotate(10.6992) scale(34.825 32.372)">
<stop offset="0.00813008" stop-color="#803FA5"/>
<stop offset="0.1236" stop-color="#5F2F7B"/>
<stop offset="0.2475" stop-color="#422155"/>
<stop offset="0.3772" stop-color="#2A1536"/>
<stop offset="0.5121" stop-color="#180C1E"/>
<stop offset="0.6545" stop-color="#0A050D"/>
<stop offset="0.8094" stop-color="#030103"/>
<stop offset="1"/>
</radialGradient>
<radialGradient id="paint38_radial_189_9958" cx="0" cy="0" r="1" gradientUnits="userSpaceOnUse" gradientTransform="translate(147.05 53.3336) rotate(10.6992) scale(31.601 29.3751)">
<stop offset="0.00813008" stop-color="#803FA5"/>
<stop offset="0.1236" stop-color="#5F2F7B"/>
<stop offset="0.2475" stop-color="#422155"/>
<stop offset="0.3772" stop-color="#2A1536"/>
<stop offset="0.5121" stop-color="#180C1E"/>
<stop offset="0.6545" stop-color="#0A050D"/>
<stop offset="0.8094" stop-color="#030103"/>
<stop offset="1"/>
</radialGradient>
<radialGradient id="paint39_radial_189_9958" cx="0" cy="0" r="1" gradientUnits="userSpaceOnUse" gradientTransform="translate(167.137 71.6465) rotate(32.4536) scale(89.5918)">
<stop offset="0.00813008" stop-color="#9539CB"/>
<stop offset="0.6726" stop-color="#5F116F"/>
<stop offset="1" stop-color="#470046"/>
</radialGradient>
<radialGradient id="paint40_radial_189_9958" cx="0" cy="0" r="1" gradientUnits="userSpaceOnUse" gradientTransform="translate(146.605 119.846) rotate(15.041) scale(40.0747)">
<stop offset="0.00813008" stop-color="#9539CB"/>
<stop offset="0.6703" stop-color="#4A1270"/>
<stop offset="1" stop-color="#280047"/>
</radialGradient>
<radialGradient id="paint41_radial_189_9958" cx="0" cy="0" r="1" gradientUnits="userSpaceOnUse" gradientTransform="translate(146.604 119.846) rotate(15.0411) scale(40.0746 40.0747)">
<stop offset="0.00813008" stop-color="#9539CB"/>
<stop offset="0.6726" stop-color="#5F116F"/>
<stop offset="1" stop-color="#470046"/>
</radialGradient>
<radialGradient id="paint42_radial_189_9958" cx="0" cy="0" r="1" gradientUnits="userSpaceOnUse" gradientTransform="translate(146.607 119.841) rotate(15.041) scale(40.0863)">
<stop offset="0.00813008" stop-color="#9539CB"/>
<stop offset="0.6726" stop-color="#5F116F"/>
<stop offset="1" stop-color="#470046"/>
</radialGradient>
<radialGradient id="paint43_radial_189_9958" cx="0" cy="0" r="1" gradientUnits="userSpaceOnUse" gradientTransform="translate(146.607 119.847) rotate(15.041) scale(40.0763)">
<stop offset="0.00813008" stop-color="#9539CB"/>
<stop offset="0.6726" stop-color="#5F116F"/>
<stop offset="1" stop-color="#470046"/>
</radialGradient>
<radialGradient id="paint44_radial_189_9958" cx="0" cy="0" r="1" gradientUnits="userSpaceOnUse" gradientTransform="translate(146.604 119.844) rotate(15.0411) scale(40.0733)">
<stop offset="0.00813008" stop-color="#9539CB"/>
<stop offset="0.6726" stop-color="#5F116F"/>
<stop offset="1" stop-color="#470046"/>
</radialGradient>
<radialGradient id="paint45_radial_189_9958" cx="0" cy="0" r="1" gradientUnits="userSpaceOnUse" gradientTransform="translate(143.335 127.087) rotate(15.041) scale(18.1858)">
<stop offset="0.00813008" stop-color="#4A0075"/>
<stop offset="0.1326" stop-color="#360055"/>
<stop offset="0.2808" stop-color="#220036"/>
<stop offset="0.4365" stop-color="#13001E"/>
<stop offset="0.6009" stop-color="#08000D"/>
<stop offset="0.7798" stop-color="#020003"/>
<stop offset="1"/>
</radialGradient>
<radialGradient id="paint46_radial_189_9958" cx="0" cy="0" r="1" gradientUnits="userSpaceOnUse" gradientTransform="translate(159.236 89.5531) rotate(21.4312) scale(35.4719)">
<stop offset="0.00813008" stop-color="#9539CB"/>
<stop offset="0.6703" stop-color="#4A1270"/>
<stop offset="1" stop-color="#280047"/>
</radialGradient>
<radialGradient id="paint47_radial_189_9958" cx="0" cy="0" r="1" gradientUnits="userSpaceOnUse" gradientTransform="translate(159.23 89.5697) rotate(21.4311) scale(35.5409 35.5408)">
<stop offset="0.00813008" stop-color="#9539CB"/>
<stop offset="0.6726" stop-color="#5F116F"/>
<stop offset="1" stop-color="#470046"/>
</radialGradient>
<radialGradient id="paint48_radial_189_9958" cx="0" cy="0" r="1" gradientUnits="userSpaceOnUse" gradientTransform="translate(159.238 89.5519) rotate(21.4312) scale(35.4725)">
<stop offset="0.00813008" stop-color="#9539CB"/>
<stop offset="0.6726" stop-color="#5F116F"/>
<stop offset="1" stop-color="#470046"/>
</radialGradient>
<radialGradient id="paint49_radial_189_9958" cx="0" cy="0" r="1" gradientUnits="userSpaceOnUse" gradientTransform="translate(159.238 89.5504) rotate(21.4312) scale(35.4747)">
<stop offset="0.00813008" stop-color="#9539CB"/>
<stop offset="0.6726" stop-color="#5F116F"/>
<stop offset="1" stop-color="#470046"/>
</radialGradient>
<radialGradient id="paint50_radial_189_9958" cx="0" cy="0" r="1" gradientUnits="userSpaceOnUse" gradientTransform="translate(159.238 89.5508) rotate(21.4312) scale(35.4744)">
<stop offset="0.00813008" stop-color="#9539CB"/>
<stop offset="0.6726" stop-color="#5F116F"/>
<stop offset="1" stop-color="#470046"/>
</radialGradient>
<radialGradient id="paint51_radial_189_9958" cx="0" cy="0" r="1" gradientUnits="userSpaceOnUse" gradientTransform="translate(156.129 112.678) rotate(21.4312) scale(28.9836)">
<stop offset="0.00813008" stop-color="#9539CB"/>
<stop offset="0.6703" stop-color="#4A1270"/>
<stop offset="1" stop-color="#280047"/>
</radialGradient>
<radialGradient id="paint52_radial_189_9958" cx="0" cy="0" r="1" gradientUnits="userSpaceOnUse" gradientTransform="translate(156.13 112.678) rotate(21.4312) scale(28.9852)">
<stop offset="0.00813008" stop-color="#9539CB"/>
<stop offset="0.6726" stop-color="#5F116F"/>
<stop offset="1" stop-color="#470046"/>
</radialGradient>
<radialGradient id="paint53_radial_189_9958" cx="0" cy="0" r="1" gradientUnits="userSpaceOnUse" gradientTransform="translate(156.128 112.678) rotate(21.4311) scale(28.9854)">
<stop offset="0.00813008" stop-color="#9539CB"/>
<stop offset="0.6726" stop-color="#5F116F"/>
<stop offset="1" stop-color="#470046"/>
</radialGradient>
<radialGradient id="paint54_radial_189_9958" cx="0" cy="0" r="1" gradientUnits="userSpaceOnUse" gradientTransform="translate(156.13 112.678) rotate(21.4312) scale(28.9833)">
<stop offset="0.00813008" stop-color="#9539CB"/>
<stop offset="0.6726" stop-color="#5F116F"/>
<stop offset="1" stop-color="#470046"/>
</radialGradient>
<radialGradient id="paint55_radial_189_9958" cx="0" cy="0" r="1" gradientUnits="userSpaceOnUse" gradientTransform="translate(161.306 91.8559) rotate(21.4312) scale(16.0988)">
<stop offset="0.00813008" stop-color="#4A0075"/>
<stop offset="0.1326" stop-color="#360055"/>
<stop offset="0.2808" stop-color="#220036"/>
<stop offset="0.4365" stop-color="#13001E"/>
<stop offset="0.6009" stop-color="#08000D"/>
<stop offset="0.7798" stop-color="#020003"/>
<stop offset="1"/>
</radialGradient>
<radialGradient id="paint56_radial_189_9958" cx="0" cy="0" r="1" gradientUnits="userSpaceOnUse" gradientTransform="translate(156.604 114.554) rotate(21.4312) scale(13.7883)">
<stop offset="0.00813008" stop-color="#4A0075"/>
<stop offset="0.1326" stop-color="#360055"/>
<stop offset="0.2808" stop-color="#220036"/>
<stop offset="0.4365" stop-color="#13001E"/>
<stop offset="0.6009" stop-color="#08000D"/>
<stop offset="0.7798" stop-color="#020003"/>
<stop offset="1"/>
</radialGradient>
<radialGradient id="paint57_radial_189_9958" cx="0" cy="0" r="1" gradientUnits="userSpaceOnUse" gradientTransform="translate(28.5618 110.192) scale(75.1418)">
<stop offset="0.00813008" stop-color="#630075"/>
<stop offset="0.1217" stop-color="#5E006F"/>
<stop offset="1" stop-color="#390047"/>
</radialGradient>
<radialGradient id="paint58_radial_189_9958" cx="0" cy="0" r="1" gradientUnits="userSpaceOnUse" gradientTransform="translate(93.1988 78.1025) scale(73.6089)">
<stop offset="0.00813008" stop-color="#6A00A8"/>
<stop offset="0.1539" stop-color="#5A0090"/>
<stop offset="0.3834" stop-color="#450070"/>
<stop offset="0.6057" stop-color="#360059"/>
<stop offset="0.8156" stop-color="#2D004C"/>
<stop offset="1" stop-color="#2A0047"/>
</radialGradient>
<radialGradient id="paint59_radial_189_9958" cx="0" cy="0" r="1" gradientUnits="userSpaceOnUse" gradientTransform="translate(129.667 106.319) scale(34.17)">
<stop stop-color="#390047"/>
<stop offset="0.8783" stop-color="#5E006F"/>
<stop offset="0.9919" stop-color="#630075"/>
</radialGradient>
<radialGradient id="paint60_radial_189_9958" cx="0" cy="0" r="1" gradientUnits="userSpaceOnUse" gradientTransform="translate(115.265 98.529) scale(43.0373)">
<stop stop-color="#390047"/>
<stop offset="0.8783" stop-color="#5E006F"/>
<stop offset="0.9919" stop-color="#630075"/>
</radialGradient>
<radialGradient id="paint61_radial_189_9958" cx="0" cy="0" r="1" gradientUnits="userSpaceOnUse" gradientTransform="translate(101.238 72.193) scale(97.4924)">
<stop offset="0.00813008" stop-color="#4A0075"/>
<stop offset="0.0681" stop-color="#470070"/>
<stop offset="0.4033" stop-color="#370059"/>
<stop offset="0.7209" stop-color="#2D004C"/>
<stop offset="1" stop-color="#2A0047"/>
</radialGradient>
<clipPath id="clip0_189_9958">
<rect width="167.919" height="131.013" fill="white" transform="translate(0.953125 0.52002)"/>
</clipPath>
</defs>
</svg>
