<svg width="18" height="21" viewBox="0 0 18 21" fill="none" xmlns="http://www.w3.org/2000/svg">
<path d="M10.1901 1.17859L4.6265 6.00001H2.5C1.39543 6.00001 0.5 6.89544 0.5 8.00001V13C0.5 14.1552 1.4289 15 2.5 15H4.627L10.1901 19.8214C10.5538 20.1366 11.0188 20.31 11.5 20.31C12.6046 20.31 13.5 19.4146 13.5 18.31V2.68997C13.5 2.20879 13.3265 1.74374 13.0114 1.38011C12.288 0.545401 11.0248 0.455178 10.1901 1.17859Z" fill="#1D66FF"/>
<path d="M15.2415 6.5356C15.7122 6.24667 16.328 6.39401 16.6169 6.86469C17.1915 7.80064 17.5004 8.87879 17.5004 9.99991C17.5004 11.389 17.0257 12.7081 16.1706 13.767C15.8237 14.1967 15.1941 14.2638 14.7644 13.9168C14.3347 13.5698 14.2676 12.9402 14.6146 12.5105C15.1849 11.8043 15.5004 10.9276 15.5004 9.99991C15.5004 9.25081 15.2951 8.53436 14.9125 7.91099C14.6235 7.44031 14.7709 6.82453 15.2415 6.5356Z" fill="#1D66FF"/>
</svg>
